0
SECTION
2
HEADER
9
$INSUNITS
70
4
9
$ACADVER
1
AC1014
9
$HANDSEED
5
FFFF
0
ENDSEC
0
SECTION
2
TABLES
0
TABLE
2
VPORT
5
8
100
AcDbSymbolTable
0
ENDTAB
0
TABLE
2
LTYPE
5
5
100
AcDbSymbolTable
0
LTYPE
5
14
100
AcDbSymbolTableRecord
100
AcDbLinetypeTableRecord
2
BYBLOCK
70
0
0
LTYPE
5
15
100
AcDbSymbolTableRecord
100
AcDbLinetypeTableRecord
2
BYLAYER
70
0
0
ENDTAB
0
TABLE
2
LAYER
5
2
100
AcDbSymbolTable
70
2
0
LAYER
5
50
100
AcDbSymbolTableRecord
100
AcDbLayerTableRecord
2
0
70
0
6
CONTINUOUS
0
ENDTAB
0
TABLE
2
STYLE
5
3
100
AcDbSymbolTable
70
1
0
STYLE
5
11
100
AcDbSymbolTableRecord
100
AcDbTextStyleTableRecord
2
STANDARD
70
0
0
ENDTAB
0
TABLE
2
VIEW
5
6
100
AcDbSymbolTable
70
0
0
ENDTAB
0
TABLE
2
UCS
5
7
100
AcDbSymbolTable
70
0
0
ENDTAB
0
TABLE
2
APPID
5
9
100
AcDbSymbolTable
70
2
0
APPID
5
12
100
AcDbSymbolTableRecord
100
AcDbRegAppTableRecord
2
ACAD
70
0
0
ENDTAB
0
TABLE
2
DIMSTYLE
5
A
100
AcDbSymbolTable
70
1
0
ENDTAB
0
TABLE
2
BLOCK_RECORD
5
1
100
AcDbSymbolTable
70
1
0
BLOCK_RECORD
5
1F
100
AcDbSymbolTableRecord
100
AcDbBlockTableRecord
2
*MODEL_SPACE
0
BLOCK_RECORD
5
1B
100
AcDbSymbolTableRecord
100
AcDbBlockTableRecord
2
*PAPER_SPACE
0
ENDTAB
0
ENDSEC
0
SECTION
2
BLOCKS
0
BLOCK
5
20
100
AcDbEntity
100
AcDbBlockBegin
2
*MODEL_SPACE
0
ENDBLK
5
21
100
AcDbEntity
100
AcDbBlockEnd
0
BLOCK
5
1C
100
AcDbEntity
100
AcDbBlockBegin
2
*PAPER_SPACE
0
ENDBLK
5
1D
100
AcDbEntity
100
AcDbBlockEnd
0
ENDSEC
0
SECTION
2
ENTITIES
0
CIRCLE
5
100
100
AcDbEntity
8
0
100
AcDbCircle
10
279.490814208985
20
-13.746089875640843
30
0
40
1.7500000000000089
210
1.463706757706293e-32
220
1.9721522630525335e-31
230
1
0
CIRCLE
5
101
100
AcDbEntity
8
0
100
AcDbCircle
10
-215.50918579101341
20
-86.246089875654462
30
0
40
1.7500000000000089
210
1.463706757706293e-32
220
1.9721522630525335e-31
230
1
0
CIRCLE
5
102
100
AcDbEntity
8
0
100
AcDbCircle
10
299.49081420898546
20
-31.246089875640305
30
0
40
1.7500000000000089
210
1.463706757706293e-32
220
1.9721522630525335e-31
230
1
0
CIRCLE
5
103
100
AcDbEntity
8
0
100
AcDbCircle
10
-235.50918579101392
20
-68.746089875655016
30
-5.5511151231257827e-16
40
1.7499999999999734
210
1.4637067577057325e-32
220
1.9721522630525335e-31
230
1
0
CIRCLE
5
104
100
AcDbEntity
8
0
100
AcDbCircle
10
279.49081420898699
20
-86.246089875640862
30
0
40
1.7500000000000089
210
1.463706757706293e-32
220
1.9721522630525335e-31
230
1
0
CIRCLE
5
105
100
AcDbEntity
8
0
100
AcDbCircle
10
-235.509185791015
20
-31.246089875654999
30
0
40
1.7500000000000089
210
1.463706757706293e-32
220
1.9721522630525335e-31
230
1
0
CIRCLE
5
106
100
AcDbEntity
8
0
100
AcDbCircle
10
299.49081420898654
20
-68.746089875640294
30
0
40
1.7500000000000089
210
1.463706757706293e-32
220
1.9721522630525335e-31
230
1
0
CIRCLE
5
107
100
AcDbEntity
8
0
100
AcDbCircle
10
-215.50918579101548
20
-13.746089875654446
30
-5.5511151231257827e-16
40
1.7500000000000089
210
1.463706757706293e-32
220
1.9721522630525335e-31
230
1
0
LWPOLYLINE
5
108
100
AcDbEntity
8
0
100
AcDbPolyline
90
4
70
1
43
0.0
10
-93.009185791014275
20
-51.996089875651094
10
156.99081420898594
20
-51.99608987564423
10
156.99081420898611
20
-56.996089875644216
10
-93.009185791014119
20
-56.99608987565108
0
LWPOLYLINE
5
109
100
AcDbEntity
8
0
100
AcDbPolyline
90
4
70
1
43
0.0
10
34.490814208985121
20
-24.996090731547582
10
29.490814208985118
20
-24.996090731547721
10
29.490814208984567
20
-4.9960898756477112
10
34.49081420898456
20
-4.9960898756475771
0
LWPOLYLINE
5
110
100
AcDbEntity
8
0
100
AcDbPolyline
90
4
70
1
43
0.0
10
29.49081420898704
20
-94.996090731547739
10
29.490814208986485
20
-74.996090731547724
10
34.490814208986514
20
-74.996090731547596
10
34.490814208987061
20
-94.996090731547596
0
LWPOLYLINE
5
111
100
AcDbEntity
8
0
100
AcDbPolyline
90
36
70
1
43
0.0
10
314.49081420898744
20
-99.996089875639896
10
314.49081420898659
20
-69.996089875639896
10
309.49081420898659
20
-69.996089875640038
10
309.49081420898625
20
-56.996089875640038
10
269.49081420898619
20
-56.996089875641125
10
269.49081420898608
20
-51.996089875641125
10
309.49081420898614
20
-51.996089875640024
10
309.49081420898546
20
-29.99608987564002
10
314.49081420898546
20
-29.996089875639889
10
314.49081420898466
20
0.0039101243601180613
10
269.4908142089846
20
0.0039101243588809771
10
269.49081420898477
20
-4.9960898756411201
10
156.99081420898466
20
-4.9960898756442118
10
156.99081420898452
20
0.0039101243557898568
10
-93.009185791015696
20
0.0039101243489201949
10
-93.009185791015554
20
-4.996089875651081
10
-205.50918579101565
20
-4.9960898756541727
10
-205.50918579101577
20
0.0039101243458289359
10
-250.5091857910158
20
0.0039101243445924068
10
-250.50918579101503
20
-29.996089875655414
10
-245.509185791015
20
-29.996089875655279
10
-245.50918579101437
20
-51.996089875655287
10
-205.50918579101437
20
-51.996089875654178
10
-205.5091857910142
20
-56.996089875654185
10
-245.50918579101423
20
-56.996089875655287
10
-245.50918579101392
20
-69.996089875655272
10
-250.50918579101392
20
-69.996089875655414
10
-250.5091857910131
20
-99.996089875655443
10
-205.50918579101304
20
-99.996089875654178
10
-205.50918579101312
20
-94.996089875654178
10
-93.009185791013039
20
-94.996089875651094
10
-93.009185791012925
20
-99.996089875651094
10
156.99081420898727
20
-99.996089875644216
10
156.99081420898716
20
-94.99608987564423
10
269.49081420898727
20
-94.996089875641147
10
269.49081420898739
20
-99.996089875641147
0
ENDSEC
0
SECTION
2
OBJECTS
0
DICTIONARY
5
C
100
AcDbDictionary
3
ACAD_GROUP
350
D
3
ACAD_MLINESTYLE
350
17
0
DICTIONARY
5
D
100
AcDbDictionary
0
DICTIONARY
5
1A
330
C
100
AcDbDictionary
0
DICTIONARY
5
17
100
AcDbDictionary
0
ENDSEC
0
EOF
