0
SECTION
2
HEADER
9
$INSUNITS
70
4
9
$ACADVER
1
AC1014
9
$HANDSEED
5
FFFF
0
ENDSEC
0
SECTION
2
TABLES
0
TABLE
2
VPORT
5
8
100
AcDbSymbolTable
0
ENDTAB
0
TABLE
2
LTYPE
5
5
100
AcDbSymbolTable
0
LTYPE
5
14
100
AcDbSymbolTableRecord
100
AcDbLinetypeTableRecord
2
BYBLOCK
70
0
0
LTYPE
5
15
100
AcDbSymbolTableRecord
100
AcDbLinetypeTableRecord
2
BYLAYER
70
0
0
ENDTAB
0
TABLE
2
LAYER
5
2
100
AcDbSymbolTable
70
2
0
LAYER
5
50
100
AcDbSymbolTableRecord
100
AcDbLayerTableRecord
2
0
70
0
6
CONTINUOUS
0
ENDTAB
0
TABLE
2
STYLE
5
3
100
AcDbSymbolTable
70
1
0
STYLE
5
11
100
AcDbSymbolTableRecord
100
AcDbTextStyleTableRecord
2
STANDARD
70
0
0
ENDTAB
0
TABLE
2
VIEW
5
6
100
AcDbSymbolTable
70
0
0
ENDTAB
0
TABLE
2
UCS
5
7
100
AcDbSymbolTable
70
0
0
ENDTAB
0
TABLE
2
APPID
5
9
100
AcDbSymbolTable
70
2
0
APPID
5
12
100
AcDbSymbolTableRecord
100
AcDbRegAppTableRecord
2
ACAD
70
0
0
ENDTAB
0
TABLE
2
DIMSTYLE
5
A
100
AcDbSymbolTable
70
1
0
ENDTAB
0
TABLE
2
BLOCK_RECORD
5
1
100
AcDbSymbolTable
70
1
0
BLOCK_RECORD
5
1F
100
AcDbSymbolTableRecord
100
AcDbBlockTableRecord
2
*MODEL_SPACE
0
BLOCK_RECORD
5
1B
100
AcDbSymbolTableRecord
100
AcDbBlockTableRecord
2
*PAPER_SPACE
0
ENDTAB
0
ENDSEC
0
SECTION
2
BLOCKS
0
BLOCK
5
20
100
AcDbEntity
100
AcDbBlockBegin
2
*MODEL_SPACE
0
ENDBLK
5
21
100
AcDbEntity
100
AcDbBlockEnd
0
BLOCK
5
1C
100
AcDbEntity
100
AcDbBlockBegin
2
*PAPER_SPACE
0
ENDBLK
5
1D
100
AcDbEntity
100
AcDbBlockEnd
0
ENDSEC
0
SECTION
2
ENTITIES
0
CIRCLE
5
100
100
AcDbEntity
8
0
100
AcDbCircle
10
-181.68786502432508
20
-68.749998765953762
30
0
40
1.7500000000000093
210
-1.8222657754495122e-31
220
-9.8607613152626541e-32
230
1
0
CIRCLE
5
101
100
AcDbEntity
8
0
100
AcDbCircle
10
-9.1878650243247844
20
-68.749998765953464
30
0
40
1.7500000000000027
210
-3.7944180385020444e-31
220
-9.8607613152626629e-32
230
1
0
CIRCLE
5
102
100
AcDbEntity
8
0
100
AcDbCircle
10
-9.1878650243248003
20
-31.249998765953258
30
0
40
1.7500000000000004
210
-1.8222657754495118e-31
220
-1.9721522630525304e-31
230
1
0
CIRCLE
5
103
100
AcDbEntity
8
0
100
AcDbCircle
10
-181.68786502432522
20
-31.249998765953563
30
0
40
1.7500000000000093
210
-1.8222657754495122e-31
220
-9.8607613152626541e-32
230
1
0
CIRCLE
5
104
100
AcDbEntity
8
0
100
AcDbCircle
10
-164.18786502432505
20
-86.249998765953791
30
0
40
1.7500000000000093
210
-1.8222657754495122e-31
220
-9.8607613152626541e-32
230
1
0
CIRCLE
5
105
100
AcDbEntity
8
0
100
AcDbCircle
10
-26.687865024324644
20
-86.249998765953507
30
0
40
1.7500000000000004
210
-1.8222657754495118e-31
220
-1.9721522630525304e-31
230
1
0
CIRCLE
5
106
100
AcDbEntity
8
0
100
AcDbCircle
10
-26.687865024324843
20
-13.749998765953251
30
0
40
1.7500000000000004
210
-1.8222657754495118e-31
220
-1.9721522630525304e-31
230
1
0
CIRCLE
5
107
100
AcDbEntity
8
0
100
AcDbCircle
10
-164.18786502432516
20
-13.749998765953517
30
0
40
1.7500000000000093
210
-1.8222657754495122e-31
220
-9.8607613152626541e-32
230
1
0
LWPOLYLINE
5
108
100
AcDbEntity
8
0
100
AcDbPolyline
90
4
70
1
43
0.0
10
-115.43786502432479
20
-51.999998765953485
10
-115.43786502432476
20
-56.999998765953492
10
-155.43786502432485
20
-56.999998765953592
10
-155.43786502432488
20
-51.999998765953578
0
LWPOLYLINE
5
109
100
AcDbEntity
8
0
100
AcDbPolyline
90
28
70
1
43
0.0
10
-195.43786502432496
20
-29.999998765953642
10
-195.43786502432485
20
-69.999998765953706
10
-190.43786502432485
20
-69.999998765953691
10
-190.43786502432479
20
-99.999998765953734
10
-155.43786502432476
20
-99.999998765953649
10
-155.43786502432476
20
-94.999998765953649
10
-115.43786502432471
20
-94.999998765953549
10
-115.43786502432468
20
-99.999998765953535
10
-75.437865024324623
20
-99.999998765953464
10
-75.437865024324651
20
-94.99999876595345
10
-35.437865024324623
20
-94.999998765953364
10
-35.437865024324601
20
-99.999998765953364
10
-0.43786502432455521
20
-99.999998765953265
10
-0.43786502432463426
20
-69.999998765953237
10
4.5621349756753728
20
-69.999998765953222
10
4.5621349756752796
20
-29.999998765953162
10
-0.43786502432472729
20
-29.999998765953176
10
-0.4378650243247969
20
1.2340468691363071e-06
10
-35.437865024324836
20
1.2340467905186392e-06
10
-35.437865024324822
20
-4.9999987659532223
10
-75.43786502432485
20
-4.9999987659533103
10
-75.437865024324879
20
1.2340467026028534e-06
10
-115.43786502432494
20
1.2340466010174467e-06
10
-115.43786502432489
20
-4.9999987659534177
10
-155.43786502432496
20
-4.9999987659535057
10
-155.43786502432499
20
1.2340465072036011e-06
10
-190.43786502432505
20
1.2340464174837029e-06
10
-190.43786502432496
20
-29.999998765953638
0
LWPOLYLINE
5
110
100
AcDbEntity
8
0
100
AcDbPolyline
90
4
70
1
43
0.0
10
-35.437865024324701
20
-56.999998765953308
10
-75.437865024324736
20
-56.999998765953407
10
-75.437865024324751
20
-51.999998765953393
10
-35.437865024324736
20
-51.999998765953293
0
ENDSEC
0
SECTION
2
OBJECTS
0
DICTIONARY
5
C
100
AcDbDictionary
3
ACAD_GROUP
350
D
3
ACAD_MLINESTYLE
350
17
0
DICTIONARY
5
D
100
AcDbDictionary
0
DICTIONARY
5
1A
330
C
100
AcDbDictionary
0
DICTIONARY
5
17
100
AcDbDictionary
0
ENDSEC
0
EOF
