0
SECTION
2
HEADER
9
$INSUNITS
70
4
9
$ACADVER
1
AC1014
9
$HANDSEED
5
FFFF
0
ENDSEC
0
SECTION
2
TABLES
0
TABLE
2
VPORT
5
8
100
AcDbSymbolTable
0
ENDTAB
0
TABLE
2
LTYPE
5
5
100
AcDbSymbolTable
0
LTYPE
5
14
100
AcDbSymbolTableRecord
100
AcDbLinetypeTableRecord
2
BYBLOCK
70
0
0
LTYPE
5
15
100
AcDbSymbolTableRecord
100
AcDbLinetypeTableRecord
2
BYLAYER
70
0
0
ENDTAB
0
TABLE
2
LAYER
5
2
100
AcDbSymbolTable
70
2
0
LAYER
5
50
100
AcDbSymbolTableRecord
100
AcDbLayerTableRecord
2
0
70
0
6
CONTINUOUS
0
ENDTAB
0
TABLE
2
STYLE
5
3
100
AcDbSymbolTable
70
1
0
STYLE
5
11
100
AcDbSymbolTableRecord
100
AcDbTextStyleTableRecord
2
STANDARD
70
0
0
ENDTAB
0
TABLE
2
VIEW
5
6
100
AcDbSymbolTable
70
0
0
ENDTAB
0
TABLE
2
UCS
5
7
100
AcDbSymbolTable
70
0
0
ENDTAB
0
TABLE
2
APPID
5
9
100
AcDbSymbolTable
70
2
0
APPID
5
12
100
AcDbSymbolTableRecord
100
AcDbRegAppTableRecord
2
ACAD
70
0
0
ENDTAB
0
TABLE
2
DIMSTYLE
5
A
100
AcDbSymbolTable
70
1
0
ENDTAB
0
TABLE
2
BLOCK_RECORD
5
1
100
AcDbSymbolTable
70
1
0
BLOCK_RECORD
5
1F
100
AcDbSymbolTableRecord
100
AcDbBlockTableRecord
2
*MODEL_SPACE
0
BLOCK_RECORD
5
1B
100
AcDbSymbolTableRecord
100
AcDbBlockTableRecord
2
*PAPER_SPACE
0
ENDTAB
0
ENDSEC
0
SECTION
2
BLOCKS
0
BLOCK
5
20
100
AcDbEntity
100
AcDbBlockBegin
2
*MODEL_SPACE
0
ENDBLK
5
21
100
AcDbEntity
100
AcDbBlockEnd
0
BLOCK
5
1C
100
AcDbEntity
100
AcDbBlockBegin
2
*PAPER_SPACE
0
ENDBLK
5
1D
100
AcDbEntity
100
AcDbBlockEnd
0
ENDSEC
0
SECTION
2
ENTITIES
0
CIRCLE
5
100
100
AcDbEntity
8
0
100
AcDbCircle
10
80.07131964380001
20
-95.94704960680005
30
0
40
1.749999999999998
210
0
220
-0
230
1
0
CIRCLE
5
101
100
AcDbEntity
8
0
100
AcDbCircle
10
-144.05295039319998
20
-94.928680356200005
30
0
40
1.7500000000000071
210
0
220
-0
230
1
0
CIRCLE
5
102
100
AcDbEntity
8
0
100
AcDbCircle
10
-284.9286803562
20
-95.94704960680005
30
0
40
1.7500000000000071
210
0
220
-0
230
1
0
CIRCLE
5
103
100
AcDbEntity
8
0
100
AcDbCircle
10
220.94704960680002
20
-94.928680356200005
30
0
40
1.7500000000000071
210
0
220
-0
230
1
0
CIRCLE
5
104
100
AcDbEntity
8
0
100
AcDbCircle
10
151.01836925060007
20
-165.87572996299997
30
0
40
1.7500000000000071
210
0
220
-0
230
1
0
CIRCLE
5
105
100
AcDbEntity
8
0
100
AcDbCircle
10
-215
20
-25
30
0
40
1.7500000000000071
210
0
220
-0
230
1
0
CIRCLE
5
106
100
AcDbEntity
8
0
100
AcDbCircle
10
-213.98163074939993
20
-165.87572996299997
30
0
40
1.7500000000000071
210
0
220
-0
230
1
0
CIRCLE
5
107
100
AcDbEntity
8
0
100
AcDbCircle
10
150
20
-25
30
0
40
1.7500000000000071
210
0
220
-0
230
1
0
CIRCLE
5
108
100
AcDbEntity
8
0
100
AcDbCircle
10
235.50918462530001
20
-164.18786498149998
30
0
40
1.7500000000000071
210
0
220
0
230
1
0
CIRCLE
5
109
100
AcDbEntity
8
0
100
AcDbCircle
10
-299.49081537469999
20
-26.687864981499999
30
0
40
1.7500000000000071
210
0
220
0
230
1
0
CIRCLE
5
110
100
AcDbEntity
8
0
100
AcDbCircle
10
-299.49081537469999
20
-164.18786498149998
30
0
40
1.7500000000000071
210
0
220
0
230
1
0
CIRCLE
5
111
100
AcDbEntity
8
0
100
AcDbCircle
10
235.50918462530001
20
-26.687864981500002
30
0
40
1.7500000000000071
210
0
220
0
230
1
0
CIRCLE
5
112
100
AcDbEntity
8
0
100
AcDbCircle
10
215.50918462530001
20
-181.68786498149998
30
0
40
1.7500000000000071
210
0
220
0
230
1
0
CIRCLE
5
113
100
AcDbEntity
8
0
100
AcDbCircle
10
-279.49081537469999
20
-9.1878649815000006
30
0
40
1.7500000000000071
210
0
220
0
230
1
0
CIRCLE
5
114
100
AcDbEntity
8
0
100
AcDbCircle
10
-279.49081537469999
20
-181.68786498149998
30
0
40
1.7500000000000071
210
0
220
0
230
1
0
CIRCLE
5
115
100
AcDbEntity
8
0
100
AcDbCircle
10
215.50918462530001
20
-9.1878649815000006
30
0
40
1.7500000000000071
210
0
220
0
230
1
0
LWPOLYLINE
5
116
100
AcDbEntity
8
0
100
AcDbPolyline
90
10
70
1
43
0.0
10
-95.885623301434606
20
-90.690631917270252
10
-94.284687429438776
20
-90.690631917270252
10
-94.284687429438776
20
-93.885268960742536
10
-91.089705876418066
20
-93.885268960742536
10
-91.089705876418066
20
-90.690631917270252
10
-89.496004704941612
20
-90.690631917270252
10
-89.496004704941612
20
-98.673951685239771
10
-97.479324472911202
20
-98.673951685239771
10
-97.479324472911202
20
-93.885268960742536
10
-95.885623301434606
20
-93.885268960742536
0
LWPOLYLINE
5
117
100
AcDbEntity
8
0
100
AcDbPolyline
90
8
70
1
43
0.0
10
-52.753027826106518
20
-92.284333088746706
10
-52.753027826106518
20
-90.690631917270252
10
-51.159326654629922
20
-90.690631917270252
10
-51.159326654629922
20
-98.673951685239771
10
-59.14264642259937
20
-98.673951685239771
10
-59.14264642259937
20
-90.690631917270252
10
-57.548945251122774
20
-90.690631917270252
10
-57.548945251122774
20
-92.284333088746706
0
LWPOLYLINE
5
118
100
AcDbEntity
8
0
100
AcDbPolyline
90
20
70
1
43
0.0
10
-3.2382207095788829
20
-98.673951685239771
10
-4.832094135829692
20
-98.673951685239771
10
-4.832094135829692
20
-93.885268960742536
10
-4.832094135829692
20
-92.284333088746706
10
-6.4330300078253799
20
-92.284333088746706
10
-8.0267311793018337
20
-92.284333088746706
10
-9.6276670512976636
20
-92.284333088746706
10
-9.6276670512976636
20
-93.885268960742536
10
-9.6276670512976636
20
-98.673951685239771
10
-11.221712732322544
20
-98.673951685239771
10
-11.221712732322544
20
-93.885268960742536
10
-9.6276670512976636
20
-93.885268960742536
10
-8.0267311793018337
20
-93.885268960742536
10
-8.0267311793018337
20
-92.284333088746706
10
-8.0267311793018337
20
-90.690631917270252
10
-6.4330300078253799
20
-90.690631917270252
10
-6.4330300078253799
20
-92.284333088746706
10
-6.4330300078253799
20
-93.885268960742536
10
-4.832094135829692
20
-93.885268960742536
10
-3.2382207095788829
20
-93.885268960742536
0
LWPOLYLINE
5
119
100
AcDbEntity
8
0
100
AcDbPolyline
90
12
70
1
43
0.0
10
27.115137572763217
20
-97.080250513763175
10
33.504583914481856
20
-97.080250513763175
10
33.504583914481856
20
-92.284333088746706
10
28.709010999014168
20
-92.284333088746706
10
28.709010999014168
20
-93.885268960742536
10
31.90364804248631
20
-93.885268960742536
10
31.90364804248631
20
-95.479314641767488
10
27.115137572763217
20
-95.479314641767488
10
27.115137572763217
20
-90.690631917270252
10
35.098457340732665
20
-90.690631917270252
10
35.098457340732665
20
-98.673951685239771
10
27.115137572763217
20
-98.673951685239771
0
LWPOLYLINE
5
120
100
AcDbEntity
8
0
100
AcDbPolyline
90
4
70
1
43
0.0
10
-1.6374570923575504
20
-98.673951685239771
10
-1.6374570923575504
20
-90.690631917270252
10
6.3458626756118974
20
-90.690631917270252
10
6.3458626756118974
20
-98.673951685239771
0
LWPOLYLINE
5
121
100
AcDbEntity
8
0
100
AcDbPolyline
90
4
70
1
43
0.0
10
-49.558390782634234
20
-90.690631917270252
10
-41.575071014664928
20
-90.690631917270252
10
-41.575071014664928
20
-98.673951685239771
10
-49.558390782634234
20
-98.673951685239771
0
LWPOLYLINE
5
122
100
AcDbEntity
8
0
100
AcDbPolyline
90
12
70
1
43
0.0
10
-87.895068832945924
20
-93.885268960742536
10
-81.505450236453072
20
-93.885268960742536
10
-81.505450236453072
20
-92.284333088746706
10
-87.895068832945924
20
-92.284333088746706
10
-87.895068832945924
20
-90.690631917270252
10
-79.911749064976618
20
-90.690631917270252
10
-79.911749064976618
20
-98.673951685239771
10
-87.895068832945924
20
-98.673951685239771
10
-87.895068832945924
20
-97.080250513763175
10
-81.505450236453072
20
-97.080250513763175
10
-81.505450236453072
20
-95.479314641767488
10
-87.895068832945924
20
-95.479314641767488
0
LWPOLYLINE
5
123
100
AcDbEntity
8
0
100
AcDbPolyline
90
72
70
1
43
0.0
10
-11.448128601354313
20
-109.76413383677148
10
-11.448128601354313
20
-112.40542869907792
10
-8.9535777053653476
20
-112.40542869907792
10
-8.9535777053653476
20
-115.04672356139068
10
-6.6057546871182637
20
-115.04672356139068
10
-6.6057546871182637
20
-117.68803451228301
10
-4.290543226787662
20
-117.68803451228301
10
-4.290543226787662
20
-132.32928866339194
10
-6.6057546871182637
20
-132.32928866339194
10
-6.6057546871182637
20
-134.89738047266195
10
-8.9535777053653476
20
-134.89738047266195
10
-8.9535777053653476
20
-137.538675334972
10
-11.501285279867801
20
-137.538675334972
10
-11.501285279867801
20
-144.48540373961961
10
-13.88101195837379
20
-144.48540373961961
10
-13.88101195837379
20
-146.9482118611794
10
-16.246725481012874
20
-146.9482118611794
10
-16.246725481012874
20
-149.31394147240056
10
-18.682424340070156
20
-149.31394147240056
10
-18.682424340070156
20
-151.72164619689249
10
-21.048153951291368
20
-151.72164619689249
10
-21.048153951291368
20
-154.15734505594992
10
-26.01754722898832
20
-154.15734505594992
10
-26.01754722898832
20
-156.55106880173989
10
-38.191987201349775
20
-156.55106880173989
10
-38.191987201349775
20
-154.15734505594992
10
-43.161364390461046
20
-154.15734505594992
10
-43.161364390461046
20
-151.72164619689249
10
-45.5270940016824
20
-151.72164619689249
10
-45.5270940016824
20
-149.31394147240056
10
-47.962808949325648
20
-149.31394147240056
10
-47.962808949325648
20
-146.9482118611794
10
-50.328506383378908
20
-146.9482118611794
10
-50.328506383378908
20
-144.48540373961961
10
-52.708233061884329
20
-144.48540373961961
10
-52.708233061884329
20
-137.538675334972
10
-55.255956724969622
20
-137.538675334972
10
-55.255956724969622
20
-134.89738047266195
10
-57.603763654634008
20
-134.89738047266195
10
-57.603763654634008
20
-132.32928866339194
10
-59.918975114968305
20
-132.32928866339194
10
-59.918975114968305
20
-117.68803451228301
10
-57.603763654634008
20
-117.68803451228301
10
-57.603763654634008
20
-115.04672356139068
10
-55.255956724969622
20
-115.04672356139068
10
-55.255956724969622
20
-112.40542869907792
10
-52.761389740398243
20
-112.40542869907792
10
-52.761389740398243
20
-109.76413383677148
10
-47.919015826165889
20
-109.76413383677148
10
-47.919015826165889
20
-137.538675334972
10
-50.160509398800031
20
-137.538675334972
10
-50.160509398800031
20
-141.96213472282545
10
-47.780782720293615
20
-141.96213472282545
10
-47.780782720293615
20
-144.32786433404701
10
-45.415085286240497
20
-144.32786433404701
10
-45.415085286240497
20
-146.73556905853923
10
-42.979370338597818
20
-146.73556905853923
10
-42.979370338597818
20
-149.17126791759628
10
-40.613672904540721
20
-149.17126791759628
10
-40.613672904540721
20
-151.56499166338995
10
-23.595861525794248
20
-151.56499166338995
10
-23.595861525794248
20
-149.17126791759628
10
-21.230148003155023
20
-149.17126791759628
10
-21.230148003155023
20
-146.73556905853923
10
-18.794433055512201
20
-146.73556905853923
10
-18.794433055512201
20
-144.32786433404701
10
-16.428735621458515
20
-144.32786433404701
10
-16.428735621458515
20
-141.96213472282545
10
-14.049008942952668
20
-141.96213472282545
10
-14.049008942952668
20
-137.538675334972
10
-16.290502515586809
20
-137.538675334972
10
-16.290502515586809
20
-109.76413383677148
0
LWPOLYLINE
5
124
100
AcDbEntity
8
0
100
AcDbPolyline
90
12
70
1
43
0.0
10
-68.726557553015937
20
-90.690631917270252
10
-60.743237785046489
20
-90.690631917270252
10
-60.743237785046489
20
-92.284333088746706
10
-67.132856381539341
20
-92.284333088746706
10
-67.132856381539341
20
-93.885268960742536
10
-60.743237785046489
20
-93.885268960742536
10
-60.743237785046489
20
-98.673951685239771
10
-68.726557553015937
20
-98.673951685239771
10
-68.726557553015937
20
-97.080250513763175
10
-62.336938956523085
20
-97.080250513763175
10
-62.336938956523085
20
-95.479314641767488
10
-68.726557553015937
20
-95.479314641767488
0
LWPOLYLINE
5
125
100
AcDbEntity
8
0
100
AcDbPolyline
90
12
70
1
43
0.0
10
-20.805623862739111
20
-97.080250513763175
10
-14.416005266246401
20
-97.080250513763175
10
-14.416005266246401
20
-95.479314641767488
10
-20.805623862739111
20
-95.479314641767488
10
-20.805623862739111
20
-93.885268960742536
10
-14.416005266246401
20
-93.885268960742536
10
-14.416005266246401
20
-92.284333088746706
10
-20.805623862739111
20
-92.284333088746706
10
-20.805623862739111
20
-90.690631917270252
10
-12.822304094769805
20
-90.690631917270252
10
-12.822304094769805
20
-98.673951685239771
10
-20.805623862739111
20
-98.673951685239771
0
LWPOLYLINE
5
126
100
AcDbEntity
8
0
100
AcDbPolyline
90
10
70
1
43
0.0
10
20.725691231044578
20
-93.885268960742536
10
23.920328274516862
20
-93.885268960742536
10
23.920328274516862
20
-90.690631917270252
10
25.514201700767529
20
-90.690631917270252
10
25.514201700767529
20
-98.673951685239771
10
17.530881932798223
20
-98.673951685239771
10
17.530881932798223
20
-93.885268960742536
10
19.124755359049033
20
-93.885268960742536
10
19.124755359049033
20
-90.690631917270252
10
20.725691231044578
20
-90.690631917270252
0
LWPOLYLINE
5
127
100
AcDbEntity
8
0
100
AcDbPolyline
90
4
70
1
43
0.0
10
15.930118315576891
20
-98.673951685239771
10
7.9467985476074432
20
-98.673951685239771
10
7.9467985476074432
20
-90.690631917270252
10
15.930118315576891
20
-90.690631917270252
0
LWPOLYLINE
5
128
100
AcDbEntity
8
0
100
AcDbPolyline
90
8
70
1
43
0.0
10
-31.990815374699793
20
-98.673951685239771
10
-39.97413514266924
20
-98.673951685239771
10
-39.97413514266924
20
-97.080250513763175
10
-33.584516546176388
20
-97.080250513763175
10
-33.584516546176388
20
-92.284333088746706
10
-39.97413514266924
20
-92.284333088746706
10
-39.97413514266924
20
-90.690631917270252
10
-31.990815374699793
20
-90.690631917270252
0
LWPOLYLINE
5
129
100
AcDbEntity
8
0
100
AcDbPolyline
90
8
70
1
43
0.0
10
-70.327493425011482
20
-97.080250513763175
10
-70.327493425011482
20
-98.673951685239771
10
-78.31081319298093
20
-98.673951685239771
10
-78.31081319298093
20
-97.080250513763175
10
-75.116176149508647
20
-97.080250513763175
10
-75.116176149508647
20
-90.690631917270252
10
-73.522130468483624
20
-90.690631917270252
10
-73.522130468483624
20
-97.080250513763175
0
LWPOLYLINE
5
130
100
AcDbEntity
8
0
100
AcDbPolyline
90
48
70
1
43
0.0
10
-30.970272734603412
20
-114.79924897636842
10
-26.11412699324859
20
-114.79924897636842
10
-26.11412699324859
20
-117.3112077192539
10
-26.11412699324859
20
-119.82318255072222
10
-38.095391348503966
20
-119.82318255072222
10
-38.095391348503966
20
-117.3112077192539
10
-38.095391348503966
20
-114.79924897636842
10
-33.23924560714957
20
-114.79924897636842
10
-33.23924560714957
20
-117.3112077192539
10
-38.095391348503966
20
-117.3112077192539
10
-40.60735009138952
20
-117.3112077192539
10
-40.60735009138952
20
-122.08954907280642
10
-43.119324922857629
20
-122.08954907280642
10
-43.119324922857629
20
-117.40027411521368
10
-45.631283665743894
20
-117.40027411521368
10
-45.631283665743894
20
-124.62716910571217
10
-43.119324922857629
20
-124.62716910571217
10
-43.119324922857629
20
-127.13912784859765
10
-40.60735009138952
20
-127.13912784859765
10
-40.60735009138952
20
-129.38964711634455
10
-38.095391348503966
20
-129.38964711634455
10
-38.095391348503966
20
-131.9016219478128
10
-38.095391348503966
20
-134.41358069069835
10
-40.60735009138952
20
-134.41358069069835
10
-40.60735009138952
20
-131.9016219478128
10
-38.095391348503966
20
-131.9016219478128
10
-35.583432605618412
20
-131.9016219478128
10
-35.583432605618412
20
-129.38964711634455
10
-28.62608573613457
20
-129.38964711634455
10
-28.62608573613457
20
-131.9016219478128
10
-26.11412699324859
20
-131.9016219478128
10
-23.602168250362752
20
-131.9016219478128
10
-23.602168250362752
20
-134.41358069069835
10
-26.11412699324859
20
-134.41358069069835
10
-26.11412699324859
20
-131.9016219478128
10
-26.11412699324859
20
-129.38964711634455
10
-23.602168250362752
20
-129.38964711634455
10
-23.602168250362752
20
-127.13912784859765
10
-21.090193418894501
20
-127.13912784859765
10
-21.090193418894501
20
-124.62716910571217
10
-18.578234676008805
20
-124.62716910571217
10
-18.578234676008805
20
-117.40027411521368
10
-21.090193418894501
20
-117.40027411521368
10
-21.090193418894501
20
-122.08954907280642
10
-23.602168250362752
20
-122.08954907280642
10
-23.602168250362752
20
-117.3112077192539
10
-26.11412699324859
20
-117.3112077192539
10
-30.970272734603412
20
-117.3112077192539
0
LWPOLYLINE
5
131
100
AcDbEntity
8
0
100
AcDbPolyline
90
4
70
1
43
0.0
10
-46.290815371126968
20
-69.737864977924673
10
-46.290815371126968
20
-41.137864985074515
10
-17.690815378275886
20
-41.137864985074515
10
-17.690815378275886
20
-69.737864977924673
0
CIRCLE
5
132
100
AcDbEntity
8
0
100
AcDbCircle
10
150.50918462530001
20
-95.437864981499999
30
0
40
65
210
0
220
0
230
1
0
CIRCLE
5
133
100
AcDbEntity
8
0
100
AcDbCircle
10
-214.49081537470005
20
-95.437864981499999
30
0
40
65.000000000000014
210
0
220
0
230
1
0
LWPOLYLINE
5
134
100
AcDbEntity
8
0
100
AcDbPolyline
90
36
70
1
43
0.0
10
-156.99081537469999
20
-0.43786498149999997
10
-156.99081537469999
20
4.5621350184999994
10
-269.49081537469999
20
4.5621350185000002
10
-269.49081537469999
20
-0.43786498149999964
10
-309.49081537469999
20
-0.43786498149999997
10
-309.49081537469999
20
-35.437864981499999
10
-314.49081537469999
20
-35.437864981499999
10
-314.49081537469999
20
-75.437864981499999
10
-309.49081537469999
20
-75.437864981499999
10
-309.49081537469999
20
-115.4378649815
10
-314.49081537469999
20
-115.4378649815
10
-314.49081537469999
20
-155.43786498149998
10
-309.49081537469999
20
-155.43786498149998
10
-309.49081537469999
20
-190.43786498150001
10
-269.49081537469999
20
-190.43786498150001
10
-269.49081537469999
20
-195.43786498150001
10
-156.99081537469999
20
-195.43786498150001
10
-156.99081537469999
20
-190.43786498150001
10
93.009184625299994
20
-190.43786498150001
10
93.009184625300009
20
-195.43786498150001
10
205.50918462530001
20
-195.43786498150001
10
205.50918462530001
20
-190.43786498150001
10
245.50918462530001
20
-190.43786498150001
10
245.50918462530001
20
-155.43786498149998
10
250.50918462530001
20
-155.43786498149998
10
250.50918462530001
20
-115.4378649815
10
245.50918462530001
20
-115.4378649815
10
245.50918462530001
20
-75.437864981499999
10
250.50918462530001
20
-75.437864981499999
10
250.50918462530001
20
-35.437864981499999
10
245.50918462530001
20
-35.437864981499999
10
245.50918462530001
20
-0.43786498149999797
10
205.50918462530001
20
-0.43786498149999997
10
205.50918462530001
20
4.5621350184999994
10
93.009184625300009
20
4.5621350185000002
10
93.009184625300009
20
-0.43786498149999964
0
LWPOLYLINE
5
135
100
AcDbEntity
8
0
100
AcDbPolyline
90
8
70
1
43
0.0
10
19.124755359049033
20
-97.080250513763175
10
23.920328274516862
20
-97.080250513763175
10
23.920328274516862
20
-95.479314641767488
10
19.124755359049033
20
-95.479314641767488
10
19.124755359049033
20
-97.080250513763175
10
23.920328274516862
20
-97.080250513763175
10
23.920328274516862
20
-95.479314641767488
10
19.124755359049033
20
-95.479314641767488
0
LWPOLYLINE
5
136
100
AcDbEntity
8
0
100
AcDbPolyline
90
2
70
1
43
0.0
10
9.5406719738582524
20
-97.080250513763175
10
14.336244889326082
20
-97.080250513763175
0
LWPOLYLINE
5
137
100
AcDbEntity
8
0
100
AcDbPolyline
90
2
70
1
43
0.0
10
9.5406719738582524
20
-92.284333088746706
10
9.5406719738582524
20
-97.080250513763175
0
LWPOLYLINE
5
138
100
AcDbEntity
8
0
100
AcDbPolyline
90
4
70
1
43
0.0
10
14.336244889326082
20
-97.080250513763175
10
14.336244889326082
20
-92.284333088746706
10
9.5406719738582524
20
-92.284333088746706
10
14.336244889326082
20
-92.284333088746706
0
LWPOLYLINE
5
139
100
AcDbEntity
8
0
100
AcDbPolyline
90
4
70
1
43
0.0
10
-0.043583666106883356
20
-97.080250513763175
10
4.7519892493609461
20
-97.080250513763175
10
4.7519892493609461
20
-92.284333088746706
10
-0.043583666106883356
20
-92.284333088746706
0
LWPOLYLINE
5
140
100
AcDbEntity
8
0
100
AcDbPolyline
90
4
70
1
43
0.0
10
4.7519892493609461
20
-97.080250513763175
10
4.7519892493609461
20
-92.284333088746706
10
-0.043583666106883356
20
-92.284333088746706
10
-0.043583666106883356
20
-97.080250513763175
0
LWPOLYLINE
5
141
100
AcDbEntity
8
0
100
AcDbPolyline
90
4
70
1
43
0.0
10
-47.964689611157638
20
-92.284333088746706
10
-47.964689611157638
20
-97.080250513763175
10
-43.168772186141382
20
-97.080250513763175
10
-43.168772186141382
20
-92.284333088746706
0
LWPOLYLINE
5
142
100
AcDbEntity
8
0
100
AcDbPolyline
90
4
70
1
43
0.0
10
-47.964689611157638
20
-97.080250513763175
10
-43.168772186141382
20
-97.080250513763175
10
-43.168772186141382
20
-92.284333088746706
10
-47.964689611157638
20
-92.284333088746706
0
LWPOLYLINE
5
143
100
AcDbEntity
8
0
100
AcDbPolyline
90
8
70
1
43
0.0
10
-52.753027826106518
20
-93.885268960742536
10
-57.548945251122774
20
-93.885268960742536
10
-57.548945251122774
20
-97.080250513763175
10
-52.753027826106518
20
-97.080250513763175
10
-52.753027826106518
20
-93.885268960742536
10
-57.548945251122774
20
-93.885268960742536
10
-57.548945251122774
20
-97.080250513763175
10
-52.753027826106518
20
-97.080250513763175
0
LWPOLYLINE
5
144
100
AcDbEntity
8
0
100
AcDbPolyline
90
4
70
1
43
0.0
10
-91.089705876418066
20
-97.080250513763175
10
-91.089705876418066
20
-95.479314641767488
10
-95.885623301434606
20
-95.479314641767488
10
-95.885623301434606
20
-97.080250513763175
0
LWPOLYLINE
5
145
100
AcDbEntity
8
0
100
AcDbPolyline
90
4
70
1
43
0.0
10
-91.089705876418066
20
-95.479314641767488
10
-95.885623301434606
20
-95.479314641767488
10
-95.885623301434606
20
-97.080250513763175
10
-91.089705876418066
20
-97.080250513763175
0
LWPOLYLINE
5
146
100
AcDbEntity
8
0
100
AcDbPolyline
90
4
70
1
43
0.0
10
-28.62608573613457
20
-127.13912784859765
10
-26.11412699324859
20
-127.13912784859765
10
-26.11412699324859
20
-124.62716910571217
10
-28.62608573613457
20
-124.62716910571217
0
LWPOLYLINE
5
147
100
AcDbEntity
8
0
100
AcDbPolyline
90
4
70
1
43
0.0
10
-26.11412699324859
20
-127.13912784859765
10
-26.11412699324859
20
-124.62716910571217
10
-28.62608573613457
20
-124.62716910571217
10
-28.62608573613457
20
-127.13912784859765
0
LWPOLYLINE
5
148
100
AcDbEntity
8
0
100
AcDbPolyline
90
8
70
1
43
0.0
10
-35.583432605618412
20
-124.62716910571217
10
-38.095391348503966
20
-124.62716910571217
10
-38.095391348503966
20
-127.13912784859765
10
-35.583432605618412
20
-127.13912784859765
10
-35.583432605618412
20
-124.62716910571217
10
-38.095391348503966
20
-124.62716910571217
10
-38.095391348503966
20
-127.13912784859765
10
-35.583432605618412
20
-127.13912784859765
0
ENDSEC
0
SECTION
2
OBJECTS
0
DICTIONARY
5
C
100
AcDbDictionary
3
ACAD_GROUP
350
D
3
ACAD_MLINESTYLE
350
17
0
DICTIONARY
5
D
100
AcDbDictionary
0
DICTIONARY
5
1A
330
C
100
AcDbDictionary
0
DICTIONARY
5
17
100
AcDbDictionary
0
ENDSEC
0
EOF
