0
SECTION
2
HEADER
9
$INSUNITS
70
4
9
$ACADVER
1
AC1014
9
$HANDSEED
5
FFFF
0
ENDSEC
0
SECTION
2
TABLES
0
TABLE
2
VPORT
5
8
100
AcDbSymbolTable
0
ENDTAB
0
TABLE
2
LTYPE
5
5
100
AcDbSymbolTable
0
LTYPE
5
14
100
AcDbSymbolTableRecord
100
AcDbLinetypeTableRecord
2
BYBLOCK
70
0
0
LTYPE
5
15
100
AcDbSymbolTableRecord
100
AcDbLinetypeTableRecord
2
BYLAYER
70
0
0
ENDTAB
0
TABLE
2
LAYER
5
2
100
AcDbSymbolTable
70
2
0
LAYER
5
50
100
AcDbSymbolTableRecord
100
AcDbLayerTableRecord
2
0
70
0
6
CONTINUOUS
0
ENDTAB
0
TABLE
2
STYLE
5
3
100
AcDbSymbolTable
70
1
0
STYLE
5
11
100
AcDbSymbolTableRecord
100
AcDbTextStyleTableRecord
2
STANDARD
70
0
0
ENDTAB
0
TABLE
2
VIEW
5
6
100
AcDbSymbolTable
70
0
0
ENDTAB
0
TABLE
2
UCS
5
7
100
AcDbSymbolTable
70
0
0
ENDTAB
0
TABLE
2
APPID
5
9
100
AcDbSymbolTable
70
2
0
APPID
5
12
100
AcDbSymbolTableRecord
100
AcDbRegAppTableRecord
2
ACAD
70
0
0
ENDTAB
0
TABLE
2
DIMSTYLE
5
A
100
AcDbSymbolTable
70
1
0
ENDTAB
0
TABLE
2
BLOCK_RECORD
5
1
100
AcDbSymbolTable
70
1
0
BLOCK_RECORD
5
1F
100
AcDbSymbolTableRecord
100
AcDbBlockTableRecord
2
*MODEL_SPACE
0
BLOCK_RECORD
5
1B
100
AcDbSymbolTableRecord
100
AcDbBlockTableRecord
2
*PAPER_SPACE
0
ENDTAB
0
ENDSEC
0
SECTION
2
BLOCKS
0
BLOCK
5
20
100
AcDbEntity
100
AcDbBlockBegin
2
*MODEL_SPACE
0
ENDBLK
5
21
100
AcDbEntity
100
AcDbBlockEnd
0
BLOCK
5
1C
100
AcDbEntity
100
AcDbBlockBegin
2
*PAPER_SPACE
0
ENDBLK
5
1D
100
AcDbEntity
100
AcDbBlockEnd
0
ENDSEC
0
SECTION
2
ENTITIES
0
LWPOLYLINE
5
100
100
AcDbEntity
8
0
100
AcDbPolyline
90
4
70
1
43
0.0
10
-46.000000685453415
20
-146.00000217556959
10
-18.000000268220901
20
-146.00000217556959
10
-18.000000268220887
20
-196.00000217556959
10
-46.000000685453415
20
-196.00000217556959
0
LWPOLYLINE
5
101
100
AcDbEntity
8
0
100
AcDbPolyline
90
4
70
1
43
0.0
10
-138.9919662475566
20
-229.57012683152854
10
-163.9919662475566
20
-229.57012683152894
10
-163.9919662475574
20
-179.57012683152894
10
-138.9919662475574
20
-179.57012683152851
0
LWPOLYLINE
5
102
100
AcDbEntity
8
0
100
AcDbPolyline
90
4
70
1
43
0.0
10
86.008033752442614
20
-179.57012683152513
10
111.00803375244261
20
-179.57012683152473
10
111.00803375244338
20
-229.57012683152473
10
86.008033752443396
20
-229.57012683152513
0
LWPOLYLINE
5
103
100
AcDbEntity
8
0
100
AcDbPolyline
90
44
70
1
43
0.0
10
-157.00115203857422
20
-100.00799179076876
10
-157.00115203857416
20
-105.00799179076876
10
-269.50115203857416
20
-105.00799179077046
10
-269.50115203857422
20
-100.00799179077046
10
-309.50115203857422
20
-100.00799179077106
10
-309.50115203857359
20
-140.00799179077109
10
-314.50115203857359
20
-140.00799179077114
10
-314.50115203857303
20
-180.00799179077117
10
-309.50115203857303
20
-180.00799179077109
10
-309.5011520385724
20
-220.00799179077109
10
-314.5011520385724
20
-220.0079917907712
10
-314.50115203857177
20
-260.0079917907712
10
-309.50115203857177
20
-260.00799179077114
10
-309.50115203857115
20
-300.00799179077114
10
-269.50115203857115
20
-300.00799179077052
10
-269.50115203857126
20
-295.00799179077046
10
-157.00115203857123
20
-295.00799179076876
10
-157.00115203857118
20
-300.00799179076876
10
-34.501152038571163
20
-300.00799179076694
10
-34.501152038571469
20
-280.00799179076694
10
-29.501152038571483
20
-280.00799179076688
10
-29.501152038571178
20
-300.00799179076688
10
92.998847961428837
20
-300.007991790765
10
92.998847961428766
20
-295.00799179076495
10
205.49884796142877
20
-295.00799179076324
10
205.49884796142885
20
-300.00799179076324
10
245.49884796142885
20
-300.00799179076262
10
245.49884796142823
20
-260.00799179076267
10
250.4988479614282
20
-260.00799179076262
10
250.4988479614276
20
-220.00799179076262
10
245.49884796142763
20
-220.00799179076267
10
245.49884796142703
20
-180.00799179076267
10
250.49884796142697
20
-180.00799179076256
10
250.49884796142638
20
-140.00799179076256
10
245.49884796142641
20
-140.00799179076262
10
245.49884796142581
20
-100.00799179076265
10
205.49884796142578
20
-100.00799179076323
10
205.49884796142584
20
-105.00799179076323
10
92.998847961425852
20
-105.00799179076493
10
92.998847961425781
20
-100.00799179076495
10
-29.501152038574219
20
-100.00799179076681
10
-29.501152038573913
20
-120.00799179076681
10
-34.501152038573899
20
-120.00799179076688
10
-34.501152038574205
20
-100.00799179076688
0
CIRCLE
5
104
100
AcDbEntity
8
0
100
AcDbCircle
10
128.49884796142675
20
-159.00799179076441
30
0
40
1.499999999999986
210
-0
220
0
230
1
0
CIRCLE
5
105
100
AcDbEntity
8
0
100
AcDbCircle
10
-236.50115203857331
20
-159.00799179076998
30
0
40
1.5000000000000038
210
-0
220
0
230
1
0
CIRCLE
5
106
100
AcDbEntity
8
0
100
AcDbCircle
10
-236.50115203857209
20
-241.00799179077001
30
0
40
1.5000000000000038
210
-0
220
0
230
1
0
CIRCLE
5
107
100
AcDbEntity
8
0
100
AcDbCircle
10
150.49884796142726
20
-200.00799179076409
30
0
40
20.000000000000004
210
-0
220
0
230
1
0
CIRCLE
5
108
100
AcDbEntity
8
0
100
AcDbCircle
10
-214.50115203857268
20
-200.00799179076964
30
0
40
20.000000000000004
210
-0
220
0
230
1
0
CIRCLE
5
109
100
AcDbEntity
8
0
100
AcDbCircle
10
172.49884796142675
20
-159.00799179076375
30
0
40
1.499999999999986
210
-0
220
0
230
1
0
CIRCLE
5
110
100
AcDbEntity
8
0
100
AcDbCircle
10
172.49884796142794
20
-241.00799179076378
30
0
40
1.499999999999986
210
-0
220
0
230
1
0
CIRCLE
5
111
100
AcDbEntity
8
0
100
AcDbCircle
10
128.49884796142794
20
-241.00799179076446
30
0
40
1.499999999999986
210
-0
220
0
230
1
0
CIRCLE
5
112
100
AcDbEntity
8
0
100
AcDbCircle
10
-192.50115203857206
20
-241.00799179076932
30
0
40
1.5000000000000393
210
-0
220
0
230
1
0
CIRCLE
5
113
100
AcDbEntity
8
0
100
AcDbCircle
10
-192.50115203857331
20
-159.0079917907693
30
0
40
1.5000000000000038
210
-0
220
0
230
1
0
ENDSEC
0
SECTION
2
OBJECTS
0
DICTIONARY
5
C
100
AcDbDictionary
3
ACAD_GROUP
350
D
3
ACAD_MLINESTYLE
350
17
0
DICTIONARY
5
D
100
AcDbDictionary
0
DICTIONARY
5
1A
330
C
100
AcDbDictionary
0
DICTIONARY
5
17
100
AcDbDictionary
0
ENDSEC
0
EOF
