0
SECTION
2
HEADER
9
$INSUNITS
70
4
9
$ACADVER
1
AC1014
9
$HANDSEED
5
FFFF
0
ENDSEC
0
SECTION
2
TABLES
0
TABLE
2
VPORT
5
8
100
AcDbSymbolTable
0
ENDTAB
0
TABLE
2
LTYPE
5
5
100
AcDbSymbolTable
0
LTYPE
5
14
100
AcDbSymbolTableRecord
100
AcDbLinetypeTableRecord
2
BYBLOCK
70
0
0
LTYPE
5
15
100
AcDbSymbolTableRecord
100
AcDbLinetypeTableRecord
2
BYLAYER
70
0
0
ENDTAB
0
TABLE
2
LAYER
5
2
100
AcDbSymbolTable
70
2
0
LAYER
5
50
100
AcDbSymbolTableRecord
100
AcDbLayerTableRecord
2
0
70
0
6
CONTINUOUS
0
ENDTAB
0
TABLE
2
STYLE
5
3
100
AcDbSymbolTable
70
1
0
STYLE
5
11
100
AcDbSymbolTableRecord
100
AcDbTextStyleTableRecord
2
STANDARD
70
0
0
ENDTAB
0
TABLE
2
VIEW
5
6
100
AcDbSymbolTable
70
0
0
ENDTAB
0
TABLE
2
UCS
5
7
100
AcDbSymbolTable
70
0
0
ENDTAB
0
TABLE
2
APPID
5
9
100
AcDbSymbolTable
70
2
0
APPID
5
12
100
AcDbSymbolTableRecord
100
AcDbRegAppTableRecord
2
ACAD
70
0
0
ENDTAB
0
TABLE
2
DIMSTYLE
5
A
100
AcDbSymbolTable
70
1
0
ENDTAB
0
TABLE
2
BLOCK_RECORD
5
1
100
AcDbSymbolTable
70
1
0
BLOCK_RECORD
5
1F
100
AcDbSymbolTableRecord
100
AcDbBlockTableRecord
2
*MODEL_SPACE
0
BLOCK_RECORD
5
1B
100
AcDbSymbolTableRecord
100
AcDbBlockTableRecord
2
*PAPER_SPACE
0
ENDTAB
0
ENDSEC
0
SECTION
2
BLOCKS
0
BLOCK
5
20
100
AcDbEntity
100
AcDbBlockBegin
2
*MODEL_SPACE
0
ENDBLK
5
21
100
AcDbEntity
100
AcDbBlockEnd
0
BLOCK
5
1C
100
AcDbEntity
100
AcDbBlockBegin
2
*PAPER_SPACE
0
ENDBLK
5
1D
100
AcDbEntity
100
AcDbBlockEnd
0
ENDSEC
0
SECTION
2
ENTITIES
0
CIRCLE
5
100
100
AcDbEntity
8
0
100
AcDbCircle
10
215.50918579101562
20
-13.750000000001684
30
0
40
1.7500000000000115
210
1.2325944462086141e-32
220
-1.577721810442024e-30
230
1
0
CIRCLE
5
101
100
AcDbEntity
8
0
100
AcDbCircle
10
-279.49081420898432
20
-86.250000000001876
30
0
40
1.7500000000000115
210
1.2325944462086141e-32
220
-1.577721810442024e-30
230
1
0
CIRCLE
5
102
100
AcDbEntity
8
0
100
AcDbCircle
10
235.50918579101562
20
-31.250000000001734
30
-3.5527136788005009e-14
40
1.7500000000000115
210
1.2325944462086141e-32
220
-1.577721810442024e-30
230
1
0
CIRCLE
5
103
100
AcDbEntity
8
0
100
AcDbCircle
10
-299.49081420898432
20
-68.750000000001833
30
0
40
1.7499999999999762
210
1.2325944462086054e-32
220
-1.5777218104420236e-30
230
1
0
CIRCLE
5
104
100
AcDbEntity
8
0
100
AcDbCircle
10
215.50918579101562
20
-86.250000000001876
30
0
40
1.7500000000000115
210
1.2325944462086141e-32
220
-1.577721810442024e-30
230
1
0
CIRCLE
5
105
100
AcDbEntity
8
0
100
AcDbCircle
10
-299.49081420898432
20
-31.250000000001727
30
0
40
1.7500000000000115
210
1.2325944462086141e-32
220
-1.577721810442024e-30
230
1
0
CIRCLE
5
106
100
AcDbEntity
8
0
100
AcDbCircle
10
235.50918579101562
20
-68.750000000001833
30
-3.5527136788005009e-14
40
1.7500000000000115
210
1.2325944462086141e-32
220
-1.577721810442024e-30
230
1
0
CIRCLE
5
107
100
AcDbEntity
8
0
100
AcDbCircle
10
-279.49081420898432
20
-13.750000000001684
30
0
40
1.7500000000000115
210
1.2325944462086141e-32
220
-1.577721810442024e-30
230
1
0
LWPOLYLINE
5
108
100
AcDbEntity
8
0
100
AcDbPolyline
90
4
70
1
43
0.0
10
-44.999999999999929
20
-75.000000000000909
10
-44.999999999999929
20
-83.000000000000938
10
-59.999999999999929
20
-83.000000000000938
10
-59.999999999999929
20
-75.000000000000895
0
LWPOLYLINE
5
109
100
AcDbEntity
8
0
100
AcDbPolyline
90
4
70
1
43
0.0
10
-156.99081420898435
20
-52.000000000001798
10
93.009185791015653
20
-52.000000000001798
10
93.009185791015653
20
-57.000000000001805
10
-156.99081420898435
20
-57.000000000001805
0
LWPOLYLINE
5
110
100
AcDbEntity
8
0
100
AcDbPolyline
90
4
70
1
43
0.0
10
-29.490814208984339
20
-25.000000855901718
10
-34.490814208984339
20
-25.000000855901718
10
-34.490814208984339
20
-5.0000000000016609
10
-29.490814208984339
20
-5.0000000000016618
0
LWPOLYLINE
5
111
100
AcDbEntity
8
0
100
AcDbPolyline
90
4
70
1
43
0.0
10
-34.490814208984339
20
-95.000000855901902
10
-34.490814208984339
20
-75.000000855901845
10
-29.490814208984339
20
-75.00000085590186
10
-29.490814208984339
20
-95.000000855901902
0
LWPOLYLINE
5
112
100
AcDbEntity
8
0
100
AcDbPolyline
90
36
70
1
43
0.0
10
250.50918579101565
20
-100.00000000000192
10
250.50918579101565
20
-70.000000000001833
10
245.50918579101565
20
-70.000000000001833
10
245.50918579101565
20
-57.000000000001805
10
205.50918579101565
20
-57.000000000001805
10
205.50918579101565
20
-52.000000000001791
10
245.50918579101565
20
-52.000000000001798
10
245.50918579101565
20
-30.000000000001737
10
250.50918579101565
20
-30.000000000001727
10
250.50918579101565
20
-1.6475709685437323e-12
10
205.50918579101565
20
-1.6491423628916526e-12
10
205.50918579101565
20
-5.0000000000016618
10
93.009185791015653
20
-5.0000000000016618
10
93.009185791015653
20
-1.6486811915683575e-12
10
-156.99081420898435
20
-1.6491423628916532e-12
10
-156.99081420898435
20
-5.0000000000016618
10
-269.49081420898432
20
-5.0000000000016618
10
-269.49081420898432
20
-1.6486811915683575e-12
10
-314.49081420898432
20
-1.6491423628916536e-12
10
-314.49081420898432
20
-30.000000000001727
10
-309.49081420898432
20
-30.000000000001727
10
-309.49081420898432
20
-52.000000000001791
10
-269.49081420898432
20
-52.000000000001798
10
-269.49081420898432
20
-57.000000000001805
10
-309.49081420898432
20
-57.000000000001805
10
-309.49081420898432
20
-70.000000000001833
10
-314.49081420898432
20
-70.000000000001833
10
-314.49081420898432
20
-100.00000000000192
10
-269.49081420898432
20
-100.00000000000192
10
-269.49081420898432
20
-95.000000000001904
10
-156.99081420898435
20
-95.000000000001904
10
-156.99081420898435
20
-100.00000000000192
10
93.009185791015653
20
-100.00000000000192
10
93.009185791015653
20
-95.000000000001904
10
205.50918579101565
20
-95.000000000001904
10
205.50918579101565
20
-100.00000000000192
0
ENDSEC
0
SECTION
2
OBJECTS
0
DICTIONARY
5
C
100
AcDbDictionary
3
ACAD_GROUP
350
D
3
ACAD_MLINESTYLE
350
17
0
DICTIONARY
5
D
100
AcDbDictionary
0
DICTIONARY
5
1A
330
C
100
AcDbDictionary
0
DICTIONARY
5
17
100
AcDbDictionary
0
ENDSEC
0
EOF
