%TF.GenerationSoftware,KiCad,Pcbnew,7.0.1*%
%TF.CreationDate,2023-09-03T20:42:36-04:00*%
%TF.ProjectId,Groove Coaster,47726f6f-7665-4204-936f-61737465722e,rev?*%
%TF.SameCoordinates,Original*%
%TF.FileFunction,Copper,L1,Top*%
%TF.FilePolarity,Positive*%
%FSLAX46Y46*%
G04 Gerber Fmt 4.6, Leading zero omitted, Abs format (unit mm)*
G04 Created by KiCad (PCBNEW 7.0.1) date 2023-09-03 20:42:36*
%MOMM*%
%LPD*%
G01*
G04 APERTURE LIST*
G04 Aperture macros list*
%AMRoundRect*
0 Rectangle with rounded corners*
0 $1 Rounding radius*
0 $2 $3 $4 $5 $6 $7 $8 $9 X,Y pos of 4 corners*
0 Add a 4 corners polygon primitive as box body*
4,1,4,$2,$3,$4,$5,$6,$7,$8,$9,$2,$3,0*
0 Add four circle primitives for the rounded corners*
1,1,$1+$1,$2,$3*
1,1,$1+$1,$4,$5*
1,1,$1+$1,$6,$7*
1,1,$1+$1,$8,$9*
0 Add four rect primitives between the rounded corners*
20,1,$1+$1,$2,$3,$4,$5,0*
20,1,$1+$1,$4,$5,$6,$7,0*
20,1,$1+$1,$6,$7,$8,$9,0*
20,1,$1+$1,$8,$9,$2,$3,0*%
G04 Aperture macros list end*
%ADD10C,0.187500*%
%TA.AperFunction,NonConductor*%
%ADD11C,0.187500*%
%TD*%
%ADD12C,0.300000*%
%TA.AperFunction,NonConductor*%
%ADD13C,0.300000*%
%TD*%
%TA.AperFunction,ComponentPad*%
%ADD14RoundRect,0.250000X-0.600000X-0.750000X0.600000X-0.750000X0.600000X0.750000X-0.600000X0.750000X0*%
%TD*%
%TA.AperFunction,ComponentPad*%
%ADD15O,1.700000X2.000000*%
%TD*%
%TA.AperFunction,ComponentPad*%
%ADD16RoundRect,0.250000X0.750000X-0.600000X0.750000X0.600000X-0.750000X0.600000X-0.750000X-0.600000X0*%
%TD*%
%TA.AperFunction,ComponentPad*%
%ADD17O,2.000000X1.700000*%
%TD*%
%TA.AperFunction,SMDPad,CuDef*%
%ADD18RoundRect,0.250000X-0.625000X0.312500X-0.625000X-0.312500X0.625000X-0.312500X0.625000X0.312500X0*%
%TD*%
%TA.AperFunction,SMDPad,CuDef*%
%ADD19RoundRect,0.250000X0.625000X-0.312500X0.625000X0.312500X-0.625000X0.312500X-0.625000X-0.312500X0*%
%TD*%
%TA.AperFunction,ComponentPad*%
%ADD20C,6.400000*%
%TD*%
%TA.AperFunction,ComponentPad*%
%ADD21R,1.600000X1.600000*%
%TD*%
%TA.AperFunction,ComponentPad*%
%ADD22C,1.600000*%
%TD*%
%TA.AperFunction,ComponentPad*%
%ADD23RoundRect,0.250000X-0.600000X-0.725000X0.600000X-0.725000X0.600000X0.725000X-0.600000X0.725000X0*%
%TD*%
%TA.AperFunction,ComponentPad*%
%ADD24O,1.700000X1.950000*%
%TD*%
%TA.AperFunction,Conductor*%
%ADD25C,0.250000*%
%TD*%
G04 APERTURE END LIST*
D10*
D11*
G36*
X79396990Y-84672500D02*
G01*
X78800000Y-84672500D01*
X78800000Y-84203370D01*
X78928044Y-84203370D01*
X78928044Y-84543722D01*
X79268946Y-84543722D01*
X79268946Y-84203370D01*
X78928044Y-84203370D01*
X78800000Y-84203370D01*
X78800000Y-84074593D01*
X79396990Y-84074593D01*
X79396990Y-84672500D01*
G37*
G36*
X80096746Y-84437843D02*
G01*
X79979509Y-84437843D01*
X79979509Y-84672500D01*
X79851465Y-84672500D01*
X79851465Y-84437843D01*
X79627800Y-84437843D01*
X79627800Y-84672500D01*
X79499755Y-84672500D01*
X79499755Y-84203370D01*
X79627800Y-84203370D01*
X79627800Y-84309066D01*
X79968702Y-84309066D01*
X79968702Y-84203370D01*
X79627800Y-84203370D01*
X79499755Y-84203370D01*
X79499755Y-84074593D01*
X80096746Y-84074593D01*
X80096746Y-84437843D01*
G37*
G36*
X80199511Y-84672500D02*
G01*
X80199511Y-84543722D01*
X80433984Y-84543722D01*
X80433984Y-84203370D01*
X80199511Y-84203370D01*
X80199511Y-84074593D01*
X80797418Y-84074593D01*
X80797418Y-84203370D01*
X80562028Y-84203370D01*
X80562028Y-84543722D01*
X80797418Y-84543722D01*
X80797418Y-84672500D01*
X80199511Y-84672500D01*
G37*
G36*
X80899267Y-84672500D02*
G01*
X80899267Y-84074593D01*
X81496257Y-84074593D01*
X81496257Y-84203370D01*
X81027311Y-84203370D01*
X81027311Y-84543722D01*
X81368213Y-84543722D01*
X81368213Y-84437843D01*
X81133190Y-84437843D01*
X81133190Y-84309066D01*
X81496257Y-84309066D01*
X81496257Y-84672500D01*
X80899267Y-84672500D01*
G37*
G36*
X81599023Y-84672500D02*
G01*
X81599023Y-84543722D01*
X81833496Y-84543722D01*
X81833496Y-84203370D01*
X81599023Y-84203370D01*
X81599023Y-84074593D01*
X82196929Y-84074593D01*
X82196929Y-84203370D01*
X81961540Y-84203370D01*
X81961540Y-84543722D01*
X82196929Y-84543722D01*
X82196929Y-84672500D01*
X81599023Y-84672500D01*
G37*
G36*
X82298778Y-84672500D02*
G01*
X82298778Y-84074593D01*
X82661296Y-84074593D01*
X82661296Y-84543722D01*
X82767725Y-84543722D01*
X82767725Y-84074593D01*
X82895769Y-84074593D01*
X82895769Y-84672500D01*
X82533251Y-84672500D01*
X82533251Y-84203370D01*
X82426823Y-84203370D01*
X82426823Y-84672500D01*
X82298778Y-84672500D01*
G37*
G36*
X83595525Y-84672500D02*
G01*
X83467480Y-84672500D01*
X83467480Y-84555080D01*
X83126578Y-84555080D01*
X83126578Y-84672500D01*
X82998534Y-84672500D01*
X82998534Y-84203370D01*
X83126578Y-84203370D01*
X83126578Y-84426303D01*
X83467480Y-84426303D01*
X83467480Y-84203370D01*
X83126578Y-84203370D01*
X82998534Y-84203370D01*
X82998534Y-84074593D01*
X83595525Y-84074593D01*
X83595525Y-84672500D01*
G37*
G36*
X83698290Y-84672500D02*
G01*
X83698290Y-84074593D01*
X83826334Y-84074593D01*
X83826334Y-84543722D01*
X84290334Y-84543722D01*
X84290334Y-84672500D01*
X83698290Y-84672500D01*
G37*
G36*
X85577555Y-84309066D02*
G01*
X85694792Y-84309066D01*
X85694792Y-84672500D01*
X85097801Y-84672500D01*
X85097801Y-84437843D01*
X85225846Y-84437843D01*
X85225846Y-84543722D01*
X85566748Y-84543722D01*
X85566748Y-84437843D01*
X85225846Y-84437843D01*
X85097801Y-84437843D01*
X85097801Y-84203370D01*
X85225846Y-84203370D01*
X85225846Y-84309066D01*
X85449511Y-84309066D01*
X85449511Y-84203370D01*
X85225846Y-84203370D01*
X85097801Y-84203370D01*
X85097801Y-84074593D01*
X85577555Y-84074593D01*
X85577555Y-84309066D01*
G37*
G36*
X86032030Y-84672500D02*
G01*
X86032030Y-84437843D01*
X85797557Y-84437843D01*
X85797557Y-84074593D01*
X85925601Y-84074593D01*
X85925601Y-84309066D01*
X86266503Y-84309066D01*
X86266503Y-84074593D01*
X86394548Y-84074593D01*
X86394548Y-84437843D01*
X86160075Y-84437843D01*
X86160075Y-84672500D01*
X86032030Y-84672500D01*
G37*
G36*
X87794059Y-84672500D02*
G01*
X87666015Y-84672500D01*
X87666015Y-84555080D01*
X87325113Y-84555080D01*
X87325113Y-84672500D01*
X87197069Y-84672500D01*
X87197069Y-84203370D01*
X87325113Y-84203370D01*
X87325113Y-84426303D01*
X87666015Y-84426303D01*
X87666015Y-84203370D01*
X87325113Y-84203370D01*
X87197069Y-84203370D01*
X87197069Y-84074593D01*
X87794059Y-84074593D01*
X87794059Y-84672500D01*
G37*
G36*
X87896824Y-84672500D02*
G01*
X87896824Y-84074593D01*
X88259342Y-84074593D01*
X88259342Y-84543722D01*
X88365771Y-84543722D01*
X88365771Y-84074593D01*
X88493815Y-84074593D01*
X88493815Y-84672500D01*
X88131297Y-84672500D01*
X88131297Y-84203370D01*
X88024869Y-84203370D01*
X88024869Y-84672500D01*
X87896824Y-84672500D01*
G37*
G36*
X88831053Y-84672500D02*
G01*
X88831053Y-84203370D01*
X88596580Y-84203370D01*
X88596580Y-84074593D01*
X89194487Y-84074593D01*
X89194487Y-84203370D01*
X88959098Y-84203370D01*
X88959098Y-84672500D01*
X88831053Y-84672500D01*
G37*
G36*
X89296336Y-84672500D02*
G01*
X89296336Y-84074593D01*
X89424380Y-84074593D01*
X89424380Y-84309066D01*
X89765282Y-84309066D01*
X89765282Y-84074593D01*
X89893326Y-84074593D01*
X89893326Y-84672500D01*
X89765282Y-84672500D01*
X89765282Y-84437843D01*
X89424380Y-84437843D01*
X89424380Y-84672500D01*
X89296336Y-84672500D01*
G37*
G36*
X90593082Y-84672500D02*
G01*
X89996092Y-84672500D01*
X89996092Y-84203370D01*
X90124136Y-84203370D01*
X90124136Y-84543722D01*
X90465038Y-84543722D01*
X90465038Y-84203370D01*
X90124136Y-84203370D01*
X89996092Y-84203370D01*
X89996092Y-84074593D01*
X90593082Y-84074593D01*
X90593082Y-84672500D01*
G37*
G36*
X90695847Y-84672500D02*
G01*
X90695847Y-84074593D01*
X91058365Y-84074593D01*
X91058365Y-84543722D01*
X91164794Y-84543722D01*
X91164794Y-84074593D01*
X91292838Y-84074593D01*
X91292838Y-84672500D01*
X90930321Y-84672500D01*
X90930321Y-84203370D01*
X90823892Y-84203370D01*
X90823892Y-84672500D01*
X90695847Y-84672500D01*
G37*
G36*
X91630076Y-84672500D02*
G01*
X91630076Y-84437843D01*
X91395603Y-84437843D01*
X91395603Y-84074593D01*
X91523647Y-84074593D01*
X91523647Y-84309066D01*
X91864549Y-84309066D01*
X91864549Y-84074593D01*
X91992594Y-84074593D01*
X91992594Y-84437843D01*
X91758121Y-84437843D01*
X91758121Y-84672500D01*
X91630076Y-84672500D01*
G37*
G36*
X93392105Y-84437843D02*
G01*
X93274869Y-84437843D01*
X93274869Y-84672500D01*
X93146824Y-84672500D01*
X93146824Y-84437843D01*
X92923159Y-84437843D01*
X92923159Y-84672500D01*
X92795115Y-84672500D01*
X92795115Y-84203370D01*
X92923159Y-84203370D01*
X92923159Y-84309066D01*
X93264061Y-84309066D01*
X93264061Y-84203370D01*
X92923159Y-84203370D01*
X92795115Y-84203370D01*
X92795115Y-84074593D01*
X93392105Y-84074593D01*
X93392105Y-84437843D01*
G37*
G36*
X94091861Y-84672500D02*
G01*
X93963817Y-84672500D01*
X93963817Y-84555080D01*
X93622915Y-84555080D01*
X93622915Y-84672500D01*
X93494870Y-84672500D01*
X93494870Y-84203370D01*
X93622915Y-84203370D01*
X93622915Y-84426303D01*
X93963817Y-84426303D01*
X93963817Y-84203370D01*
X93622915Y-84203370D01*
X93494870Y-84203370D01*
X93494870Y-84074593D01*
X94091861Y-84074593D01*
X94091861Y-84672500D01*
G37*
G36*
X94194626Y-84672500D02*
G01*
X94194626Y-84074593D01*
X94322670Y-84074593D01*
X94322670Y-84543722D01*
X94663572Y-84543722D01*
X94663572Y-84074593D01*
X94791617Y-84074593D01*
X94791617Y-84672500D01*
X94194626Y-84672500D01*
G37*
G36*
X95363328Y-84555263D02*
G01*
X95363328Y-84191830D01*
X95491372Y-84191830D01*
X95491372Y-84555263D01*
X95363328Y-84555263D01*
G37*
G36*
X94894382Y-84672500D02*
G01*
X94894382Y-84074593D01*
X95375052Y-84074593D01*
X95375052Y-84203370D01*
X95022426Y-84203370D01*
X95022426Y-84543722D01*
X95375052Y-84543722D01*
X95375052Y-84672500D01*
X94894382Y-84672500D01*
G37*
G36*
X95594138Y-84672500D02*
G01*
X95594138Y-84543722D01*
X95828611Y-84543722D01*
X95828611Y-84203370D01*
X95594138Y-84203370D01*
X95594138Y-84074593D01*
X96192044Y-84074593D01*
X96192044Y-84203370D01*
X95956655Y-84203370D01*
X95956655Y-84543722D01*
X96192044Y-84543722D01*
X96192044Y-84672500D01*
X95594138Y-84672500D01*
G37*
G36*
X96293893Y-84672500D02*
G01*
X96293893Y-84074593D01*
X96656411Y-84074593D01*
X96656411Y-84543722D01*
X96762840Y-84543722D01*
X96762840Y-84074593D01*
X96890884Y-84074593D01*
X96890884Y-84672500D01*
X96528367Y-84672500D01*
X96528367Y-84203370D01*
X96421938Y-84203370D01*
X96421938Y-84672500D01*
X96293893Y-84672500D01*
G37*
G36*
X97590640Y-84672500D02*
G01*
X96993649Y-84672500D01*
X96993649Y-84203370D01*
X97121693Y-84203370D01*
X97121693Y-84543722D01*
X97462595Y-84543722D01*
X97462595Y-84203370D01*
X97121693Y-84203370D01*
X96993649Y-84203370D01*
X96993649Y-84074593D01*
X97590640Y-84074593D01*
X97590640Y-84672500D01*
G37*
G36*
X98393161Y-84672500D02*
G01*
X98393161Y-84074593D01*
X98990151Y-84074593D01*
X98990151Y-84672500D01*
X98862107Y-84672500D01*
X98862107Y-84203370D01*
X98755678Y-84203370D01*
X98755678Y-84672500D01*
X98627634Y-84672500D01*
X98627634Y-84203370D01*
X98521205Y-84203370D01*
X98521205Y-84672500D01*
X98393161Y-84672500D01*
G37*
G36*
X99689907Y-84672500D02*
G01*
X99561863Y-84672500D01*
X99561863Y-84555080D01*
X99220961Y-84555080D01*
X99220961Y-84672500D01*
X99092916Y-84672500D01*
X99092916Y-84203370D01*
X99220961Y-84203370D01*
X99220961Y-84426303D01*
X99561863Y-84426303D01*
X99561863Y-84203370D01*
X99220961Y-84203370D01*
X99092916Y-84203370D01*
X99092916Y-84074593D01*
X99689907Y-84074593D01*
X99689907Y-84672500D01*
G37*
G36*
X100261618Y-84555263D02*
G01*
X100261618Y-84191830D01*
X100389663Y-84191830D01*
X100389663Y-84555263D01*
X100261618Y-84555263D01*
G37*
G36*
X99792672Y-84672500D02*
G01*
X99792672Y-84074593D01*
X100273342Y-84074593D01*
X100273342Y-84203370D01*
X99920717Y-84203370D01*
X99920717Y-84543722D01*
X100273342Y-84543722D01*
X100273342Y-84672500D01*
X99792672Y-84672500D01*
G37*
G36*
X100492428Y-84672500D02*
G01*
X100492428Y-84074593D01*
X101084473Y-84074593D01*
X101084473Y-84203370D01*
X100620472Y-84203370D01*
X100620472Y-84309066D01*
X101084473Y-84309066D01*
X101084473Y-84437843D01*
X100620472Y-84437843D01*
X100620472Y-84543722D01*
X101084473Y-84543722D01*
X101084473Y-84672500D01*
X100492428Y-84672500D01*
G37*
G36*
X101192184Y-84672500D02*
G01*
X101192184Y-84074593D01*
X101320228Y-84074593D01*
X101320228Y-84543722D01*
X101426657Y-84543722D01*
X101426657Y-84074593D01*
X101554701Y-84074593D01*
X101554701Y-84543722D01*
X101661130Y-84543722D01*
X101661130Y-84074593D01*
X101789174Y-84074593D01*
X101789174Y-84672500D01*
X101192184Y-84672500D01*
G37*
G36*
X101891939Y-84672500D02*
G01*
X101891939Y-84543722D01*
X102126413Y-84543722D01*
X102126413Y-84203370D01*
X101891939Y-84203370D01*
X101891939Y-84074593D01*
X102489846Y-84074593D01*
X102489846Y-84203370D01*
X102254457Y-84203370D01*
X102254457Y-84543722D01*
X102489846Y-84543722D01*
X102489846Y-84672500D01*
X101891939Y-84672500D01*
G37*
G36*
X102826168Y-84672500D02*
G01*
X102826168Y-84203370D01*
X102591695Y-84203370D01*
X102591695Y-84074593D01*
X103189602Y-84074593D01*
X103189602Y-84203370D01*
X102954213Y-84203370D01*
X102954213Y-84672500D01*
X102826168Y-84672500D01*
G37*
G36*
X103291451Y-84672500D02*
G01*
X103291451Y-84074593D01*
X103419495Y-84074593D01*
X103419495Y-84309066D01*
X103760397Y-84309066D01*
X103760397Y-84074593D01*
X103888442Y-84074593D01*
X103888442Y-84672500D01*
X103760397Y-84672500D01*
X103760397Y-84437843D01*
X103419495Y-84437843D01*
X103419495Y-84672500D01*
X103291451Y-84672500D01*
G37*
G36*
X103991207Y-84672500D02*
G01*
X103991207Y-84074593D01*
X104119251Y-84074593D01*
X104119251Y-84309066D01*
X104460153Y-84309066D01*
X104460153Y-84074593D01*
X104588197Y-84074593D01*
X104588197Y-84672500D01*
X104460153Y-84672500D01*
X104460153Y-84437843D01*
X104119251Y-84437843D01*
X104119251Y-84672500D01*
X103991207Y-84672500D01*
G37*
G36*
X104690963Y-84672500D02*
G01*
X104690963Y-84074593D01*
X105283007Y-84074593D01*
X105283007Y-84203370D01*
X104819007Y-84203370D01*
X104819007Y-84309066D01*
X105283007Y-84309066D01*
X105283007Y-84437843D01*
X104819007Y-84437843D01*
X104819007Y-84543722D01*
X105283007Y-84543722D01*
X105283007Y-84672500D01*
X104690963Y-84672500D01*
G37*
G36*
X105987709Y-84672500D02*
G01*
X105859665Y-84672500D01*
X105859665Y-84555080D01*
X105518763Y-84555080D01*
X105518763Y-84672500D01*
X105390718Y-84672500D01*
X105390718Y-84203370D01*
X105518763Y-84203370D01*
X105518763Y-84426303D01*
X105859665Y-84426303D01*
X105859665Y-84203370D01*
X105518763Y-84203370D01*
X105390718Y-84203370D01*
X105390718Y-84074593D01*
X105987709Y-84074593D01*
X105987709Y-84672500D01*
G37*
G36*
X106687465Y-84437843D02*
G01*
X106570228Y-84437843D01*
X106570228Y-84672500D01*
X106442184Y-84672500D01*
X106442184Y-84437843D01*
X106218518Y-84437843D01*
X106218518Y-84672500D01*
X106090474Y-84672500D01*
X106090474Y-84203370D01*
X106218518Y-84203370D01*
X106218518Y-84309066D01*
X106559420Y-84309066D01*
X106559420Y-84203370D01*
X106218518Y-84203370D01*
X106090474Y-84203370D01*
X106090474Y-84074593D01*
X106687465Y-84074593D01*
X106687465Y-84437843D01*
G37*
G36*
X107024703Y-84672500D02*
G01*
X107024703Y-84203370D01*
X106790230Y-84203370D01*
X106790230Y-84074593D01*
X107388136Y-84074593D01*
X107388136Y-84203370D01*
X107152747Y-84203370D01*
X107152747Y-84672500D01*
X107024703Y-84672500D01*
G37*
G36*
X107489986Y-84672500D02*
G01*
X107489986Y-84543722D01*
X107958932Y-84543722D01*
X107958932Y-84437843D01*
X107489986Y-84437843D01*
X107489986Y-84074593D01*
X108086976Y-84074593D01*
X108086976Y-84203370D01*
X107618030Y-84203370D01*
X107618030Y-84309066D01*
X108086976Y-84309066D01*
X108086976Y-84672500D01*
X107489986Y-84672500D01*
G37*
G36*
X108306978Y-84672500D02*
G01*
X108306978Y-84426303D01*
X108553175Y-84426303D01*
X108553175Y-84672500D01*
X108306978Y-84672500D01*
G37*
G36*
X108889497Y-84672500D02*
G01*
X108889497Y-84074593D01*
X109481542Y-84074593D01*
X109481542Y-84203370D01*
X109017541Y-84203370D01*
X109017541Y-84543722D01*
X109481542Y-84543722D01*
X109481542Y-84672500D01*
X108889497Y-84672500D01*
G37*
G36*
X110186243Y-84672500D02*
G01*
X109589253Y-84672500D01*
X109589253Y-84203370D01*
X109717297Y-84203370D01*
X109717297Y-84543722D01*
X110058199Y-84543722D01*
X110058199Y-84203370D01*
X109717297Y-84203370D01*
X109589253Y-84203370D01*
X109589253Y-84074593D01*
X110186243Y-84074593D01*
X110186243Y-84672500D01*
G37*
G36*
X110289009Y-84672500D02*
G01*
X110289009Y-84074593D01*
X110885999Y-84074593D01*
X110885999Y-84672500D01*
X110757955Y-84672500D01*
X110757955Y-84203370D01*
X110651526Y-84203370D01*
X110651526Y-84672500D01*
X110523482Y-84672500D01*
X110523482Y-84203370D01*
X110417053Y-84203370D01*
X110417053Y-84672500D01*
X110289009Y-84672500D01*
G37*
G36*
X111106001Y-84672500D02*
G01*
X111106001Y-84426303D01*
X111352198Y-84426303D01*
X111352198Y-84672500D01*
X111106001Y-84672500D01*
G37*
G36*
X112285511Y-84672500D02*
G01*
X112157466Y-84672500D01*
X112157466Y-84555080D01*
X111816564Y-84555080D01*
X111816564Y-84672500D01*
X111688520Y-84672500D01*
X111688520Y-84203370D01*
X111816564Y-84203370D01*
X111816564Y-84426303D01*
X112157466Y-84426303D01*
X112157466Y-84203370D01*
X111816564Y-84203370D01*
X111688520Y-84203370D01*
X111688520Y-84074593D01*
X112285511Y-84074593D01*
X112285511Y-84672500D01*
G37*
G36*
X112388276Y-84672500D02*
G01*
X112388276Y-84074593D01*
X112516320Y-84074593D01*
X112516320Y-84543722D01*
X112857222Y-84543722D01*
X112857222Y-84074593D01*
X112985266Y-84074593D01*
X112985266Y-84672500D01*
X112388276Y-84672500D01*
G37*
D10*
D11*
G36*
X78800000Y-83572500D02*
G01*
X78800000Y-83209066D01*
X79268946Y-83209066D01*
X79268946Y-83103370D01*
X78800000Y-83103370D01*
X78800000Y-82974593D01*
X79396990Y-82974593D01*
X79396990Y-83337843D01*
X78928044Y-83337843D01*
X78928044Y-83443722D01*
X79396990Y-83443722D01*
X79396990Y-83572500D01*
X78800000Y-83572500D01*
G37*
G36*
X79862273Y-83337843D02*
G01*
X79734228Y-83337843D01*
X79734228Y-83209066D01*
X79862273Y-83209066D01*
X79862273Y-83337843D01*
G37*
G36*
X80096746Y-83572500D02*
G01*
X79499755Y-83572500D01*
X79499755Y-83103370D01*
X79627800Y-83103370D01*
X79627800Y-83443722D01*
X79968702Y-83443722D01*
X79968702Y-83103370D01*
X79627800Y-83103370D01*
X79499755Y-83103370D01*
X79499755Y-82974593D01*
X80096746Y-82974593D01*
X80096746Y-83572500D01*
G37*
G36*
X80199511Y-83572500D02*
G01*
X80199511Y-83209066D01*
X80668457Y-83209066D01*
X80668457Y-83103370D01*
X80199511Y-83103370D01*
X80199511Y-82974593D01*
X80796502Y-82974593D01*
X80796502Y-83337843D01*
X80327555Y-83337843D01*
X80327555Y-83443722D01*
X80796502Y-83443722D01*
X80796502Y-83572500D01*
X80199511Y-83572500D01*
G37*
G36*
X80899267Y-83572500D02*
G01*
X80899267Y-83443722D01*
X81368213Y-83443722D01*
X81368213Y-83337843D01*
X80899267Y-83337843D01*
X80899267Y-83209066D01*
X81368213Y-83209066D01*
X81368213Y-83103370D01*
X80899267Y-83103370D01*
X80899267Y-82974593D01*
X81496257Y-82974593D01*
X81496257Y-83572500D01*
X80899267Y-83572500D01*
G37*
G36*
X82778532Y-83209066D02*
G01*
X82895769Y-83209066D01*
X82895769Y-83572500D01*
X82298778Y-83572500D01*
X82298778Y-83337843D01*
X82426823Y-83337843D01*
X82426823Y-83443722D01*
X82767725Y-83443722D01*
X82767725Y-83337843D01*
X82426823Y-83337843D01*
X82298778Y-83337843D01*
X82298778Y-83103370D01*
X82426823Y-83103370D01*
X82426823Y-83209066D01*
X82650488Y-83209066D01*
X82650488Y-83103370D01*
X82426823Y-83103370D01*
X82298778Y-83103370D01*
X82298778Y-82974593D01*
X82778532Y-82974593D01*
X82778532Y-83209066D01*
G37*
G36*
X83595525Y-83572500D02*
G01*
X82998534Y-83572500D01*
X82998534Y-83103370D01*
X83126578Y-83103370D01*
X83126578Y-83443722D01*
X83467480Y-83443722D01*
X83467480Y-83103370D01*
X83126578Y-83103370D01*
X82998534Y-83103370D01*
X82998534Y-82974593D01*
X83595525Y-82974593D01*
X83595525Y-83572500D01*
G37*
G36*
X84295280Y-83337843D02*
G01*
X84178044Y-83337843D01*
X84178044Y-83572500D01*
X84050000Y-83572500D01*
X84050000Y-83337843D01*
X83826334Y-83337843D01*
X83826334Y-83572500D01*
X83698290Y-83572500D01*
X83698290Y-83103370D01*
X83826334Y-83103370D01*
X83826334Y-83209066D01*
X84167236Y-83209066D01*
X84167236Y-83103370D01*
X83826334Y-83103370D01*
X83698290Y-83103370D01*
X83698290Y-82974593D01*
X84295280Y-82974593D01*
X84295280Y-83337843D01*
G37*
G36*
X84398046Y-83572500D02*
G01*
X84398046Y-82974593D01*
X84990090Y-82974593D01*
X84990090Y-83103370D01*
X84526090Y-83103370D01*
X84526090Y-83209066D01*
X84990090Y-83209066D01*
X84990090Y-83337843D01*
X84526090Y-83337843D01*
X84526090Y-83443722D01*
X84990090Y-83443722D01*
X84990090Y-83572500D01*
X84398046Y-83572500D01*
G37*
G36*
X85566748Y-83455263D02*
G01*
X85566748Y-83091830D01*
X85694792Y-83091830D01*
X85694792Y-83455263D01*
X85566748Y-83455263D01*
G37*
G36*
X85097801Y-83572500D02*
G01*
X85097801Y-82974593D01*
X85578471Y-82974593D01*
X85578471Y-83103370D01*
X85225846Y-83103370D01*
X85225846Y-83443722D01*
X85578471Y-83443722D01*
X85578471Y-83572500D01*
X85097801Y-83572500D01*
G37*
G36*
X85797557Y-83572500D02*
G01*
X85797557Y-82974593D01*
X86389602Y-82974593D01*
X86389602Y-83103370D01*
X85925601Y-83103370D01*
X85925601Y-83209066D01*
X86389602Y-83209066D01*
X86389602Y-83337843D01*
X85925601Y-83337843D01*
X85925601Y-83572500D01*
X85797557Y-83572500D01*
G37*
G36*
X86497313Y-83572500D02*
G01*
X86497313Y-83443722D01*
X86731786Y-83443722D01*
X86731786Y-83103370D01*
X86497313Y-83103370D01*
X86497313Y-82974593D01*
X87095219Y-82974593D01*
X87095219Y-83103370D01*
X86859830Y-83103370D01*
X86859830Y-83443722D01*
X87095219Y-83443722D01*
X87095219Y-83572500D01*
X86497313Y-83572500D01*
G37*
G36*
X87197069Y-83572500D02*
G01*
X87197069Y-83443722D01*
X87666015Y-83443722D01*
X87666015Y-83337843D01*
X87197069Y-83337843D01*
X87197069Y-82974593D01*
X87794059Y-82974593D01*
X87794059Y-83103370D01*
X87325113Y-83103370D01*
X87325113Y-83209066D01*
X87794059Y-83209066D01*
X87794059Y-83572500D01*
X87197069Y-83572500D01*
G37*
G36*
X87896824Y-83572500D02*
G01*
X87896824Y-82974593D01*
X88024869Y-82974593D01*
X88024869Y-83209066D01*
X88365771Y-83209066D01*
X88365771Y-82974593D01*
X88493815Y-82974593D01*
X88493815Y-83572500D01*
X88365771Y-83572500D01*
X88365771Y-83337843D01*
X88024869Y-83337843D01*
X88024869Y-83572500D01*
X87896824Y-83572500D01*
G37*
G36*
X89776090Y-83209066D02*
G01*
X89893326Y-83209066D01*
X89893326Y-83572500D01*
X89296336Y-83572500D01*
X89296336Y-83337843D01*
X89424380Y-83337843D01*
X89424380Y-83443722D01*
X89765282Y-83443722D01*
X89765282Y-83337843D01*
X89424380Y-83337843D01*
X89296336Y-83337843D01*
X89296336Y-83103370D01*
X89424380Y-83103370D01*
X89424380Y-83209066D01*
X89648046Y-83209066D01*
X89648046Y-83103370D01*
X89424380Y-83103370D01*
X89296336Y-83103370D01*
X89296336Y-82974593D01*
X89776090Y-82974593D01*
X89776090Y-83209066D01*
G37*
G36*
X90593082Y-83572500D02*
G01*
X89996092Y-83572500D01*
X89996092Y-83103370D01*
X90124136Y-83103370D01*
X90124136Y-83443722D01*
X90465038Y-83443722D01*
X90465038Y-83103370D01*
X90124136Y-83103370D01*
X89996092Y-83103370D01*
X89996092Y-82974593D01*
X90593082Y-82974593D01*
X90593082Y-83572500D01*
G37*
G36*
X91292838Y-83337843D02*
G01*
X91175601Y-83337843D01*
X91175601Y-83572500D01*
X91047557Y-83572500D01*
X91047557Y-83337843D01*
X90823892Y-83337843D01*
X90823892Y-83572500D01*
X90695847Y-83572500D01*
X90695847Y-83103370D01*
X90823892Y-83103370D01*
X90823892Y-83209066D01*
X91164794Y-83209066D01*
X91164794Y-83103370D01*
X90823892Y-83103370D01*
X90695847Y-83103370D01*
X90695847Y-82974593D01*
X91292838Y-82974593D01*
X91292838Y-83337843D01*
G37*
G36*
X91395603Y-83572500D02*
G01*
X91395603Y-82974593D01*
X91987648Y-82974593D01*
X91987648Y-83103370D01*
X91523647Y-83103370D01*
X91523647Y-83209066D01*
X91987648Y-83209066D01*
X91987648Y-83337843D01*
X91523647Y-83337843D01*
X91523647Y-83443722D01*
X91987648Y-83443722D01*
X91987648Y-83572500D01*
X91395603Y-83572500D01*
G37*
G36*
X92564305Y-83455263D02*
G01*
X92564305Y-83091830D01*
X92692349Y-83091830D01*
X92692349Y-83455263D01*
X92564305Y-83455263D01*
G37*
G36*
X92095359Y-83572500D02*
G01*
X92095359Y-82974593D01*
X92576029Y-82974593D01*
X92576029Y-83103370D01*
X92223403Y-83103370D01*
X92223403Y-83443722D01*
X92576029Y-83443722D01*
X92576029Y-83572500D01*
X92095359Y-83572500D01*
G37*
G36*
X92795115Y-83572500D02*
G01*
X92795115Y-82974593D01*
X93387159Y-82974593D01*
X93387159Y-83103370D01*
X92923159Y-83103370D01*
X92923159Y-83209066D01*
X93387159Y-83209066D01*
X93387159Y-83337843D01*
X92923159Y-83337843D01*
X92923159Y-83572500D01*
X92795115Y-83572500D01*
G37*
G36*
X93494870Y-83572500D02*
G01*
X93494870Y-83443722D01*
X93729344Y-83443722D01*
X93729344Y-83103370D01*
X93494870Y-83103370D01*
X93494870Y-82974593D01*
X94092777Y-82974593D01*
X94092777Y-83103370D01*
X93857388Y-83103370D01*
X93857388Y-83443722D01*
X94092777Y-83443722D01*
X94092777Y-83572500D01*
X93494870Y-83572500D01*
G37*
G36*
X94194626Y-83572500D02*
G01*
X94194626Y-83443722D01*
X94663572Y-83443722D01*
X94663572Y-83337843D01*
X94194626Y-83337843D01*
X94194626Y-82974593D01*
X94791617Y-82974593D01*
X94791617Y-83103370D01*
X94322670Y-83103370D01*
X94322670Y-83209066D01*
X94791617Y-83209066D01*
X94791617Y-83572500D01*
X94194626Y-83572500D01*
G37*
G36*
X94894382Y-83572500D02*
G01*
X94894382Y-82974593D01*
X95022426Y-82974593D01*
X95022426Y-83209066D01*
X95363328Y-83209066D01*
X95363328Y-82974593D01*
X95491372Y-82974593D01*
X95491372Y-83572500D01*
X95363328Y-83572500D01*
X95363328Y-83337843D01*
X95022426Y-83337843D01*
X95022426Y-83572500D01*
X94894382Y-83572500D01*
G37*
G36*
X95711374Y-83572500D02*
G01*
X95711374Y-83326303D01*
X95957571Y-83326303D01*
X95957571Y-83572500D01*
X95711374Y-83572500D01*
G37*
G36*
X96762840Y-83455263D02*
G01*
X96762840Y-83091830D01*
X96890884Y-83091830D01*
X96890884Y-83455263D01*
X96762840Y-83455263D01*
G37*
G36*
X96293893Y-83572500D02*
G01*
X96293893Y-82974593D01*
X96774563Y-82974593D01*
X96774563Y-83103370D01*
X96421938Y-83103370D01*
X96421938Y-83443722D01*
X96774563Y-83443722D01*
X96774563Y-83572500D01*
X96293893Y-83572500D01*
G37*
G36*
X96993649Y-83572500D02*
G01*
X96993649Y-82974593D01*
X97585694Y-82974593D01*
X97585694Y-83103370D01*
X97121693Y-83103370D01*
X97121693Y-83209066D01*
X97585694Y-83209066D01*
X97585694Y-83337843D01*
X97121693Y-83337843D01*
X97121693Y-83443722D01*
X97585694Y-83443722D01*
X97585694Y-83572500D01*
X96993649Y-83572500D01*
G37*
G36*
X97927878Y-83572500D02*
G01*
X97927878Y-83443722D01*
X98055922Y-83443722D01*
X98055922Y-83572500D01*
X97927878Y-83572500D01*
G37*
G36*
X97810642Y-83455080D02*
G01*
X97810642Y-83326303D01*
X97938686Y-83326303D01*
X97938686Y-83455080D01*
X97810642Y-83455080D01*
G37*
G36*
X98045115Y-83455080D02*
G01*
X98045115Y-83326303D01*
X98173159Y-83326303D01*
X98173159Y-83455080D01*
X98045115Y-83455080D01*
G37*
G36*
X97693405Y-83338026D02*
G01*
X97693405Y-82974593D01*
X97821449Y-82974593D01*
X97821449Y-83338026D01*
X97693405Y-83338026D01*
G37*
G36*
X98162351Y-83338026D02*
G01*
X98162351Y-82974593D01*
X98290396Y-82974593D01*
X98290396Y-83338026D01*
X98162351Y-83338026D01*
G37*
D12*
D13*
G36*
X78800000Y-82245000D02*
G01*
X78800000Y-81049187D01*
X79993981Y-81049187D01*
X79993981Y-81306741D01*
X79056088Y-81306741D01*
X79056088Y-81987445D01*
X79737892Y-81987445D01*
X79737892Y-81775687D01*
X79267847Y-81775687D01*
X79267847Y-81518133D01*
X79993981Y-81518133D01*
X79993981Y-82245000D01*
X78800000Y-82245000D01*
G37*
G36*
X81393492Y-81775687D02*
G01*
X81159019Y-81775687D01*
X81159019Y-82245000D01*
X80902930Y-82245000D01*
X80902930Y-81775687D01*
X80455600Y-81775687D01*
X80455600Y-82245000D01*
X80199511Y-82245000D01*
X80199511Y-81306741D01*
X80455600Y-81306741D01*
X80455600Y-81518133D01*
X81137404Y-81518133D01*
X81137404Y-81306741D01*
X80455600Y-81306741D01*
X80199511Y-81306741D01*
X80199511Y-81049187D01*
X81393492Y-81049187D01*
X81393492Y-81775687D01*
G37*
G36*
X82793004Y-82245000D02*
G01*
X81599023Y-82245000D01*
X81599023Y-81306741D01*
X81855111Y-81306741D01*
X81855111Y-81987445D01*
X82536915Y-81987445D01*
X82536915Y-81306741D01*
X81855111Y-81306741D01*
X81599023Y-81306741D01*
X81599023Y-81049187D01*
X82793004Y-81049187D01*
X82793004Y-82245000D01*
G37*
G36*
X84192515Y-82245000D02*
G01*
X82998534Y-82245000D01*
X82998534Y-81306741D01*
X83254623Y-81306741D01*
X83254623Y-81987445D01*
X83936427Y-81987445D01*
X83936427Y-81306741D01*
X83254623Y-81306741D01*
X82998534Y-81306741D01*
X82998534Y-81049187D01*
X84192515Y-81049187D01*
X84192515Y-82245000D01*
G37*
G36*
X84866992Y-82245000D02*
G01*
X84866992Y-81987445D01*
X85123080Y-81987445D01*
X85123080Y-82245000D01*
X84866992Y-82245000D01*
G37*
G36*
X84632519Y-82010160D02*
G01*
X84632519Y-81752606D01*
X84888607Y-81752606D01*
X84888607Y-82010160D01*
X84632519Y-82010160D01*
G37*
G36*
X85101465Y-82010160D02*
G01*
X85101465Y-81752606D01*
X85357554Y-81752606D01*
X85357554Y-82010160D01*
X85101465Y-82010160D01*
G37*
G36*
X84398046Y-81776053D02*
G01*
X84398046Y-81049187D01*
X84654134Y-81049187D01*
X84654134Y-81776053D01*
X84398046Y-81776053D01*
G37*
G36*
X85335938Y-81776053D02*
G01*
X85335938Y-81049187D01*
X85592027Y-81049187D01*
X85592027Y-81776053D01*
X85335938Y-81776053D01*
G37*
G36*
X85797557Y-82245000D02*
G01*
X85797557Y-81049187D01*
X86981646Y-81049187D01*
X86981646Y-81306741D01*
X86053646Y-81306741D01*
X86053646Y-81518133D01*
X86981646Y-81518133D01*
X86981646Y-81775687D01*
X86053646Y-81775687D01*
X86053646Y-81987445D01*
X86981646Y-81987445D01*
X86981646Y-82245000D01*
X85797557Y-82245000D01*
G37*
G36*
X87666015Y-82245000D02*
G01*
X87666015Y-81306741D01*
X87197069Y-81306741D01*
X87197069Y-81049187D01*
X88392882Y-81049187D01*
X88392882Y-81306741D01*
X87922103Y-81306741D01*
X87922103Y-82245000D01*
X87666015Y-82245000D01*
G37*
G36*
X89790561Y-81775687D02*
G01*
X89556088Y-81775687D01*
X89556088Y-82245000D01*
X89300000Y-82245000D01*
X89300000Y-81775687D01*
X88852669Y-81775687D01*
X88852669Y-82245000D01*
X88596580Y-82245000D01*
X88596580Y-81306741D01*
X88852669Y-81306741D01*
X88852669Y-81518133D01*
X89534473Y-81518133D01*
X89534473Y-81306741D01*
X88852669Y-81306741D01*
X88596580Y-81306741D01*
X88596580Y-81049187D01*
X89790561Y-81049187D01*
X89790561Y-81775687D01*
G37*
G36*
X91190073Y-82245000D02*
G01*
X89996092Y-82245000D01*
X89996092Y-81306741D01*
X90252180Y-81306741D01*
X90252180Y-81987445D01*
X90933984Y-81987445D01*
X90933984Y-81306741D01*
X90252180Y-81306741D01*
X89996092Y-81306741D01*
X89996092Y-81049187D01*
X91190073Y-81049187D01*
X91190073Y-82245000D01*
G37*
G36*
X91395603Y-82245000D02*
G01*
X91395603Y-81049187D01*
X91651692Y-81049187D01*
X91651692Y-81987445D01*
X92579692Y-81987445D01*
X92579692Y-82245000D01*
X91395603Y-82245000D01*
G37*
G36*
X92795115Y-82245000D02*
G01*
X92795115Y-81049187D01*
X93051203Y-81049187D01*
X93051203Y-81987445D01*
X93979204Y-81987445D01*
X93979204Y-82245000D01*
X92795115Y-82245000D01*
G37*
G36*
X94194626Y-82245000D02*
G01*
X94194626Y-81049187D01*
X95378715Y-81049187D01*
X95378715Y-81306741D01*
X94450715Y-81306741D01*
X94450715Y-81518133D01*
X95378715Y-81518133D01*
X95378715Y-81775687D01*
X94450715Y-81775687D01*
X94450715Y-81987445D01*
X95378715Y-81987445D01*
X95378715Y-82245000D01*
X94194626Y-82245000D01*
G37*
G36*
X96788119Y-81775687D02*
G01*
X96553646Y-81775687D01*
X96553646Y-82245000D01*
X96297557Y-82245000D01*
X96297557Y-81775687D01*
X95850226Y-81775687D01*
X95850226Y-82245000D01*
X95594138Y-82245000D01*
X95594138Y-81306741D01*
X95850226Y-81306741D01*
X95850226Y-81518133D01*
X96532030Y-81518133D01*
X96532030Y-81306741D01*
X95850226Y-81306741D01*
X95594138Y-81306741D01*
X95594138Y-81049187D01*
X96788119Y-81049187D01*
X96788119Y-81775687D01*
G37*
D14*
%TO.P,BT1,1,1*%
%TO.N,Net-(U1-B2)*%
X83400000Y-46700000D03*
D15*
%TO.P,BT1,2,2*%
%TO.N,Net-(BT1-Pad2)*%
X85900000Y-46700000D03*
%TD*%
D14*
%TO.P,BT2,1,1*%
%TO.N,Net-(U1-B3)*%
X93500000Y-46900000D03*
D15*
%TO.P,BT2,2,2*%
%TO.N,Net-(BT2-Pad2)*%
X96000000Y-46900000D03*
%TD*%
D14*
%TO.P,BT3,1,1*%
%TO.N,Net-(U1-B1)*%
X103100000Y-46800000D03*
D15*
%TO.P,BT3,2,2*%
%TO.N,Net-(BT3-Pad2)*%
X105600000Y-46800000D03*
%TD*%
D16*
%TO.P,LED1,1,-*%
%TO.N,Net-(LED1--)*%
X130400000Y-62600000D03*
D17*
%TO.P,LED1,2,+*%
%TO.N,Net-(LED1-+)*%
X130400000Y-60100000D03*
%TD*%
D16*
%TO.P,LED2,1,-*%
%TO.N,Net-(LED2--)*%
X116400000Y-76300000D03*
D17*
%TO.P,LED2,2,+*%
%TO.N,Net-(LED2-+)*%
X116400000Y-73800000D03*
%TD*%
D16*
%TO.P,LED3,1,-*%
%TO.N,Net-(LED3--)*%
X114800000Y-48900000D03*
D17*
%TO.P,LED3,2,+*%
%TO.N,Net-(LED3-+)*%
X114800000Y-46400000D03*
%TD*%
D18*
%TO.P,R1,1*%
%TO.N,Net-(BT1-Pad2)*%
X111700000Y-53775000D03*
%TO.P,R1,2*%
%TO.N,Net-(R1-Pad2)*%
X111700000Y-56700000D03*
%TD*%
D19*
%TO.P,R2,1*%
%TO.N,Net-(BT2-Pad2)*%
X121900000Y-59225000D03*
%TO.P,R2,2*%
%TO.N,Net-(R1-Pad2)*%
X121900000Y-56300000D03*
%TD*%
D18*
%TO.P,R3,1*%
%TO.N,Net-(BT3-Pad2)*%
X121900000Y-62200000D03*
%TO.P,R3,2*%
%TO.N,Net-(R1-Pad2)*%
X121900000Y-65125000D03*
%TD*%
D19*
%TO.P,R4,1*%
%TO.N,Net-(J1-Pin_5)*%
X111800000Y-67362500D03*
%TO.P,R4,2*%
%TO.N,Net-(R1-Pad2)*%
X111800000Y-64437500D03*
%TD*%
%TO.P,R5,1*%
%TO.N,Net-(J2-Pin_5)*%
X111600000Y-62000000D03*
%TO.P,R5,2*%
%TO.N,Net-(R1-Pad2)*%
X111600000Y-59075000D03*
%TD*%
%TO.P,R12,1*%
%TO.N,Net-(LED1-+)*%
X116600000Y-56825000D03*
%TO.P,R12,2*%
%TO.N,Net-(R1-Pad2)*%
X116600000Y-53900000D03*
%TD*%
%TO.P,R13,1*%
%TO.N,Net-(LED2-+)*%
X116600000Y-61925000D03*
%TO.P,R13,2*%
%TO.N,Net-(R1-Pad2)*%
X116600000Y-59000000D03*
%TD*%
%TO.P,R14,1*%
%TO.N,Net-(LED3-+)*%
X116600000Y-67325000D03*
%TO.P,R14,2*%
%TO.N,Net-(R1-Pad2)*%
X116600000Y-64400000D03*
%TD*%
D20*
%TO.P,REF\u002A\u002A,1*%
%TO.N,N/C*%
X73800000Y-80900000D03*
%TD*%
%TO.P,REF\u002A\u002A,1*%
%TO.N,N/C*%
X73600000Y-46300000D03*
%TD*%
D21*
%TO.P,U1,1,TX*%
%TO.N,unconnected-(U1-TX-Pad1)*%
X79330000Y-69320000D03*
D22*
%TO.P,U1,2,RX*%
%TO.N,unconnected-(U1-RX-Pad2)*%
X81870000Y-69320000D03*
%TO.P,U1,3,GND*%
%TO.N,Net-(R1-Pad2)*%
X84410000Y-69320000D03*
%TO.P,U1,4,GND*%
%TO.N,unconnected-(U1-GND-Pad4)*%
X86950000Y-69320000D03*
%TO.P,U1,5,SDA*%
%TO.N,Net-(J1-Pin_1)*%
X89490000Y-69320000D03*
%TO.P,U1,6,SCL*%
%TO.N,Net-(J1-Pin_2)*%
X92030000Y-69320000D03*
%TO.P,U1,7,D4*%
%TO.N,Net-(J1-Pin_4)*%
X94570000Y-69320000D03*
%TO.P,U1,8,C6*%
%TO.N,Net-(J1-Pin_3)*%
X97110000Y-69320000D03*
%TO.P,U1,9,D7*%
%TO.N,Net-(J2-Pin_3)*%
X99650000Y-69320000D03*
%TO.P,U1,10,E6*%
%TO.N,Net-(J2-Pin_4)*%
X102190000Y-69320000D03*
%TO.P,U1,11,B4*%
%TO.N,Net-(J2-Pin_2)*%
X104730000Y-69320000D03*
%TO.P,U1,12,B5*%
%TO.N,Net-(J2-Pin_1)*%
X107270000Y-69320000D03*
%TO.P,U1,13,B6*%
%TO.N,unconnected-(U1-B6-Pad13)*%
X107270000Y-54080000D03*
%TO.P,U1,14,B2*%
%TO.N,Net-(U1-B2)*%
X104730000Y-54080000D03*
%TO.P,U1,15,B3*%
%TO.N,Net-(U1-B3)*%
X102190000Y-54080000D03*
%TO.P,U1,16,B1*%
%TO.N,Net-(U1-B1)*%
X99650000Y-54080000D03*
%TO.P,U1,17,F7*%
%TO.N,Net-(LED1--)*%
X97110000Y-54080000D03*
%TO.P,U1,18,F6*%
%TO.N,Net-(LED2--)*%
X94570000Y-54080000D03*
%TO.P,U1,19,F5*%
%TO.N,Net-(LED3--)*%
X92030000Y-54080000D03*
%TO.P,U1,20,F4*%
%TO.N,unconnected-(U1-F4-Pad20)*%
X89490000Y-54080000D03*
%TO.P,U1,21,VCC*%
%TO.N,unconnected-(U1-VCC-Pad21)*%
X86950000Y-54080000D03*
%TO.P,U1,22,RST*%
%TO.N,unconnected-(U1-RST-Pad22)*%
X84410000Y-54080000D03*
%TO.P,U1,23,GND*%
%TO.N,unconnected-(U1-GND-Pad23)*%
X81870000Y-54080000D03*
%TO.P,U1,24,RAW*%
%TO.N,unconnected-(U1-RAW-Pad24)*%
X79330000Y-54080000D03*
%TD*%
D20*
%TO.P,REF\u002A\u002A,1*%
%TO.N,N/C*%
X132700000Y-46300000D03*
%TD*%
%TO.P,REF\u002A\u002A,1*%
%TO.N,N/C*%
X132800000Y-80900000D03*
%TD*%
D23*
%TO.P,J1,1,Pin_1*%
%TO.N,Net-(J1-Pin_1)*%
X81000000Y-75000000D03*
D24*
%TO.P,J1,2,Pin_2*%
%TO.N,Net-(J1-Pin_2)*%
X83500000Y-75000000D03*
%TO.P,J1,3,Pin_3*%
%TO.N,Net-(J1-Pin_3)*%
X86000000Y-75000000D03*
%TO.P,J1,4,Pin_4*%
%TO.N,Net-(J1-Pin_4)*%
X88500000Y-75000000D03*
%TO.P,J1,5,Pin_5*%
%TO.N,Net-(J1-Pin_5)*%
X91000000Y-75000000D03*
%TD*%
D23*
%TO.P,J2,1,Pin_1*%
%TO.N,Net-(J2-Pin_1)*%
X98100000Y-75100000D03*
D24*
%TO.P,J2,2,Pin_2*%
%TO.N,Net-(J2-Pin_2)*%
X100600000Y-75100000D03*
%TO.P,J2,3,Pin_3*%
%TO.N,Net-(J2-Pin_3)*%
X103100000Y-75100000D03*
%TO.P,J2,4,Pin_4*%
%TO.N,Net-(J2-Pin_4)*%
X105600000Y-75100000D03*
%TO.P,J2,5,Pin_5*%
%TO.N,Net-(J2-Pin_5)*%
X108100000Y-75100000D03*
%TD*%
D25*
%TO.N,Net-(BT1-Pad2)*%
X109529600Y-51604600D02*
X91979700Y-51604600D01*
X85900000Y-46700000D02*
X87075100Y-46700000D01*
X111700000Y-53775000D02*
X109529600Y-51604600D01*
X91979700Y-51604600D02*
X87075100Y-46700000D01*
%TO.N,Net-(U1-B2)*%
X102968500Y-52318500D02*
X89018500Y-52318500D01*
X89018500Y-52318500D02*
X83400000Y-46700000D01*
X104730000Y-54080000D02*
X102968500Y-52318500D01*
%TO.N,Net-(BT2-Pad2)*%
X99812500Y-49537400D02*
X97175100Y-46900000D01*
X108712700Y-49537400D02*
X99812500Y-49537400D01*
X112061600Y-52886300D02*
X108712700Y-49537400D01*
X120281800Y-52886300D02*
X112061600Y-52886300D01*
X121900000Y-59225000D02*
X123109700Y-58015300D01*
X123109700Y-58015300D02*
X123109700Y-55714200D01*
X96000000Y-46900000D02*
X97175100Y-46900000D01*
X123109700Y-55714200D02*
X120281800Y-52886300D01*
%TO.N,Net-(BT3-Pad2)*%
X119186600Y-51154400D02*
X111129500Y-51154400D01*
X121900000Y-62200000D02*
X123568400Y-60531600D01*
X123568400Y-60531600D02*
X123568400Y-55536200D01*
X123568400Y-55536200D02*
X119186600Y-51154400D01*
X105600000Y-46800000D02*
X106775100Y-46800000D01*
X111129500Y-51154400D02*
X106775100Y-46800000D01*
%TO.N,Net-(LED1-+)*%
X130400000Y-60100000D02*
X130400000Y-61275100D01*
X121006200Y-63089100D02*
X127410900Y-63089100D01*
X129224900Y-61275100D02*
X130400000Y-61275100D01*
X120500400Y-62583300D02*
X121006200Y-63089100D01*
X120500400Y-60725400D02*
X120500400Y-62583300D01*
X116600000Y-56825000D02*
X120500400Y-60725400D01*
X127410900Y-63089100D02*
X129224900Y-61275100D01*
%TO.N,Net-(LED2-+)*%
X115347400Y-63177600D02*
X115347400Y-71572300D01*
X116600000Y-61925000D02*
X115347400Y-63177600D01*
X115347400Y-71572300D02*
X116400000Y-72624900D01*
X116400000Y-73800000D02*
X116400000Y-72624900D01*
%TO.N,Net-(LED3-+)*%
X131753700Y-63453100D02*
X127881800Y-67325000D01*
X127881800Y-67325000D02*
X116600000Y-67325000D01*
X131753700Y-59597200D02*
X131753700Y-63453100D01*
X114800000Y-46400000D02*
X118556500Y-46400000D01*
X118556500Y-46400000D02*
X131753700Y-59597200D01*
%TO.N,Net-(R1-Pad2)*%
X116600000Y-64400000D02*
X117814300Y-64400000D01*
X115344500Y-57744500D02*
X116600000Y-59000000D01*
X117814300Y-60214300D02*
X117814300Y-64400000D01*
X90756200Y-62973800D02*
X110336300Y-62973800D01*
X116600000Y-59000000D02*
X117814300Y-60214300D01*
X115344500Y-55528300D02*
X116600000Y-54272800D01*
X111600000Y-59075000D02*
X110336300Y-60338700D01*
X116600000Y-54272800D02*
X116600000Y-53900000D01*
X119872800Y-54272800D02*
X121900000Y-56300000D01*
X110336300Y-62973800D02*
X111800000Y-64437500D01*
X110336300Y-60338700D02*
X110336300Y-62973800D01*
X115344500Y-57612500D02*
X115344500Y-55528300D01*
X117814300Y-64400000D02*
X121175000Y-64400000D01*
X115344500Y-57612500D02*
X115344500Y-57744500D01*
X84410000Y-69320000D02*
X90756200Y-62973800D01*
X121175000Y-64400000D02*
X121900000Y-65125000D01*
X116600000Y-54272800D02*
X119872800Y-54272800D01*
X111700000Y-57612500D02*
X111700000Y-58975000D01*
X111700000Y-56700000D02*
X111700000Y-57612500D01*
X111700000Y-58975000D02*
X111600000Y-59075000D01*
X111700000Y-57612500D02*
X115344500Y-57612500D01*
%TO.N,Net-(J1-Pin_3)*%
X92782800Y-73647200D02*
X87992400Y-73647200D01*
X97110000Y-69320000D02*
X92782800Y-73647200D01*
X86000000Y-75000000D02*
X87175100Y-75000000D01*
X87175100Y-74464500D02*
X87175100Y-75000000D01*
X87992400Y-73647200D02*
X87175100Y-74464500D01*
%TO.N,Net-(J1-Pin_5)*%
X94950200Y-72224900D02*
X92175100Y-75000000D01*
X106937600Y-72224900D02*
X94950200Y-72224900D01*
X91000000Y-75000000D02*
X92175100Y-75000000D01*
X111800000Y-67362500D02*
X106937600Y-72224900D01*
%TO.N,Net-(J2-Pin_5)*%
X113002100Y-71373000D02*
X109275100Y-75100000D01*
X108100000Y-75100000D02*
X109275100Y-75100000D01*
X111600000Y-62000000D02*
X113002100Y-63402100D01*
X113002100Y-63402100D02*
X113002100Y-71373000D01*
%TD*%
M02*
