%TF.GenerationSoftware,KiCad,Pcbnew,7.0.1*%
%TF.CreationDate,2023-09-18T10:22:11-04:00*%
%TF.ProjectId,Groove Coaster,47726f6f-7665-4204-936f-61737465722e,rev?*%
%TF.SameCoordinates,Original*%
%TF.FileFunction,Drillmap*%
%TF.FilePolarity,Positive*%
%FSLAX45Y45*%
G04 Gerber Fmt 4.5, Leading zero omitted, Abs format (unit mm)*
G04 Created by KiCad (PCBNEW 7.0.1) date 2023-09-18 10:22:11*
%MOMM*%
%LPD*%
G01*
G04 APERTURE LIST*
%ADD10C,0.200000*%
%ADD11C,0.095000*%
%ADD12C,0.100000*%
%ADD13C,0.110000*%
%ADD14C,0.320000*%
G04 APERTURE END LIST*
D10*
X6830000Y-4090000D02*
X13810000Y-4090000D01*
X13810000Y-8620000D01*
X6830000Y-8620000D01*
X6830000Y-4090000D01*
D11*
X8052500Y-7452500D02*
X8147500Y-7547500D01*
X8147500Y-7452500D02*
X8052500Y-7547500D01*
X8302500Y-7452500D02*
X8397500Y-7547500D01*
X8397500Y-7452500D02*
X8302500Y-7547500D01*
X8552500Y-7452500D02*
X8647500Y-7547500D01*
X8647500Y-7452500D02*
X8552500Y-7547500D01*
X8802500Y-7452500D02*
X8897500Y-7547500D01*
X8897500Y-7452500D02*
X8802500Y-7547500D01*
X9052500Y-7452500D02*
X9147500Y-7547500D01*
X9147500Y-7452500D02*
X9052500Y-7547500D01*
X9762500Y-7462500D02*
X9857500Y-7557500D01*
X9857500Y-7462500D02*
X9762500Y-7557500D01*
X10012500Y-7462500D02*
X10107500Y-7557500D01*
X10107500Y-7462500D02*
X10012500Y-7557500D01*
X10262500Y-7462500D02*
X10357500Y-7557500D01*
X10357500Y-7462500D02*
X10262500Y-7557500D01*
X10512500Y-7462500D02*
X10607500Y-7557500D01*
X10607500Y-7462500D02*
X10512500Y-7557500D01*
X10762500Y-7462500D02*
X10857500Y-7557500D01*
X10857500Y-7462500D02*
X10762500Y-7557500D01*
D12*
X8390000Y-4670000D02*
G75*
G03*
X8390000Y-4670000I-50000J0D01*
G01*
X8640000Y-4670000D02*
G75*
G03*
X8640000Y-4670000I-50000J0D01*
G01*
X9400000Y-4690000D02*
G75*
G03*
X9400000Y-4690000I-50000J0D01*
G01*
X9650000Y-4690000D02*
G75*
G03*
X9650000Y-4690000I-50000J0D01*
G01*
X10360000Y-4680000D02*
G75*
G03*
X10360000Y-4680000I-50000J0D01*
G01*
X10610000Y-4680000D02*
G75*
G03*
X10610000Y-4680000I-50000J0D01*
G01*
X11530000Y-4640000D02*
G75*
G03*
X11530000Y-4640000I-50000J0D01*
G01*
X11530000Y-4890000D02*
G75*
G03*
X11530000Y-4890000I-50000J0D01*
G01*
X11690000Y-7380000D02*
G75*
G03*
X11690000Y-7380000I-50000J0D01*
G01*
X11690000Y-7630000D02*
G75*
G03*
X11690000Y-7630000I-50000J0D01*
G01*
X13090000Y-6010000D02*
G75*
G03*
X13090000Y-6010000I-50000J0D01*
G01*
X13090000Y-6260000D02*
G75*
G03*
X13090000Y-6260000I-50000J0D01*
G01*
D13*
X7933000Y-5353000D02*
X7933000Y-5463000D01*
X7878000Y-5408000D02*
X7988000Y-5408000D01*
X7933000Y-6877000D02*
X7933000Y-6987000D01*
X7878000Y-6932000D02*
X7988000Y-6932000D01*
X8187000Y-5353000D02*
X8187000Y-5463000D01*
X8132000Y-5408000D02*
X8242000Y-5408000D01*
X8187000Y-6877000D02*
X8187000Y-6987000D01*
X8132000Y-6932000D02*
X8242000Y-6932000D01*
X8441000Y-5353000D02*
X8441000Y-5463000D01*
X8386000Y-5408000D02*
X8496000Y-5408000D01*
X8441000Y-6877000D02*
X8441000Y-6987000D01*
X8386000Y-6932000D02*
X8496000Y-6932000D01*
X8695000Y-5353000D02*
X8695000Y-5463000D01*
X8640000Y-5408000D02*
X8750000Y-5408000D01*
X8695000Y-6877000D02*
X8695000Y-6987000D01*
X8640000Y-6932000D02*
X8750000Y-6932000D01*
X8949000Y-5353000D02*
X8949000Y-5463000D01*
X8894000Y-5408000D02*
X9004000Y-5408000D01*
X8949000Y-6877000D02*
X8949000Y-6987000D01*
X8894000Y-6932000D02*
X9004000Y-6932000D01*
X9203000Y-5353000D02*
X9203000Y-5463000D01*
X9148000Y-5408000D02*
X9258000Y-5408000D01*
X9203000Y-6877000D02*
X9203000Y-6987000D01*
X9148000Y-6932000D02*
X9258000Y-6932000D01*
X9457000Y-5353000D02*
X9457000Y-5463000D01*
X9402000Y-5408000D02*
X9512000Y-5408000D01*
X9457000Y-6877000D02*
X9457000Y-6987000D01*
X9402000Y-6932000D02*
X9512000Y-6932000D01*
X9711000Y-5353000D02*
X9711000Y-5463000D01*
X9656000Y-5408000D02*
X9766000Y-5408000D01*
X9711000Y-6877000D02*
X9711000Y-6987000D01*
X9656000Y-6932000D02*
X9766000Y-6932000D01*
X9965000Y-5353000D02*
X9965000Y-5463000D01*
X9910000Y-5408000D02*
X10020000Y-5408000D01*
X9965000Y-6877000D02*
X9965000Y-6987000D01*
X9910000Y-6932000D02*
X10020000Y-6932000D01*
X10219000Y-5353000D02*
X10219000Y-5463000D01*
X10164000Y-5408000D02*
X10274000Y-5408000D01*
X10219000Y-6877000D02*
X10219000Y-6987000D01*
X10164000Y-6932000D02*
X10274000Y-6932000D01*
X10473000Y-5353000D02*
X10473000Y-5463000D01*
X10418000Y-5408000D02*
X10528000Y-5408000D01*
X10473000Y-6877000D02*
X10473000Y-6987000D01*
X10418000Y-6932000D02*
X10528000Y-6932000D01*
X10727000Y-5353000D02*
X10727000Y-5463000D01*
X10672000Y-5408000D02*
X10782000Y-5408000D01*
X10727000Y-6877000D02*
X10727000Y-6987000D01*
X10672000Y-6932000D02*
X10782000Y-6932000D01*
D14*
X7473138Y-4743138D02*
X7473138Y-4516862D01*
X7246862Y-4516862D01*
X7246862Y-4743138D01*
X7473138Y-4743138D01*
X7493138Y-8203138D02*
X7493138Y-7976862D01*
X7266862Y-7976862D01*
X7266862Y-8203138D01*
X7493138Y-8203138D01*
X13383138Y-4743138D02*
X13383138Y-4516862D01*
X13156862Y-4516862D01*
X13156862Y-4743138D01*
X13383138Y-4743138D01*
X13393138Y-8203138D02*
X13393138Y-7976862D01*
X13166862Y-7976862D01*
X13166862Y-8203138D01*
X13393138Y-8203138D01*
D10*
X7067619Y-8942524D02*
X7067619Y-8742524D01*
X7067619Y-8742524D02*
X7115238Y-8742524D01*
X7115238Y-8742524D02*
X7143809Y-8752048D01*
X7143809Y-8752048D02*
X7162857Y-8771095D01*
X7162857Y-8771095D02*
X7172381Y-8790143D01*
X7172381Y-8790143D02*
X7181905Y-8828238D01*
X7181905Y-8828238D02*
X7181905Y-8856810D01*
X7181905Y-8856810D02*
X7172381Y-8894905D01*
X7172381Y-8894905D02*
X7162857Y-8913952D01*
X7162857Y-8913952D02*
X7143809Y-8933000D01*
X7143809Y-8933000D02*
X7115238Y-8942524D01*
X7115238Y-8942524D02*
X7067619Y-8942524D01*
X7267619Y-8942524D02*
X7267619Y-8809190D01*
X7267619Y-8847286D02*
X7277143Y-8828238D01*
X7277143Y-8828238D02*
X7286667Y-8818714D01*
X7286667Y-8818714D02*
X7305714Y-8809190D01*
X7305714Y-8809190D02*
X7324762Y-8809190D01*
X7391428Y-8942524D02*
X7391428Y-8809190D01*
X7391428Y-8742524D02*
X7381905Y-8752048D01*
X7381905Y-8752048D02*
X7391428Y-8761571D01*
X7391428Y-8761571D02*
X7400952Y-8752048D01*
X7400952Y-8752048D02*
X7391428Y-8742524D01*
X7391428Y-8742524D02*
X7391428Y-8761571D01*
X7515238Y-8942524D02*
X7496190Y-8933000D01*
X7496190Y-8933000D02*
X7486667Y-8913952D01*
X7486667Y-8913952D02*
X7486667Y-8742524D01*
X7620000Y-8942524D02*
X7600952Y-8933000D01*
X7600952Y-8933000D02*
X7591428Y-8913952D01*
X7591428Y-8913952D02*
X7591428Y-8742524D01*
X7848571Y-8942524D02*
X7848571Y-8742524D01*
X7848571Y-8742524D02*
X7915238Y-8885381D01*
X7915238Y-8885381D02*
X7981905Y-8742524D01*
X7981905Y-8742524D02*
X7981905Y-8942524D01*
X8162857Y-8942524D02*
X8162857Y-8837762D01*
X8162857Y-8837762D02*
X8153333Y-8818714D01*
X8153333Y-8818714D02*
X8134286Y-8809190D01*
X8134286Y-8809190D02*
X8096190Y-8809190D01*
X8096190Y-8809190D02*
X8077143Y-8818714D01*
X8162857Y-8933000D02*
X8143809Y-8942524D01*
X8143809Y-8942524D02*
X8096190Y-8942524D01*
X8096190Y-8942524D02*
X8077143Y-8933000D01*
X8077143Y-8933000D02*
X8067619Y-8913952D01*
X8067619Y-8913952D02*
X8067619Y-8894905D01*
X8067619Y-8894905D02*
X8077143Y-8875857D01*
X8077143Y-8875857D02*
X8096190Y-8866333D01*
X8096190Y-8866333D02*
X8143809Y-8866333D01*
X8143809Y-8866333D02*
X8162857Y-8856810D01*
X8258095Y-8809190D02*
X8258095Y-9009190D01*
X8258095Y-8818714D02*
X8277143Y-8809190D01*
X8277143Y-8809190D02*
X8315238Y-8809190D01*
X8315238Y-8809190D02*
X8334286Y-8818714D01*
X8334286Y-8818714D02*
X8343809Y-8828238D01*
X8343809Y-8828238D02*
X8353333Y-8847286D01*
X8353333Y-8847286D02*
X8353333Y-8904429D01*
X8353333Y-8904429D02*
X8343809Y-8923476D01*
X8343809Y-8923476D02*
X8334286Y-8933000D01*
X8334286Y-8933000D02*
X8315238Y-8942524D01*
X8315238Y-8942524D02*
X8277143Y-8942524D01*
X8277143Y-8942524D02*
X8258095Y-8933000D01*
X8439048Y-8923476D02*
X8448571Y-8933000D01*
X8448571Y-8933000D02*
X8439048Y-8942524D01*
X8439048Y-8942524D02*
X8429524Y-8933000D01*
X8429524Y-8933000D02*
X8439048Y-8923476D01*
X8439048Y-8923476D02*
X8439048Y-8942524D01*
X8439048Y-8818714D02*
X8448571Y-8828238D01*
X8448571Y-8828238D02*
X8439048Y-8837762D01*
X8439048Y-8837762D02*
X8429524Y-8828238D01*
X8429524Y-8828238D02*
X8439048Y-8818714D01*
X8439048Y-8818714D02*
X8439048Y-8837762D01*
D11*
X6725000Y-9222500D02*
X6820000Y-9317500D01*
X6820000Y-9222500D02*
X6725000Y-9317500D01*
D10*
X7105714Y-9162524D02*
X7124762Y-9162524D01*
X7124762Y-9162524D02*
X7143809Y-9172048D01*
X7143809Y-9172048D02*
X7153333Y-9181571D01*
X7153333Y-9181571D02*
X7162857Y-9200619D01*
X7162857Y-9200619D02*
X7172381Y-9238714D01*
X7172381Y-9238714D02*
X7172381Y-9286333D01*
X7172381Y-9286333D02*
X7162857Y-9324429D01*
X7162857Y-9324429D02*
X7153333Y-9343476D01*
X7153333Y-9343476D02*
X7143809Y-9353000D01*
X7143809Y-9353000D02*
X7124762Y-9362524D01*
X7124762Y-9362524D02*
X7105714Y-9362524D01*
X7105714Y-9362524D02*
X7086667Y-9353000D01*
X7086667Y-9353000D02*
X7077143Y-9343476D01*
X7077143Y-9343476D02*
X7067619Y-9324429D01*
X7067619Y-9324429D02*
X7058095Y-9286333D01*
X7058095Y-9286333D02*
X7058095Y-9238714D01*
X7058095Y-9238714D02*
X7067619Y-9200619D01*
X7067619Y-9200619D02*
X7077143Y-9181571D01*
X7077143Y-9181571D02*
X7086667Y-9172048D01*
X7086667Y-9172048D02*
X7105714Y-9162524D01*
X7258095Y-9343476D02*
X7267619Y-9353000D01*
X7267619Y-9353000D02*
X7258095Y-9362524D01*
X7258095Y-9362524D02*
X7248571Y-9353000D01*
X7248571Y-9353000D02*
X7258095Y-9343476D01*
X7258095Y-9343476D02*
X7258095Y-9362524D01*
X7362857Y-9362524D02*
X7400952Y-9362524D01*
X7400952Y-9362524D02*
X7420000Y-9353000D01*
X7420000Y-9353000D02*
X7429524Y-9343476D01*
X7429524Y-9343476D02*
X7448571Y-9314905D01*
X7448571Y-9314905D02*
X7458095Y-9276810D01*
X7458095Y-9276810D02*
X7458095Y-9200619D01*
X7458095Y-9200619D02*
X7448571Y-9181571D01*
X7448571Y-9181571D02*
X7439048Y-9172048D01*
X7439048Y-9172048D02*
X7420000Y-9162524D01*
X7420000Y-9162524D02*
X7381905Y-9162524D01*
X7381905Y-9162524D02*
X7362857Y-9172048D01*
X7362857Y-9172048D02*
X7353333Y-9181571D01*
X7353333Y-9181571D02*
X7343809Y-9200619D01*
X7343809Y-9200619D02*
X7343809Y-9248238D01*
X7343809Y-9248238D02*
X7353333Y-9267286D01*
X7353333Y-9267286D02*
X7362857Y-9276810D01*
X7362857Y-9276810D02*
X7381905Y-9286333D01*
X7381905Y-9286333D02*
X7420000Y-9286333D01*
X7420000Y-9286333D02*
X7439048Y-9276810D01*
X7439048Y-9276810D02*
X7448571Y-9267286D01*
X7448571Y-9267286D02*
X7458095Y-9248238D01*
X7639048Y-9162524D02*
X7543809Y-9162524D01*
X7543809Y-9162524D02*
X7534286Y-9257762D01*
X7534286Y-9257762D02*
X7543809Y-9248238D01*
X7543809Y-9248238D02*
X7562857Y-9238714D01*
X7562857Y-9238714D02*
X7610476Y-9238714D01*
X7610476Y-9238714D02*
X7629524Y-9248238D01*
X7629524Y-9248238D02*
X7639048Y-9257762D01*
X7639048Y-9257762D02*
X7648571Y-9276810D01*
X7648571Y-9276810D02*
X7648571Y-9324429D01*
X7648571Y-9324429D02*
X7639048Y-9343476D01*
X7639048Y-9343476D02*
X7629524Y-9353000D01*
X7629524Y-9353000D02*
X7610476Y-9362524D01*
X7610476Y-9362524D02*
X7562857Y-9362524D01*
X7562857Y-9362524D02*
X7543809Y-9353000D01*
X7543809Y-9353000D02*
X7534286Y-9343476D01*
X7772381Y-9162524D02*
X7791429Y-9162524D01*
X7791429Y-9162524D02*
X7810476Y-9172048D01*
X7810476Y-9172048D02*
X7820000Y-9181571D01*
X7820000Y-9181571D02*
X7829524Y-9200619D01*
X7829524Y-9200619D02*
X7839048Y-9238714D01*
X7839048Y-9238714D02*
X7839048Y-9286333D01*
X7839048Y-9286333D02*
X7829524Y-9324429D01*
X7829524Y-9324429D02*
X7820000Y-9343476D01*
X7820000Y-9343476D02*
X7810476Y-9353000D01*
X7810476Y-9353000D02*
X7791429Y-9362524D01*
X7791429Y-9362524D02*
X7772381Y-9362524D01*
X7772381Y-9362524D02*
X7753333Y-9353000D01*
X7753333Y-9353000D02*
X7743809Y-9343476D01*
X7743809Y-9343476D02*
X7734286Y-9324429D01*
X7734286Y-9324429D02*
X7724762Y-9286333D01*
X7724762Y-9286333D02*
X7724762Y-9238714D01*
X7724762Y-9238714D02*
X7734286Y-9200619D01*
X7734286Y-9200619D02*
X7743809Y-9181571D01*
X7743809Y-9181571D02*
X7753333Y-9172048D01*
X7753333Y-9172048D02*
X7772381Y-9162524D01*
X7924762Y-9362524D02*
X7924762Y-9229190D01*
X7924762Y-9248238D02*
X7934286Y-9238714D01*
X7934286Y-9238714D02*
X7953333Y-9229190D01*
X7953333Y-9229190D02*
X7981905Y-9229190D01*
X7981905Y-9229190D02*
X8000952Y-9238714D01*
X8000952Y-9238714D02*
X8010476Y-9257762D01*
X8010476Y-9257762D02*
X8010476Y-9362524D01*
X8010476Y-9257762D02*
X8020000Y-9238714D01*
X8020000Y-9238714D02*
X8039048Y-9229190D01*
X8039048Y-9229190D02*
X8067619Y-9229190D01*
X8067619Y-9229190D02*
X8086667Y-9238714D01*
X8086667Y-9238714D02*
X8096190Y-9257762D01*
X8096190Y-9257762D02*
X8096190Y-9362524D01*
X8191429Y-9362524D02*
X8191429Y-9229190D01*
X8191429Y-9248238D02*
X8200952Y-9238714D01*
X8200952Y-9238714D02*
X8220000Y-9229190D01*
X8220000Y-9229190D02*
X8248571Y-9229190D01*
X8248571Y-9229190D02*
X8267619Y-9238714D01*
X8267619Y-9238714D02*
X8277143Y-9257762D01*
X8277143Y-9257762D02*
X8277143Y-9362524D01*
X8277143Y-9257762D02*
X8286667Y-9238714D01*
X8286667Y-9238714D02*
X8305714Y-9229190D01*
X8305714Y-9229190D02*
X8334286Y-9229190D01*
X8334286Y-9229190D02*
X8353333Y-9238714D01*
X8353333Y-9238714D02*
X8362857Y-9257762D01*
X8362857Y-9257762D02*
X8362857Y-9362524D01*
X8753333Y-9153000D02*
X8581905Y-9410143D01*
X9010476Y-9162524D02*
X9029524Y-9162524D01*
X9029524Y-9162524D02*
X9048572Y-9172048D01*
X9048572Y-9172048D02*
X9058095Y-9181571D01*
X9058095Y-9181571D02*
X9067619Y-9200619D01*
X9067619Y-9200619D02*
X9077143Y-9238714D01*
X9077143Y-9238714D02*
X9077143Y-9286333D01*
X9077143Y-9286333D02*
X9067619Y-9324429D01*
X9067619Y-9324429D02*
X9058095Y-9343476D01*
X9058095Y-9343476D02*
X9048572Y-9353000D01*
X9048572Y-9353000D02*
X9029524Y-9362524D01*
X9029524Y-9362524D02*
X9010476Y-9362524D01*
X9010476Y-9362524D02*
X8991429Y-9353000D01*
X8991429Y-9353000D02*
X8981905Y-9343476D01*
X8981905Y-9343476D02*
X8972381Y-9324429D01*
X8972381Y-9324429D02*
X8962857Y-9286333D01*
X8962857Y-9286333D02*
X8962857Y-9238714D01*
X8962857Y-9238714D02*
X8972381Y-9200619D01*
X8972381Y-9200619D02*
X8981905Y-9181571D01*
X8981905Y-9181571D02*
X8991429Y-9172048D01*
X8991429Y-9172048D02*
X9010476Y-9162524D01*
X9162857Y-9343476D02*
X9172381Y-9353000D01*
X9172381Y-9353000D02*
X9162857Y-9362524D01*
X9162857Y-9362524D02*
X9153334Y-9353000D01*
X9153334Y-9353000D02*
X9162857Y-9343476D01*
X9162857Y-9343476D02*
X9162857Y-9362524D01*
X9296191Y-9162524D02*
X9315238Y-9162524D01*
X9315238Y-9162524D02*
X9334286Y-9172048D01*
X9334286Y-9172048D02*
X9343810Y-9181571D01*
X9343810Y-9181571D02*
X9353334Y-9200619D01*
X9353334Y-9200619D02*
X9362857Y-9238714D01*
X9362857Y-9238714D02*
X9362857Y-9286333D01*
X9362857Y-9286333D02*
X9353334Y-9324429D01*
X9353334Y-9324429D02*
X9343810Y-9343476D01*
X9343810Y-9343476D02*
X9334286Y-9353000D01*
X9334286Y-9353000D02*
X9315238Y-9362524D01*
X9315238Y-9362524D02*
X9296191Y-9362524D01*
X9296191Y-9362524D02*
X9277143Y-9353000D01*
X9277143Y-9353000D02*
X9267619Y-9343476D01*
X9267619Y-9343476D02*
X9258095Y-9324429D01*
X9258095Y-9324429D02*
X9248572Y-9286333D01*
X9248572Y-9286333D02*
X9248572Y-9238714D01*
X9248572Y-9238714D02*
X9258095Y-9200619D01*
X9258095Y-9200619D02*
X9267619Y-9181571D01*
X9267619Y-9181571D02*
X9277143Y-9172048D01*
X9277143Y-9172048D02*
X9296191Y-9162524D01*
X9429524Y-9162524D02*
X9553334Y-9162524D01*
X9553334Y-9162524D02*
X9486667Y-9238714D01*
X9486667Y-9238714D02*
X9515238Y-9238714D01*
X9515238Y-9238714D02*
X9534286Y-9248238D01*
X9534286Y-9248238D02*
X9543810Y-9257762D01*
X9543810Y-9257762D02*
X9553334Y-9276810D01*
X9553334Y-9276810D02*
X9553334Y-9324429D01*
X9553334Y-9324429D02*
X9543810Y-9343476D01*
X9543810Y-9343476D02*
X9534286Y-9353000D01*
X9534286Y-9353000D02*
X9515238Y-9362524D01*
X9515238Y-9362524D02*
X9458095Y-9362524D01*
X9458095Y-9362524D02*
X9439048Y-9353000D01*
X9439048Y-9353000D02*
X9429524Y-9343476D01*
X9620000Y-9162524D02*
X9753334Y-9162524D01*
X9753334Y-9162524D02*
X9667619Y-9362524D01*
X9915238Y-9229190D02*
X9915238Y-9362524D01*
X9867619Y-9153000D02*
X9820000Y-9295857D01*
X9820000Y-9295857D02*
X9943810Y-9295857D01*
X10010476Y-9162524D02*
X10010476Y-9200619D01*
X10086667Y-9162524D02*
X10086667Y-9200619D01*
X10381905Y-9438714D02*
X10372381Y-9429190D01*
X10372381Y-9429190D02*
X10353334Y-9400619D01*
X10353334Y-9400619D02*
X10343810Y-9381571D01*
X10343810Y-9381571D02*
X10334286Y-9353000D01*
X10334286Y-9353000D02*
X10324762Y-9305381D01*
X10324762Y-9305381D02*
X10324762Y-9267286D01*
X10324762Y-9267286D02*
X10334286Y-9219667D01*
X10334286Y-9219667D02*
X10343810Y-9191095D01*
X10343810Y-9191095D02*
X10353334Y-9172048D01*
X10353334Y-9172048D02*
X10372381Y-9143476D01*
X10372381Y-9143476D02*
X10381905Y-9133952D01*
X10562857Y-9362524D02*
X10448572Y-9362524D01*
X10505715Y-9362524D02*
X10505715Y-9162524D01*
X10505715Y-9162524D02*
X10486667Y-9191095D01*
X10486667Y-9191095D02*
X10467619Y-9210143D01*
X10467619Y-9210143D02*
X10448572Y-9219667D01*
X10686667Y-9162524D02*
X10705715Y-9162524D01*
X10705715Y-9162524D02*
X10724762Y-9172048D01*
X10724762Y-9172048D02*
X10734286Y-9181571D01*
X10734286Y-9181571D02*
X10743810Y-9200619D01*
X10743810Y-9200619D02*
X10753334Y-9238714D01*
X10753334Y-9238714D02*
X10753334Y-9286333D01*
X10753334Y-9286333D02*
X10743810Y-9324429D01*
X10743810Y-9324429D02*
X10734286Y-9343476D01*
X10734286Y-9343476D02*
X10724762Y-9353000D01*
X10724762Y-9353000D02*
X10705715Y-9362524D01*
X10705715Y-9362524D02*
X10686667Y-9362524D01*
X10686667Y-9362524D02*
X10667619Y-9353000D01*
X10667619Y-9353000D02*
X10658096Y-9343476D01*
X10658096Y-9343476D02*
X10648572Y-9324429D01*
X10648572Y-9324429D02*
X10639048Y-9286333D01*
X10639048Y-9286333D02*
X10639048Y-9238714D01*
X10639048Y-9238714D02*
X10648572Y-9200619D01*
X10648572Y-9200619D02*
X10658096Y-9181571D01*
X10658096Y-9181571D02*
X10667619Y-9172048D01*
X10667619Y-9172048D02*
X10686667Y-9162524D01*
X10991429Y-9362524D02*
X10991429Y-9162524D01*
X11077143Y-9362524D02*
X11077143Y-9257762D01*
X11077143Y-9257762D02*
X11067619Y-9238714D01*
X11067619Y-9238714D02*
X11048572Y-9229190D01*
X11048572Y-9229190D02*
X11020000Y-9229190D01*
X11020000Y-9229190D02*
X11000953Y-9238714D01*
X11000953Y-9238714D02*
X10991429Y-9248238D01*
X11200953Y-9362524D02*
X11181905Y-9353000D01*
X11181905Y-9353000D02*
X11172381Y-9343476D01*
X11172381Y-9343476D02*
X11162858Y-9324429D01*
X11162858Y-9324429D02*
X11162858Y-9267286D01*
X11162858Y-9267286D02*
X11172381Y-9248238D01*
X11172381Y-9248238D02*
X11181905Y-9238714D01*
X11181905Y-9238714D02*
X11200953Y-9229190D01*
X11200953Y-9229190D02*
X11229524Y-9229190D01*
X11229524Y-9229190D02*
X11248572Y-9238714D01*
X11248572Y-9238714D02*
X11258096Y-9248238D01*
X11258096Y-9248238D02*
X11267619Y-9267286D01*
X11267619Y-9267286D02*
X11267619Y-9324429D01*
X11267619Y-9324429D02*
X11258096Y-9343476D01*
X11258096Y-9343476D02*
X11248572Y-9353000D01*
X11248572Y-9353000D02*
X11229524Y-9362524D01*
X11229524Y-9362524D02*
X11200953Y-9362524D01*
X11381905Y-9362524D02*
X11362857Y-9353000D01*
X11362857Y-9353000D02*
X11353334Y-9333952D01*
X11353334Y-9333952D02*
X11353334Y-9162524D01*
X11534286Y-9353000D02*
X11515238Y-9362524D01*
X11515238Y-9362524D02*
X11477143Y-9362524D01*
X11477143Y-9362524D02*
X11458096Y-9353000D01*
X11458096Y-9353000D02*
X11448572Y-9333952D01*
X11448572Y-9333952D02*
X11448572Y-9257762D01*
X11448572Y-9257762D02*
X11458096Y-9238714D01*
X11458096Y-9238714D02*
X11477143Y-9229190D01*
X11477143Y-9229190D02*
X11515238Y-9229190D01*
X11515238Y-9229190D02*
X11534286Y-9238714D01*
X11534286Y-9238714D02*
X11543810Y-9257762D01*
X11543810Y-9257762D02*
X11543810Y-9276810D01*
X11543810Y-9276810D02*
X11448572Y-9295857D01*
X11620000Y-9353000D02*
X11639048Y-9362524D01*
X11639048Y-9362524D02*
X11677143Y-9362524D01*
X11677143Y-9362524D02*
X11696191Y-9353000D01*
X11696191Y-9353000D02*
X11705715Y-9333952D01*
X11705715Y-9333952D02*
X11705715Y-9324429D01*
X11705715Y-9324429D02*
X11696191Y-9305381D01*
X11696191Y-9305381D02*
X11677143Y-9295857D01*
X11677143Y-9295857D02*
X11648572Y-9295857D01*
X11648572Y-9295857D02*
X11629524Y-9286333D01*
X11629524Y-9286333D02*
X11620000Y-9267286D01*
X11620000Y-9267286D02*
X11620000Y-9257762D01*
X11620000Y-9257762D02*
X11629524Y-9238714D01*
X11629524Y-9238714D02*
X11648572Y-9229190D01*
X11648572Y-9229190D02*
X11677143Y-9229190D01*
X11677143Y-9229190D02*
X11696191Y-9238714D01*
X11772381Y-9438714D02*
X11781905Y-9429190D01*
X11781905Y-9429190D02*
X11800953Y-9400619D01*
X11800953Y-9400619D02*
X11810477Y-9381571D01*
X11810477Y-9381571D02*
X11820000Y-9353000D01*
X11820000Y-9353000D02*
X11829524Y-9305381D01*
X11829524Y-9305381D02*
X11829524Y-9267286D01*
X11829524Y-9267286D02*
X11820000Y-9219667D01*
X11820000Y-9219667D02*
X11810477Y-9191095D01*
X11810477Y-9191095D02*
X11800953Y-9172048D01*
X11800953Y-9172048D02*
X11781905Y-9143476D01*
X11781905Y-9143476D02*
X11772381Y-9133952D01*
D12*
X6820000Y-9534000D02*
G75*
G03*
X6820000Y-9534000I-50000J0D01*
G01*
D10*
X7172381Y-9626524D02*
X7058095Y-9626524D01*
X7115238Y-9626524D02*
X7115238Y-9426524D01*
X7115238Y-9426524D02*
X7096190Y-9455095D01*
X7096190Y-9455095D02*
X7077143Y-9474143D01*
X7077143Y-9474143D02*
X7058095Y-9483667D01*
X7258095Y-9607476D02*
X7267619Y-9617000D01*
X7267619Y-9617000D02*
X7258095Y-9626524D01*
X7258095Y-9626524D02*
X7248571Y-9617000D01*
X7248571Y-9617000D02*
X7258095Y-9607476D01*
X7258095Y-9607476D02*
X7258095Y-9626524D01*
X7391428Y-9426524D02*
X7410476Y-9426524D01*
X7410476Y-9426524D02*
X7429524Y-9436048D01*
X7429524Y-9436048D02*
X7439048Y-9445571D01*
X7439048Y-9445571D02*
X7448571Y-9464619D01*
X7448571Y-9464619D02*
X7458095Y-9502714D01*
X7458095Y-9502714D02*
X7458095Y-9550333D01*
X7458095Y-9550333D02*
X7448571Y-9588429D01*
X7448571Y-9588429D02*
X7439048Y-9607476D01*
X7439048Y-9607476D02*
X7429524Y-9617000D01*
X7429524Y-9617000D02*
X7410476Y-9626524D01*
X7410476Y-9626524D02*
X7391428Y-9626524D01*
X7391428Y-9626524D02*
X7372381Y-9617000D01*
X7372381Y-9617000D02*
X7362857Y-9607476D01*
X7362857Y-9607476D02*
X7353333Y-9588429D01*
X7353333Y-9588429D02*
X7343809Y-9550333D01*
X7343809Y-9550333D02*
X7343809Y-9502714D01*
X7343809Y-9502714D02*
X7353333Y-9464619D01*
X7353333Y-9464619D02*
X7362857Y-9445571D01*
X7362857Y-9445571D02*
X7372381Y-9436048D01*
X7372381Y-9436048D02*
X7391428Y-9426524D01*
X7581905Y-9426524D02*
X7600952Y-9426524D01*
X7600952Y-9426524D02*
X7620000Y-9436048D01*
X7620000Y-9436048D02*
X7629524Y-9445571D01*
X7629524Y-9445571D02*
X7639048Y-9464619D01*
X7639048Y-9464619D02*
X7648571Y-9502714D01*
X7648571Y-9502714D02*
X7648571Y-9550333D01*
X7648571Y-9550333D02*
X7639048Y-9588429D01*
X7639048Y-9588429D02*
X7629524Y-9607476D01*
X7629524Y-9607476D02*
X7620000Y-9617000D01*
X7620000Y-9617000D02*
X7600952Y-9626524D01*
X7600952Y-9626524D02*
X7581905Y-9626524D01*
X7581905Y-9626524D02*
X7562857Y-9617000D01*
X7562857Y-9617000D02*
X7553333Y-9607476D01*
X7553333Y-9607476D02*
X7543809Y-9588429D01*
X7543809Y-9588429D02*
X7534286Y-9550333D01*
X7534286Y-9550333D02*
X7534286Y-9502714D01*
X7534286Y-9502714D02*
X7543809Y-9464619D01*
X7543809Y-9464619D02*
X7553333Y-9445571D01*
X7553333Y-9445571D02*
X7562857Y-9436048D01*
X7562857Y-9436048D02*
X7581905Y-9426524D01*
X7772381Y-9426524D02*
X7791429Y-9426524D01*
X7791429Y-9426524D02*
X7810476Y-9436048D01*
X7810476Y-9436048D02*
X7820000Y-9445571D01*
X7820000Y-9445571D02*
X7829524Y-9464619D01*
X7829524Y-9464619D02*
X7839048Y-9502714D01*
X7839048Y-9502714D02*
X7839048Y-9550333D01*
X7839048Y-9550333D02*
X7829524Y-9588429D01*
X7829524Y-9588429D02*
X7820000Y-9607476D01*
X7820000Y-9607476D02*
X7810476Y-9617000D01*
X7810476Y-9617000D02*
X7791429Y-9626524D01*
X7791429Y-9626524D02*
X7772381Y-9626524D01*
X7772381Y-9626524D02*
X7753333Y-9617000D01*
X7753333Y-9617000D02*
X7743809Y-9607476D01*
X7743809Y-9607476D02*
X7734286Y-9588429D01*
X7734286Y-9588429D02*
X7724762Y-9550333D01*
X7724762Y-9550333D02*
X7724762Y-9502714D01*
X7724762Y-9502714D02*
X7734286Y-9464619D01*
X7734286Y-9464619D02*
X7743809Y-9445571D01*
X7743809Y-9445571D02*
X7753333Y-9436048D01*
X7753333Y-9436048D02*
X7772381Y-9426524D01*
X7924762Y-9626524D02*
X7924762Y-9493190D01*
X7924762Y-9512238D02*
X7934286Y-9502714D01*
X7934286Y-9502714D02*
X7953333Y-9493190D01*
X7953333Y-9493190D02*
X7981905Y-9493190D01*
X7981905Y-9493190D02*
X8000952Y-9502714D01*
X8000952Y-9502714D02*
X8010476Y-9521762D01*
X8010476Y-9521762D02*
X8010476Y-9626524D01*
X8010476Y-9521762D02*
X8020000Y-9502714D01*
X8020000Y-9502714D02*
X8039048Y-9493190D01*
X8039048Y-9493190D02*
X8067619Y-9493190D01*
X8067619Y-9493190D02*
X8086667Y-9502714D01*
X8086667Y-9502714D02*
X8096190Y-9521762D01*
X8096190Y-9521762D02*
X8096190Y-9626524D01*
X8191429Y-9626524D02*
X8191429Y-9493190D01*
X8191429Y-9512238D02*
X8200952Y-9502714D01*
X8200952Y-9502714D02*
X8220000Y-9493190D01*
X8220000Y-9493190D02*
X8248571Y-9493190D01*
X8248571Y-9493190D02*
X8267619Y-9502714D01*
X8267619Y-9502714D02*
X8277143Y-9521762D01*
X8277143Y-9521762D02*
X8277143Y-9626524D01*
X8277143Y-9521762D02*
X8286667Y-9502714D01*
X8286667Y-9502714D02*
X8305714Y-9493190D01*
X8305714Y-9493190D02*
X8334286Y-9493190D01*
X8334286Y-9493190D02*
X8353333Y-9502714D01*
X8353333Y-9502714D02*
X8362857Y-9521762D01*
X8362857Y-9521762D02*
X8362857Y-9626524D01*
X8753333Y-9417000D02*
X8581905Y-9674143D01*
X9010476Y-9426524D02*
X9029524Y-9426524D01*
X9029524Y-9426524D02*
X9048572Y-9436048D01*
X9048572Y-9436048D02*
X9058095Y-9445571D01*
X9058095Y-9445571D02*
X9067619Y-9464619D01*
X9067619Y-9464619D02*
X9077143Y-9502714D01*
X9077143Y-9502714D02*
X9077143Y-9550333D01*
X9077143Y-9550333D02*
X9067619Y-9588429D01*
X9067619Y-9588429D02*
X9058095Y-9607476D01*
X9058095Y-9607476D02*
X9048572Y-9617000D01*
X9048572Y-9617000D02*
X9029524Y-9626524D01*
X9029524Y-9626524D02*
X9010476Y-9626524D01*
X9010476Y-9626524D02*
X8991429Y-9617000D01*
X8991429Y-9617000D02*
X8981905Y-9607476D01*
X8981905Y-9607476D02*
X8972381Y-9588429D01*
X8972381Y-9588429D02*
X8962857Y-9550333D01*
X8962857Y-9550333D02*
X8962857Y-9502714D01*
X8962857Y-9502714D02*
X8972381Y-9464619D01*
X8972381Y-9464619D02*
X8981905Y-9445571D01*
X8981905Y-9445571D02*
X8991429Y-9436048D01*
X8991429Y-9436048D02*
X9010476Y-9426524D01*
X9162857Y-9607476D02*
X9172381Y-9617000D01*
X9172381Y-9617000D02*
X9162857Y-9626524D01*
X9162857Y-9626524D02*
X9153334Y-9617000D01*
X9153334Y-9617000D02*
X9162857Y-9607476D01*
X9162857Y-9607476D02*
X9162857Y-9626524D01*
X9296191Y-9426524D02*
X9315238Y-9426524D01*
X9315238Y-9426524D02*
X9334286Y-9436048D01*
X9334286Y-9436048D02*
X9343810Y-9445571D01*
X9343810Y-9445571D02*
X9353334Y-9464619D01*
X9353334Y-9464619D02*
X9362857Y-9502714D01*
X9362857Y-9502714D02*
X9362857Y-9550333D01*
X9362857Y-9550333D02*
X9353334Y-9588429D01*
X9353334Y-9588429D02*
X9343810Y-9607476D01*
X9343810Y-9607476D02*
X9334286Y-9617000D01*
X9334286Y-9617000D02*
X9315238Y-9626524D01*
X9315238Y-9626524D02*
X9296191Y-9626524D01*
X9296191Y-9626524D02*
X9277143Y-9617000D01*
X9277143Y-9617000D02*
X9267619Y-9607476D01*
X9267619Y-9607476D02*
X9258095Y-9588429D01*
X9258095Y-9588429D02*
X9248572Y-9550333D01*
X9248572Y-9550333D02*
X9248572Y-9502714D01*
X9248572Y-9502714D02*
X9258095Y-9464619D01*
X9258095Y-9464619D02*
X9267619Y-9445571D01*
X9267619Y-9445571D02*
X9277143Y-9436048D01*
X9277143Y-9436048D02*
X9296191Y-9426524D01*
X9429524Y-9426524D02*
X9553334Y-9426524D01*
X9553334Y-9426524D02*
X9486667Y-9502714D01*
X9486667Y-9502714D02*
X9515238Y-9502714D01*
X9515238Y-9502714D02*
X9534286Y-9512238D01*
X9534286Y-9512238D02*
X9543810Y-9521762D01*
X9543810Y-9521762D02*
X9553334Y-9540810D01*
X9553334Y-9540810D02*
X9553334Y-9588429D01*
X9553334Y-9588429D02*
X9543810Y-9607476D01*
X9543810Y-9607476D02*
X9534286Y-9617000D01*
X9534286Y-9617000D02*
X9515238Y-9626524D01*
X9515238Y-9626524D02*
X9458095Y-9626524D01*
X9458095Y-9626524D02*
X9439048Y-9617000D01*
X9439048Y-9617000D02*
X9429524Y-9607476D01*
X9648572Y-9626524D02*
X9686667Y-9626524D01*
X9686667Y-9626524D02*
X9705715Y-9617000D01*
X9705715Y-9617000D02*
X9715238Y-9607476D01*
X9715238Y-9607476D02*
X9734286Y-9578905D01*
X9734286Y-9578905D02*
X9743810Y-9540810D01*
X9743810Y-9540810D02*
X9743810Y-9464619D01*
X9743810Y-9464619D02*
X9734286Y-9445571D01*
X9734286Y-9445571D02*
X9724762Y-9436048D01*
X9724762Y-9436048D02*
X9705715Y-9426524D01*
X9705715Y-9426524D02*
X9667619Y-9426524D01*
X9667619Y-9426524D02*
X9648572Y-9436048D01*
X9648572Y-9436048D02*
X9639048Y-9445571D01*
X9639048Y-9445571D02*
X9629524Y-9464619D01*
X9629524Y-9464619D02*
X9629524Y-9512238D01*
X9629524Y-9512238D02*
X9639048Y-9531286D01*
X9639048Y-9531286D02*
X9648572Y-9540810D01*
X9648572Y-9540810D02*
X9667619Y-9550333D01*
X9667619Y-9550333D02*
X9705715Y-9550333D01*
X9705715Y-9550333D02*
X9724762Y-9540810D01*
X9724762Y-9540810D02*
X9734286Y-9531286D01*
X9734286Y-9531286D02*
X9743810Y-9512238D01*
X9915238Y-9493190D02*
X9915238Y-9626524D01*
X9867619Y-9417000D02*
X9820000Y-9559857D01*
X9820000Y-9559857D02*
X9943810Y-9559857D01*
X10010476Y-9426524D02*
X10010476Y-9464619D01*
X10086667Y-9426524D02*
X10086667Y-9464619D01*
X10381905Y-9702714D02*
X10372381Y-9693190D01*
X10372381Y-9693190D02*
X10353334Y-9664619D01*
X10353334Y-9664619D02*
X10343810Y-9645571D01*
X10343810Y-9645571D02*
X10334286Y-9617000D01*
X10334286Y-9617000D02*
X10324762Y-9569381D01*
X10324762Y-9569381D02*
X10324762Y-9531286D01*
X10324762Y-9531286D02*
X10334286Y-9483667D01*
X10334286Y-9483667D02*
X10343810Y-9455095D01*
X10343810Y-9455095D02*
X10353334Y-9436048D01*
X10353334Y-9436048D02*
X10372381Y-9407476D01*
X10372381Y-9407476D02*
X10381905Y-9397952D01*
X10562857Y-9626524D02*
X10448572Y-9626524D01*
X10505715Y-9626524D02*
X10505715Y-9426524D01*
X10505715Y-9426524D02*
X10486667Y-9455095D01*
X10486667Y-9455095D02*
X10467619Y-9474143D01*
X10467619Y-9474143D02*
X10448572Y-9483667D01*
X10639048Y-9445571D02*
X10648572Y-9436048D01*
X10648572Y-9436048D02*
X10667619Y-9426524D01*
X10667619Y-9426524D02*
X10715238Y-9426524D01*
X10715238Y-9426524D02*
X10734286Y-9436048D01*
X10734286Y-9436048D02*
X10743810Y-9445571D01*
X10743810Y-9445571D02*
X10753334Y-9464619D01*
X10753334Y-9464619D02*
X10753334Y-9483667D01*
X10753334Y-9483667D02*
X10743810Y-9512238D01*
X10743810Y-9512238D02*
X10629524Y-9626524D01*
X10629524Y-9626524D02*
X10753334Y-9626524D01*
X10991429Y-9626524D02*
X10991429Y-9426524D01*
X11077143Y-9626524D02*
X11077143Y-9521762D01*
X11077143Y-9521762D02*
X11067619Y-9502714D01*
X11067619Y-9502714D02*
X11048572Y-9493190D01*
X11048572Y-9493190D02*
X11020000Y-9493190D01*
X11020000Y-9493190D02*
X11000953Y-9502714D01*
X11000953Y-9502714D02*
X10991429Y-9512238D01*
X11200953Y-9626524D02*
X11181905Y-9617000D01*
X11181905Y-9617000D02*
X11172381Y-9607476D01*
X11172381Y-9607476D02*
X11162858Y-9588429D01*
X11162858Y-9588429D02*
X11162858Y-9531286D01*
X11162858Y-9531286D02*
X11172381Y-9512238D01*
X11172381Y-9512238D02*
X11181905Y-9502714D01*
X11181905Y-9502714D02*
X11200953Y-9493190D01*
X11200953Y-9493190D02*
X11229524Y-9493190D01*
X11229524Y-9493190D02*
X11248572Y-9502714D01*
X11248572Y-9502714D02*
X11258096Y-9512238D01*
X11258096Y-9512238D02*
X11267619Y-9531286D01*
X11267619Y-9531286D02*
X11267619Y-9588429D01*
X11267619Y-9588429D02*
X11258096Y-9607476D01*
X11258096Y-9607476D02*
X11248572Y-9617000D01*
X11248572Y-9617000D02*
X11229524Y-9626524D01*
X11229524Y-9626524D02*
X11200953Y-9626524D01*
X11381905Y-9626524D02*
X11362857Y-9617000D01*
X11362857Y-9617000D02*
X11353334Y-9597952D01*
X11353334Y-9597952D02*
X11353334Y-9426524D01*
X11534286Y-9617000D02*
X11515238Y-9626524D01*
X11515238Y-9626524D02*
X11477143Y-9626524D01*
X11477143Y-9626524D02*
X11458096Y-9617000D01*
X11458096Y-9617000D02*
X11448572Y-9597952D01*
X11448572Y-9597952D02*
X11448572Y-9521762D01*
X11448572Y-9521762D02*
X11458096Y-9502714D01*
X11458096Y-9502714D02*
X11477143Y-9493190D01*
X11477143Y-9493190D02*
X11515238Y-9493190D01*
X11515238Y-9493190D02*
X11534286Y-9502714D01*
X11534286Y-9502714D02*
X11543810Y-9521762D01*
X11543810Y-9521762D02*
X11543810Y-9540810D01*
X11543810Y-9540810D02*
X11448572Y-9559857D01*
X11620000Y-9617000D02*
X11639048Y-9626524D01*
X11639048Y-9626524D02*
X11677143Y-9626524D01*
X11677143Y-9626524D02*
X11696191Y-9617000D01*
X11696191Y-9617000D02*
X11705715Y-9597952D01*
X11705715Y-9597952D02*
X11705715Y-9588429D01*
X11705715Y-9588429D02*
X11696191Y-9569381D01*
X11696191Y-9569381D02*
X11677143Y-9559857D01*
X11677143Y-9559857D02*
X11648572Y-9559857D01*
X11648572Y-9559857D02*
X11629524Y-9550333D01*
X11629524Y-9550333D02*
X11620000Y-9531286D01*
X11620000Y-9531286D02*
X11620000Y-9521762D01*
X11620000Y-9521762D02*
X11629524Y-9502714D01*
X11629524Y-9502714D02*
X11648572Y-9493190D01*
X11648572Y-9493190D02*
X11677143Y-9493190D01*
X11677143Y-9493190D02*
X11696191Y-9502714D01*
X11772381Y-9702714D02*
X11781905Y-9693190D01*
X11781905Y-9693190D02*
X11800953Y-9664619D01*
X11800953Y-9664619D02*
X11810477Y-9645571D01*
X11810477Y-9645571D02*
X11820000Y-9617000D01*
X11820000Y-9617000D02*
X11829524Y-9569381D01*
X11829524Y-9569381D02*
X11829524Y-9531286D01*
X11829524Y-9531286D02*
X11820000Y-9483667D01*
X11820000Y-9483667D02*
X11810477Y-9455095D01*
X11810477Y-9455095D02*
X11800953Y-9436048D01*
X11800953Y-9436048D02*
X11781905Y-9407476D01*
X11781905Y-9407476D02*
X11772381Y-9397952D01*
D13*
X6765000Y-9743000D02*
X6765000Y-9853000D01*
X6710000Y-9798000D02*
X6820000Y-9798000D01*
D10*
X7172381Y-9890524D02*
X7058095Y-9890524D01*
X7115238Y-9890524D02*
X7115238Y-9690524D01*
X7115238Y-9690524D02*
X7096190Y-9719095D01*
X7096190Y-9719095D02*
X7077143Y-9738143D01*
X7077143Y-9738143D02*
X7058095Y-9747667D01*
X7258095Y-9871476D02*
X7267619Y-9881000D01*
X7267619Y-9881000D02*
X7258095Y-9890524D01*
X7258095Y-9890524D02*
X7248571Y-9881000D01*
X7248571Y-9881000D02*
X7258095Y-9871476D01*
X7258095Y-9871476D02*
X7258095Y-9890524D01*
X7458095Y-9890524D02*
X7343809Y-9890524D01*
X7400952Y-9890524D02*
X7400952Y-9690524D01*
X7400952Y-9690524D02*
X7381905Y-9719095D01*
X7381905Y-9719095D02*
X7362857Y-9738143D01*
X7362857Y-9738143D02*
X7343809Y-9747667D01*
X7581905Y-9690524D02*
X7600952Y-9690524D01*
X7600952Y-9690524D02*
X7620000Y-9700048D01*
X7620000Y-9700048D02*
X7629524Y-9709571D01*
X7629524Y-9709571D02*
X7639048Y-9728619D01*
X7639048Y-9728619D02*
X7648571Y-9766714D01*
X7648571Y-9766714D02*
X7648571Y-9814333D01*
X7648571Y-9814333D02*
X7639048Y-9852429D01*
X7639048Y-9852429D02*
X7629524Y-9871476D01*
X7629524Y-9871476D02*
X7620000Y-9881000D01*
X7620000Y-9881000D02*
X7600952Y-9890524D01*
X7600952Y-9890524D02*
X7581905Y-9890524D01*
X7581905Y-9890524D02*
X7562857Y-9881000D01*
X7562857Y-9881000D02*
X7553333Y-9871476D01*
X7553333Y-9871476D02*
X7543809Y-9852429D01*
X7543809Y-9852429D02*
X7534286Y-9814333D01*
X7534286Y-9814333D02*
X7534286Y-9766714D01*
X7534286Y-9766714D02*
X7543809Y-9728619D01*
X7543809Y-9728619D02*
X7553333Y-9709571D01*
X7553333Y-9709571D02*
X7562857Y-9700048D01*
X7562857Y-9700048D02*
X7581905Y-9690524D01*
X7772381Y-9690524D02*
X7791429Y-9690524D01*
X7791429Y-9690524D02*
X7810476Y-9700048D01*
X7810476Y-9700048D02*
X7820000Y-9709571D01*
X7820000Y-9709571D02*
X7829524Y-9728619D01*
X7829524Y-9728619D02*
X7839048Y-9766714D01*
X7839048Y-9766714D02*
X7839048Y-9814333D01*
X7839048Y-9814333D02*
X7829524Y-9852429D01*
X7829524Y-9852429D02*
X7820000Y-9871476D01*
X7820000Y-9871476D02*
X7810476Y-9881000D01*
X7810476Y-9881000D02*
X7791429Y-9890524D01*
X7791429Y-9890524D02*
X7772381Y-9890524D01*
X7772381Y-9890524D02*
X7753333Y-9881000D01*
X7753333Y-9881000D02*
X7743809Y-9871476D01*
X7743809Y-9871476D02*
X7734286Y-9852429D01*
X7734286Y-9852429D02*
X7724762Y-9814333D01*
X7724762Y-9814333D02*
X7724762Y-9766714D01*
X7724762Y-9766714D02*
X7734286Y-9728619D01*
X7734286Y-9728619D02*
X7743809Y-9709571D01*
X7743809Y-9709571D02*
X7753333Y-9700048D01*
X7753333Y-9700048D02*
X7772381Y-9690524D01*
X7924762Y-9890524D02*
X7924762Y-9757190D01*
X7924762Y-9776238D02*
X7934286Y-9766714D01*
X7934286Y-9766714D02*
X7953333Y-9757190D01*
X7953333Y-9757190D02*
X7981905Y-9757190D01*
X7981905Y-9757190D02*
X8000952Y-9766714D01*
X8000952Y-9766714D02*
X8010476Y-9785762D01*
X8010476Y-9785762D02*
X8010476Y-9890524D01*
X8010476Y-9785762D02*
X8020000Y-9766714D01*
X8020000Y-9766714D02*
X8039048Y-9757190D01*
X8039048Y-9757190D02*
X8067619Y-9757190D01*
X8067619Y-9757190D02*
X8086667Y-9766714D01*
X8086667Y-9766714D02*
X8096190Y-9785762D01*
X8096190Y-9785762D02*
X8096190Y-9890524D01*
X8191429Y-9890524D02*
X8191429Y-9757190D01*
X8191429Y-9776238D02*
X8200952Y-9766714D01*
X8200952Y-9766714D02*
X8220000Y-9757190D01*
X8220000Y-9757190D02*
X8248571Y-9757190D01*
X8248571Y-9757190D02*
X8267619Y-9766714D01*
X8267619Y-9766714D02*
X8277143Y-9785762D01*
X8277143Y-9785762D02*
X8277143Y-9890524D01*
X8277143Y-9785762D02*
X8286667Y-9766714D01*
X8286667Y-9766714D02*
X8305714Y-9757190D01*
X8305714Y-9757190D02*
X8334286Y-9757190D01*
X8334286Y-9757190D02*
X8353333Y-9766714D01*
X8353333Y-9766714D02*
X8362857Y-9785762D01*
X8362857Y-9785762D02*
X8362857Y-9890524D01*
X8753333Y-9681000D02*
X8581905Y-9938143D01*
X9010476Y-9690524D02*
X9029524Y-9690524D01*
X9029524Y-9690524D02*
X9048572Y-9700048D01*
X9048572Y-9700048D02*
X9058095Y-9709571D01*
X9058095Y-9709571D02*
X9067619Y-9728619D01*
X9067619Y-9728619D02*
X9077143Y-9766714D01*
X9077143Y-9766714D02*
X9077143Y-9814333D01*
X9077143Y-9814333D02*
X9067619Y-9852429D01*
X9067619Y-9852429D02*
X9058095Y-9871476D01*
X9058095Y-9871476D02*
X9048572Y-9881000D01*
X9048572Y-9881000D02*
X9029524Y-9890524D01*
X9029524Y-9890524D02*
X9010476Y-9890524D01*
X9010476Y-9890524D02*
X8991429Y-9881000D01*
X8991429Y-9881000D02*
X8981905Y-9871476D01*
X8981905Y-9871476D02*
X8972381Y-9852429D01*
X8972381Y-9852429D02*
X8962857Y-9814333D01*
X8962857Y-9814333D02*
X8962857Y-9766714D01*
X8962857Y-9766714D02*
X8972381Y-9728619D01*
X8972381Y-9728619D02*
X8981905Y-9709571D01*
X8981905Y-9709571D02*
X8991429Y-9700048D01*
X8991429Y-9700048D02*
X9010476Y-9690524D01*
X9162857Y-9871476D02*
X9172381Y-9881000D01*
X9172381Y-9881000D02*
X9162857Y-9890524D01*
X9162857Y-9890524D02*
X9153334Y-9881000D01*
X9153334Y-9881000D02*
X9162857Y-9871476D01*
X9162857Y-9871476D02*
X9162857Y-9890524D01*
X9296191Y-9690524D02*
X9315238Y-9690524D01*
X9315238Y-9690524D02*
X9334286Y-9700048D01*
X9334286Y-9700048D02*
X9343810Y-9709571D01*
X9343810Y-9709571D02*
X9353334Y-9728619D01*
X9353334Y-9728619D02*
X9362857Y-9766714D01*
X9362857Y-9766714D02*
X9362857Y-9814333D01*
X9362857Y-9814333D02*
X9353334Y-9852429D01*
X9353334Y-9852429D02*
X9343810Y-9871476D01*
X9343810Y-9871476D02*
X9334286Y-9881000D01*
X9334286Y-9881000D02*
X9315238Y-9890524D01*
X9315238Y-9890524D02*
X9296191Y-9890524D01*
X9296191Y-9890524D02*
X9277143Y-9881000D01*
X9277143Y-9881000D02*
X9267619Y-9871476D01*
X9267619Y-9871476D02*
X9258095Y-9852429D01*
X9258095Y-9852429D02*
X9248572Y-9814333D01*
X9248572Y-9814333D02*
X9248572Y-9766714D01*
X9248572Y-9766714D02*
X9258095Y-9728619D01*
X9258095Y-9728619D02*
X9267619Y-9709571D01*
X9267619Y-9709571D02*
X9277143Y-9700048D01*
X9277143Y-9700048D02*
X9296191Y-9690524D01*
X9534286Y-9757190D02*
X9534286Y-9890524D01*
X9486667Y-9681000D02*
X9439048Y-9823857D01*
X9439048Y-9823857D02*
X9562857Y-9823857D01*
X9620000Y-9690524D02*
X9743810Y-9690524D01*
X9743810Y-9690524D02*
X9677143Y-9766714D01*
X9677143Y-9766714D02*
X9705715Y-9766714D01*
X9705715Y-9766714D02*
X9724762Y-9776238D01*
X9724762Y-9776238D02*
X9734286Y-9785762D01*
X9734286Y-9785762D02*
X9743810Y-9804810D01*
X9743810Y-9804810D02*
X9743810Y-9852429D01*
X9743810Y-9852429D02*
X9734286Y-9871476D01*
X9734286Y-9871476D02*
X9724762Y-9881000D01*
X9724762Y-9881000D02*
X9705715Y-9890524D01*
X9705715Y-9890524D02*
X9648572Y-9890524D01*
X9648572Y-9890524D02*
X9629524Y-9881000D01*
X9629524Y-9881000D02*
X9620000Y-9871476D01*
X9810476Y-9690524D02*
X9934286Y-9690524D01*
X9934286Y-9690524D02*
X9867619Y-9766714D01*
X9867619Y-9766714D02*
X9896191Y-9766714D01*
X9896191Y-9766714D02*
X9915238Y-9776238D01*
X9915238Y-9776238D02*
X9924762Y-9785762D01*
X9924762Y-9785762D02*
X9934286Y-9804810D01*
X9934286Y-9804810D02*
X9934286Y-9852429D01*
X9934286Y-9852429D02*
X9924762Y-9871476D01*
X9924762Y-9871476D02*
X9915238Y-9881000D01*
X9915238Y-9881000D02*
X9896191Y-9890524D01*
X9896191Y-9890524D02*
X9839048Y-9890524D01*
X9839048Y-9890524D02*
X9820000Y-9881000D01*
X9820000Y-9881000D02*
X9810476Y-9871476D01*
X10010476Y-9690524D02*
X10010476Y-9728619D01*
X10086667Y-9690524D02*
X10086667Y-9728619D01*
X10381905Y-9966714D02*
X10372381Y-9957190D01*
X10372381Y-9957190D02*
X10353334Y-9928619D01*
X10353334Y-9928619D02*
X10343810Y-9909571D01*
X10343810Y-9909571D02*
X10334286Y-9881000D01*
X10334286Y-9881000D02*
X10324762Y-9833381D01*
X10324762Y-9833381D02*
X10324762Y-9795286D01*
X10324762Y-9795286D02*
X10334286Y-9747667D01*
X10334286Y-9747667D02*
X10343810Y-9719095D01*
X10343810Y-9719095D02*
X10353334Y-9700048D01*
X10353334Y-9700048D02*
X10372381Y-9671476D01*
X10372381Y-9671476D02*
X10381905Y-9661952D01*
X10448572Y-9709571D02*
X10458096Y-9700048D01*
X10458096Y-9700048D02*
X10477143Y-9690524D01*
X10477143Y-9690524D02*
X10524762Y-9690524D01*
X10524762Y-9690524D02*
X10543810Y-9700048D01*
X10543810Y-9700048D02*
X10553334Y-9709571D01*
X10553334Y-9709571D02*
X10562857Y-9728619D01*
X10562857Y-9728619D02*
X10562857Y-9747667D01*
X10562857Y-9747667D02*
X10553334Y-9776238D01*
X10553334Y-9776238D02*
X10439048Y-9890524D01*
X10439048Y-9890524D02*
X10562857Y-9890524D01*
X10734286Y-9757190D02*
X10734286Y-9890524D01*
X10686667Y-9681000D02*
X10639048Y-9823857D01*
X10639048Y-9823857D02*
X10762857Y-9823857D01*
X10991429Y-9890524D02*
X10991429Y-9690524D01*
X11077143Y-9890524D02*
X11077143Y-9785762D01*
X11077143Y-9785762D02*
X11067619Y-9766714D01*
X11067619Y-9766714D02*
X11048572Y-9757190D01*
X11048572Y-9757190D02*
X11020000Y-9757190D01*
X11020000Y-9757190D02*
X11000953Y-9766714D01*
X11000953Y-9766714D02*
X10991429Y-9776238D01*
X11200953Y-9890524D02*
X11181905Y-9881000D01*
X11181905Y-9881000D02*
X11172381Y-9871476D01*
X11172381Y-9871476D02*
X11162858Y-9852429D01*
X11162858Y-9852429D02*
X11162858Y-9795286D01*
X11162858Y-9795286D02*
X11172381Y-9776238D01*
X11172381Y-9776238D02*
X11181905Y-9766714D01*
X11181905Y-9766714D02*
X11200953Y-9757190D01*
X11200953Y-9757190D02*
X11229524Y-9757190D01*
X11229524Y-9757190D02*
X11248572Y-9766714D01*
X11248572Y-9766714D02*
X11258096Y-9776238D01*
X11258096Y-9776238D02*
X11267619Y-9795286D01*
X11267619Y-9795286D02*
X11267619Y-9852429D01*
X11267619Y-9852429D02*
X11258096Y-9871476D01*
X11258096Y-9871476D02*
X11248572Y-9881000D01*
X11248572Y-9881000D02*
X11229524Y-9890524D01*
X11229524Y-9890524D02*
X11200953Y-9890524D01*
X11381905Y-9890524D02*
X11362857Y-9881000D01*
X11362857Y-9881000D02*
X11353334Y-9861952D01*
X11353334Y-9861952D02*
X11353334Y-9690524D01*
X11534286Y-9881000D02*
X11515238Y-9890524D01*
X11515238Y-9890524D02*
X11477143Y-9890524D01*
X11477143Y-9890524D02*
X11458096Y-9881000D01*
X11458096Y-9881000D02*
X11448572Y-9861952D01*
X11448572Y-9861952D02*
X11448572Y-9785762D01*
X11448572Y-9785762D02*
X11458096Y-9766714D01*
X11458096Y-9766714D02*
X11477143Y-9757190D01*
X11477143Y-9757190D02*
X11515238Y-9757190D01*
X11515238Y-9757190D02*
X11534286Y-9766714D01*
X11534286Y-9766714D02*
X11543810Y-9785762D01*
X11543810Y-9785762D02*
X11543810Y-9804810D01*
X11543810Y-9804810D02*
X11448572Y-9823857D01*
X11620000Y-9881000D02*
X11639048Y-9890524D01*
X11639048Y-9890524D02*
X11677143Y-9890524D01*
X11677143Y-9890524D02*
X11696191Y-9881000D01*
X11696191Y-9881000D02*
X11705715Y-9861952D01*
X11705715Y-9861952D02*
X11705715Y-9852429D01*
X11705715Y-9852429D02*
X11696191Y-9833381D01*
X11696191Y-9833381D02*
X11677143Y-9823857D01*
X11677143Y-9823857D02*
X11648572Y-9823857D01*
X11648572Y-9823857D02*
X11629524Y-9814333D01*
X11629524Y-9814333D02*
X11620000Y-9795286D01*
X11620000Y-9795286D02*
X11620000Y-9785762D01*
X11620000Y-9785762D02*
X11629524Y-9766714D01*
X11629524Y-9766714D02*
X11648572Y-9757190D01*
X11648572Y-9757190D02*
X11677143Y-9757190D01*
X11677143Y-9757190D02*
X11696191Y-9766714D01*
X11772381Y-9966714D02*
X11781905Y-9957190D01*
X11781905Y-9957190D02*
X11800953Y-9928619D01*
X11800953Y-9928619D02*
X11810477Y-9909571D01*
X11810477Y-9909571D02*
X11820000Y-9881000D01*
X11820000Y-9881000D02*
X11829524Y-9833381D01*
X11829524Y-9833381D02*
X11829524Y-9795286D01*
X11829524Y-9795286D02*
X11820000Y-9747667D01*
X11820000Y-9747667D02*
X11810477Y-9719095D01*
X11810477Y-9719095D02*
X11800953Y-9700048D01*
X11800953Y-9700048D02*
X11781905Y-9671476D01*
X11781905Y-9671476D02*
X11772381Y-9661952D01*
X6790711Y-10132711D02*
X6790711Y-9991289D01*
X6649289Y-9991289D01*
X6649289Y-10132711D01*
X6790711Y-10132711D01*
X7048571Y-9954524D02*
X7172381Y-9954524D01*
X7172381Y-9954524D02*
X7105714Y-10030714D01*
X7105714Y-10030714D02*
X7134286Y-10030714D01*
X7134286Y-10030714D02*
X7153333Y-10040238D01*
X7153333Y-10040238D02*
X7162857Y-10049762D01*
X7162857Y-10049762D02*
X7172381Y-10068810D01*
X7172381Y-10068810D02*
X7172381Y-10116429D01*
X7172381Y-10116429D02*
X7162857Y-10135476D01*
X7162857Y-10135476D02*
X7153333Y-10145000D01*
X7153333Y-10145000D02*
X7134286Y-10154524D01*
X7134286Y-10154524D02*
X7077143Y-10154524D01*
X7077143Y-10154524D02*
X7058095Y-10145000D01*
X7058095Y-10145000D02*
X7048571Y-10135476D01*
X7258095Y-10135476D02*
X7267619Y-10145000D01*
X7267619Y-10145000D02*
X7258095Y-10154524D01*
X7258095Y-10154524D02*
X7248571Y-10145000D01*
X7248571Y-10145000D02*
X7258095Y-10135476D01*
X7258095Y-10135476D02*
X7258095Y-10154524D01*
X7343809Y-9973571D02*
X7353333Y-9964048D01*
X7353333Y-9964048D02*
X7372381Y-9954524D01*
X7372381Y-9954524D02*
X7420000Y-9954524D01*
X7420000Y-9954524D02*
X7439048Y-9964048D01*
X7439048Y-9964048D02*
X7448571Y-9973571D01*
X7448571Y-9973571D02*
X7458095Y-9992619D01*
X7458095Y-9992619D02*
X7458095Y-10011667D01*
X7458095Y-10011667D02*
X7448571Y-10040238D01*
X7448571Y-10040238D02*
X7334286Y-10154524D01*
X7334286Y-10154524D02*
X7458095Y-10154524D01*
X7581905Y-9954524D02*
X7600952Y-9954524D01*
X7600952Y-9954524D02*
X7620000Y-9964048D01*
X7620000Y-9964048D02*
X7629524Y-9973571D01*
X7629524Y-9973571D02*
X7639048Y-9992619D01*
X7639048Y-9992619D02*
X7648571Y-10030714D01*
X7648571Y-10030714D02*
X7648571Y-10078333D01*
X7648571Y-10078333D02*
X7639048Y-10116429D01*
X7639048Y-10116429D02*
X7629524Y-10135476D01*
X7629524Y-10135476D02*
X7620000Y-10145000D01*
X7620000Y-10145000D02*
X7600952Y-10154524D01*
X7600952Y-10154524D02*
X7581905Y-10154524D01*
X7581905Y-10154524D02*
X7562857Y-10145000D01*
X7562857Y-10145000D02*
X7553333Y-10135476D01*
X7553333Y-10135476D02*
X7543809Y-10116429D01*
X7543809Y-10116429D02*
X7534286Y-10078333D01*
X7534286Y-10078333D02*
X7534286Y-10030714D01*
X7534286Y-10030714D02*
X7543809Y-9992619D01*
X7543809Y-9992619D02*
X7553333Y-9973571D01*
X7553333Y-9973571D02*
X7562857Y-9964048D01*
X7562857Y-9964048D02*
X7581905Y-9954524D01*
X7772381Y-9954524D02*
X7791429Y-9954524D01*
X7791429Y-9954524D02*
X7810476Y-9964048D01*
X7810476Y-9964048D02*
X7820000Y-9973571D01*
X7820000Y-9973571D02*
X7829524Y-9992619D01*
X7829524Y-9992619D02*
X7839048Y-10030714D01*
X7839048Y-10030714D02*
X7839048Y-10078333D01*
X7839048Y-10078333D02*
X7829524Y-10116429D01*
X7829524Y-10116429D02*
X7820000Y-10135476D01*
X7820000Y-10135476D02*
X7810476Y-10145000D01*
X7810476Y-10145000D02*
X7791429Y-10154524D01*
X7791429Y-10154524D02*
X7772381Y-10154524D01*
X7772381Y-10154524D02*
X7753333Y-10145000D01*
X7753333Y-10145000D02*
X7743809Y-10135476D01*
X7743809Y-10135476D02*
X7734286Y-10116429D01*
X7734286Y-10116429D02*
X7724762Y-10078333D01*
X7724762Y-10078333D02*
X7724762Y-10030714D01*
X7724762Y-10030714D02*
X7734286Y-9992619D01*
X7734286Y-9992619D02*
X7743809Y-9973571D01*
X7743809Y-9973571D02*
X7753333Y-9964048D01*
X7753333Y-9964048D02*
X7772381Y-9954524D01*
X7924762Y-10154524D02*
X7924762Y-10021190D01*
X7924762Y-10040238D02*
X7934286Y-10030714D01*
X7934286Y-10030714D02*
X7953333Y-10021190D01*
X7953333Y-10021190D02*
X7981905Y-10021190D01*
X7981905Y-10021190D02*
X8000952Y-10030714D01*
X8000952Y-10030714D02*
X8010476Y-10049762D01*
X8010476Y-10049762D02*
X8010476Y-10154524D01*
X8010476Y-10049762D02*
X8020000Y-10030714D01*
X8020000Y-10030714D02*
X8039048Y-10021190D01*
X8039048Y-10021190D02*
X8067619Y-10021190D01*
X8067619Y-10021190D02*
X8086667Y-10030714D01*
X8086667Y-10030714D02*
X8096190Y-10049762D01*
X8096190Y-10049762D02*
X8096190Y-10154524D01*
X8191429Y-10154524D02*
X8191429Y-10021190D01*
X8191429Y-10040238D02*
X8200952Y-10030714D01*
X8200952Y-10030714D02*
X8220000Y-10021190D01*
X8220000Y-10021190D02*
X8248571Y-10021190D01*
X8248571Y-10021190D02*
X8267619Y-10030714D01*
X8267619Y-10030714D02*
X8277143Y-10049762D01*
X8277143Y-10049762D02*
X8277143Y-10154524D01*
X8277143Y-10049762D02*
X8286667Y-10030714D01*
X8286667Y-10030714D02*
X8305714Y-10021190D01*
X8305714Y-10021190D02*
X8334286Y-10021190D01*
X8334286Y-10021190D02*
X8353333Y-10030714D01*
X8353333Y-10030714D02*
X8362857Y-10049762D01*
X8362857Y-10049762D02*
X8362857Y-10154524D01*
X8753333Y-9945000D02*
X8581905Y-10202143D01*
X9010476Y-9954524D02*
X9029524Y-9954524D01*
X9029524Y-9954524D02*
X9048572Y-9964048D01*
X9048572Y-9964048D02*
X9058095Y-9973571D01*
X9058095Y-9973571D02*
X9067619Y-9992619D01*
X9067619Y-9992619D02*
X9077143Y-10030714D01*
X9077143Y-10030714D02*
X9077143Y-10078333D01*
X9077143Y-10078333D02*
X9067619Y-10116429D01*
X9067619Y-10116429D02*
X9058095Y-10135476D01*
X9058095Y-10135476D02*
X9048572Y-10145000D01*
X9048572Y-10145000D02*
X9029524Y-10154524D01*
X9029524Y-10154524D02*
X9010476Y-10154524D01*
X9010476Y-10154524D02*
X8991429Y-10145000D01*
X8991429Y-10145000D02*
X8981905Y-10135476D01*
X8981905Y-10135476D02*
X8972381Y-10116429D01*
X8972381Y-10116429D02*
X8962857Y-10078333D01*
X8962857Y-10078333D02*
X8962857Y-10030714D01*
X8962857Y-10030714D02*
X8972381Y-9992619D01*
X8972381Y-9992619D02*
X8981905Y-9973571D01*
X8981905Y-9973571D02*
X8991429Y-9964048D01*
X8991429Y-9964048D02*
X9010476Y-9954524D01*
X9162857Y-10135476D02*
X9172381Y-10145000D01*
X9172381Y-10145000D02*
X9162857Y-10154524D01*
X9162857Y-10154524D02*
X9153334Y-10145000D01*
X9153334Y-10145000D02*
X9162857Y-10135476D01*
X9162857Y-10135476D02*
X9162857Y-10154524D01*
X9362857Y-10154524D02*
X9248572Y-10154524D01*
X9305714Y-10154524D02*
X9305714Y-9954524D01*
X9305714Y-9954524D02*
X9286667Y-9983095D01*
X9286667Y-9983095D02*
X9267619Y-10002143D01*
X9267619Y-10002143D02*
X9248572Y-10011667D01*
X9439048Y-9973571D02*
X9448572Y-9964048D01*
X9448572Y-9964048D02*
X9467619Y-9954524D01*
X9467619Y-9954524D02*
X9515238Y-9954524D01*
X9515238Y-9954524D02*
X9534286Y-9964048D01*
X9534286Y-9964048D02*
X9543810Y-9973571D01*
X9543810Y-9973571D02*
X9553334Y-9992619D01*
X9553334Y-9992619D02*
X9553334Y-10011667D01*
X9553334Y-10011667D02*
X9543810Y-10040238D01*
X9543810Y-10040238D02*
X9429524Y-10154524D01*
X9429524Y-10154524D02*
X9553334Y-10154524D01*
X9724762Y-9954524D02*
X9686667Y-9954524D01*
X9686667Y-9954524D02*
X9667619Y-9964048D01*
X9667619Y-9964048D02*
X9658095Y-9973571D01*
X9658095Y-9973571D02*
X9639048Y-10002143D01*
X9639048Y-10002143D02*
X9629524Y-10040238D01*
X9629524Y-10040238D02*
X9629524Y-10116429D01*
X9629524Y-10116429D02*
X9639048Y-10135476D01*
X9639048Y-10135476D02*
X9648572Y-10145000D01*
X9648572Y-10145000D02*
X9667619Y-10154524D01*
X9667619Y-10154524D02*
X9705715Y-10154524D01*
X9705715Y-10154524D02*
X9724762Y-10145000D01*
X9724762Y-10145000D02*
X9734286Y-10135476D01*
X9734286Y-10135476D02*
X9743810Y-10116429D01*
X9743810Y-10116429D02*
X9743810Y-10068810D01*
X9743810Y-10068810D02*
X9734286Y-10049762D01*
X9734286Y-10049762D02*
X9724762Y-10040238D01*
X9724762Y-10040238D02*
X9705715Y-10030714D01*
X9705715Y-10030714D02*
X9667619Y-10030714D01*
X9667619Y-10030714D02*
X9648572Y-10040238D01*
X9648572Y-10040238D02*
X9639048Y-10049762D01*
X9639048Y-10049762D02*
X9629524Y-10068810D01*
X9867619Y-9954524D02*
X9886667Y-9954524D01*
X9886667Y-9954524D02*
X9905715Y-9964048D01*
X9905715Y-9964048D02*
X9915238Y-9973571D01*
X9915238Y-9973571D02*
X9924762Y-9992619D01*
X9924762Y-9992619D02*
X9934286Y-10030714D01*
X9934286Y-10030714D02*
X9934286Y-10078333D01*
X9934286Y-10078333D02*
X9924762Y-10116429D01*
X9924762Y-10116429D02*
X9915238Y-10135476D01*
X9915238Y-10135476D02*
X9905715Y-10145000D01*
X9905715Y-10145000D02*
X9886667Y-10154524D01*
X9886667Y-10154524D02*
X9867619Y-10154524D01*
X9867619Y-10154524D02*
X9848572Y-10145000D01*
X9848572Y-10145000D02*
X9839048Y-10135476D01*
X9839048Y-10135476D02*
X9829524Y-10116429D01*
X9829524Y-10116429D02*
X9820000Y-10078333D01*
X9820000Y-10078333D02*
X9820000Y-10030714D01*
X9820000Y-10030714D02*
X9829524Y-9992619D01*
X9829524Y-9992619D02*
X9839048Y-9973571D01*
X9839048Y-9973571D02*
X9848572Y-9964048D01*
X9848572Y-9964048D02*
X9867619Y-9954524D01*
X10010476Y-9954524D02*
X10010476Y-9992619D01*
X10086667Y-9954524D02*
X10086667Y-9992619D01*
X10381905Y-10230714D02*
X10372381Y-10221190D01*
X10372381Y-10221190D02*
X10353334Y-10192619D01*
X10353334Y-10192619D02*
X10343810Y-10173571D01*
X10343810Y-10173571D02*
X10334286Y-10145000D01*
X10334286Y-10145000D02*
X10324762Y-10097381D01*
X10324762Y-10097381D02*
X10324762Y-10059286D01*
X10324762Y-10059286D02*
X10334286Y-10011667D01*
X10334286Y-10011667D02*
X10343810Y-9983095D01*
X10343810Y-9983095D02*
X10353334Y-9964048D01*
X10353334Y-9964048D02*
X10372381Y-9935476D01*
X10372381Y-9935476D02*
X10381905Y-9925952D01*
X10543810Y-10021190D02*
X10543810Y-10154524D01*
X10496191Y-9945000D02*
X10448572Y-10087857D01*
X10448572Y-10087857D02*
X10572381Y-10087857D01*
X10800953Y-10154524D02*
X10800953Y-9954524D01*
X10886667Y-10154524D02*
X10886667Y-10049762D01*
X10886667Y-10049762D02*
X10877143Y-10030714D01*
X10877143Y-10030714D02*
X10858096Y-10021190D01*
X10858096Y-10021190D02*
X10829524Y-10021190D01*
X10829524Y-10021190D02*
X10810477Y-10030714D01*
X10810477Y-10030714D02*
X10800953Y-10040238D01*
X11010477Y-10154524D02*
X10991429Y-10145000D01*
X10991429Y-10145000D02*
X10981905Y-10135476D01*
X10981905Y-10135476D02*
X10972381Y-10116429D01*
X10972381Y-10116429D02*
X10972381Y-10059286D01*
X10972381Y-10059286D02*
X10981905Y-10040238D01*
X10981905Y-10040238D02*
X10991429Y-10030714D01*
X10991429Y-10030714D02*
X11010477Y-10021190D01*
X11010477Y-10021190D02*
X11039048Y-10021190D01*
X11039048Y-10021190D02*
X11058096Y-10030714D01*
X11058096Y-10030714D02*
X11067619Y-10040238D01*
X11067619Y-10040238D02*
X11077143Y-10059286D01*
X11077143Y-10059286D02*
X11077143Y-10116429D01*
X11077143Y-10116429D02*
X11067619Y-10135476D01*
X11067619Y-10135476D02*
X11058096Y-10145000D01*
X11058096Y-10145000D02*
X11039048Y-10154524D01*
X11039048Y-10154524D02*
X11010477Y-10154524D01*
X11191429Y-10154524D02*
X11172381Y-10145000D01*
X11172381Y-10145000D02*
X11162858Y-10125952D01*
X11162858Y-10125952D02*
X11162858Y-9954524D01*
X11343810Y-10145000D02*
X11324762Y-10154524D01*
X11324762Y-10154524D02*
X11286667Y-10154524D01*
X11286667Y-10154524D02*
X11267619Y-10145000D01*
X11267619Y-10145000D02*
X11258096Y-10125952D01*
X11258096Y-10125952D02*
X11258096Y-10049762D01*
X11258096Y-10049762D02*
X11267619Y-10030714D01*
X11267619Y-10030714D02*
X11286667Y-10021190D01*
X11286667Y-10021190D02*
X11324762Y-10021190D01*
X11324762Y-10021190D02*
X11343810Y-10030714D01*
X11343810Y-10030714D02*
X11353334Y-10049762D01*
X11353334Y-10049762D02*
X11353334Y-10068810D01*
X11353334Y-10068810D02*
X11258096Y-10087857D01*
X11429524Y-10145000D02*
X11448572Y-10154524D01*
X11448572Y-10154524D02*
X11486667Y-10154524D01*
X11486667Y-10154524D02*
X11505715Y-10145000D01*
X11505715Y-10145000D02*
X11515238Y-10125952D01*
X11515238Y-10125952D02*
X11515238Y-10116429D01*
X11515238Y-10116429D02*
X11505715Y-10097381D01*
X11505715Y-10097381D02*
X11486667Y-10087857D01*
X11486667Y-10087857D02*
X11458096Y-10087857D01*
X11458096Y-10087857D02*
X11439048Y-10078333D01*
X11439048Y-10078333D02*
X11429524Y-10059286D01*
X11429524Y-10059286D02*
X11429524Y-10049762D01*
X11429524Y-10049762D02*
X11439048Y-10030714D01*
X11439048Y-10030714D02*
X11458096Y-10021190D01*
X11458096Y-10021190D02*
X11486667Y-10021190D01*
X11486667Y-10021190D02*
X11505715Y-10030714D01*
X11581905Y-10230714D02*
X11591429Y-10221190D01*
X11591429Y-10221190D02*
X11610477Y-10192619D01*
X11610477Y-10192619D02*
X11620000Y-10173571D01*
X11620000Y-10173571D02*
X11629524Y-10145000D01*
X11629524Y-10145000D02*
X11639048Y-10097381D01*
X11639048Y-10097381D02*
X11639048Y-10059286D01*
X11639048Y-10059286D02*
X11629524Y-10011667D01*
X11629524Y-10011667D02*
X11620000Y-9983095D01*
X11620000Y-9983095D02*
X11610477Y-9964048D01*
X11610477Y-9964048D02*
X11591429Y-9935476D01*
X11591429Y-9935476D02*
X11581905Y-9925952D01*
M02*
