%TF.GenerationSoftware,KiCad,Pcbnew,7.0.1*%
%TF.CreationDate,2023-09-03T20:42:09-04:00*%
%TF.ProjectId,Groove Coaster,47726f6f-7665-4204-936f-61737465722e,rev?*%
%TF.SameCoordinates,Original*%
%TF.FileFunction,Drillmap*%
%TF.FilePolarity,Positive*%
%FSLAX45Y45*%
G04 Gerber Fmt 4.5, Leading zero omitted, Abs format (unit mm)*
G04 Created by KiCad (PCBNEW 7.0.1) date 2023-09-03 20:42:09*
%MOMM*%
%LPD*%
G01*
G04 APERTURE LIST*
%ADD10C,0.200000*%
%ADD11C,0.120000*%
G04 APERTURE END LIST*
D10*
X6830000Y-4090000D02*
X13810000Y-4090000D01*
X13810000Y-8620000D01*
X6830000Y-8620000D01*
X6830000Y-4090000D01*
D11*
X7880000Y-7640000D02*
X8000000Y-7760000D01*
X8000000Y-7640000D02*
X7880000Y-7760000D01*
X9590000Y-7650000D02*
X9710000Y-7770000D01*
X9710000Y-7650000D02*
X9590000Y-7770000D01*
D10*
X7067619Y-8942524D02*
X7067619Y-8742524D01*
X7067619Y-8742524D02*
X7115238Y-8742524D01*
X7115238Y-8742524D02*
X7143809Y-8752048D01*
X7143809Y-8752048D02*
X7162857Y-8771095D01*
X7162857Y-8771095D02*
X7172381Y-8790143D01*
X7172381Y-8790143D02*
X7181905Y-8828238D01*
X7181905Y-8828238D02*
X7181905Y-8856810D01*
X7181905Y-8856810D02*
X7172381Y-8894905D01*
X7172381Y-8894905D02*
X7162857Y-8913952D01*
X7162857Y-8913952D02*
X7143809Y-8933000D01*
X7143809Y-8933000D02*
X7115238Y-8942524D01*
X7115238Y-8942524D02*
X7067619Y-8942524D01*
X7267619Y-8942524D02*
X7267619Y-8809190D01*
X7267619Y-8847286D02*
X7277143Y-8828238D01*
X7277143Y-8828238D02*
X7286667Y-8818714D01*
X7286667Y-8818714D02*
X7305714Y-8809190D01*
X7305714Y-8809190D02*
X7324762Y-8809190D01*
X7391428Y-8942524D02*
X7391428Y-8809190D01*
X7391428Y-8742524D02*
X7381905Y-8752048D01*
X7381905Y-8752048D02*
X7391428Y-8761571D01*
X7391428Y-8761571D02*
X7400952Y-8752048D01*
X7400952Y-8752048D02*
X7391428Y-8742524D01*
X7391428Y-8742524D02*
X7391428Y-8761571D01*
X7515238Y-8942524D02*
X7496190Y-8933000D01*
X7496190Y-8933000D02*
X7486667Y-8913952D01*
X7486667Y-8913952D02*
X7486667Y-8742524D01*
X7620000Y-8942524D02*
X7600952Y-8933000D01*
X7600952Y-8933000D02*
X7591428Y-8913952D01*
X7591428Y-8913952D02*
X7591428Y-8742524D01*
X7848571Y-8942524D02*
X7848571Y-8742524D01*
X7848571Y-8742524D02*
X7915238Y-8885381D01*
X7915238Y-8885381D02*
X7981905Y-8742524D01*
X7981905Y-8742524D02*
X7981905Y-8942524D01*
X8162857Y-8942524D02*
X8162857Y-8837762D01*
X8162857Y-8837762D02*
X8153333Y-8818714D01*
X8153333Y-8818714D02*
X8134286Y-8809190D01*
X8134286Y-8809190D02*
X8096190Y-8809190D01*
X8096190Y-8809190D02*
X8077143Y-8818714D01*
X8162857Y-8933000D02*
X8143809Y-8942524D01*
X8143809Y-8942524D02*
X8096190Y-8942524D01*
X8096190Y-8942524D02*
X8077143Y-8933000D01*
X8077143Y-8933000D02*
X8067619Y-8913952D01*
X8067619Y-8913952D02*
X8067619Y-8894905D01*
X8067619Y-8894905D02*
X8077143Y-8875857D01*
X8077143Y-8875857D02*
X8096190Y-8866333D01*
X8096190Y-8866333D02*
X8143809Y-8866333D01*
X8143809Y-8866333D02*
X8162857Y-8856810D01*
X8258095Y-8809190D02*
X8258095Y-9009190D01*
X8258095Y-8818714D02*
X8277143Y-8809190D01*
X8277143Y-8809190D02*
X8315238Y-8809190D01*
X8315238Y-8809190D02*
X8334286Y-8818714D01*
X8334286Y-8818714D02*
X8343809Y-8828238D01*
X8343809Y-8828238D02*
X8353333Y-8847286D01*
X8353333Y-8847286D02*
X8353333Y-8904429D01*
X8353333Y-8904429D02*
X8343809Y-8923476D01*
X8343809Y-8923476D02*
X8334286Y-8933000D01*
X8334286Y-8933000D02*
X8315238Y-8942524D01*
X8315238Y-8942524D02*
X8277143Y-8942524D01*
X8277143Y-8942524D02*
X8258095Y-8933000D01*
X8439048Y-8923476D02*
X8448571Y-8933000D01*
X8448571Y-8933000D02*
X8439048Y-8942524D01*
X8439048Y-8942524D02*
X8429524Y-8933000D01*
X8429524Y-8933000D02*
X8439048Y-8923476D01*
X8439048Y-8923476D02*
X8439048Y-8942524D01*
X8439048Y-8818714D02*
X8448571Y-8828238D01*
X8448571Y-8828238D02*
X8439048Y-8837762D01*
X8439048Y-8837762D02*
X8429524Y-8828238D01*
X8429524Y-8828238D02*
X8439048Y-8818714D01*
X8439048Y-8818714D02*
X8439048Y-8837762D01*
D11*
X6700000Y-9210000D02*
X6820000Y-9330000D01*
X6820000Y-9210000D02*
X6700000Y-9330000D01*
D10*
X7172381Y-9362524D02*
X7058095Y-9362524D01*
X7115238Y-9362524D02*
X7115238Y-9162524D01*
X7115238Y-9162524D02*
X7096190Y-9191095D01*
X7096190Y-9191095D02*
X7077143Y-9210143D01*
X7077143Y-9210143D02*
X7058095Y-9219667D01*
X7258095Y-9343476D02*
X7267619Y-9353000D01*
X7267619Y-9353000D02*
X7258095Y-9362524D01*
X7258095Y-9362524D02*
X7248571Y-9353000D01*
X7248571Y-9353000D02*
X7258095Y-9343476D01*
X7258095Y-9343476D02*
X7258095Y-9362524D01*
X7343809Y-9181571D02*
X7353333Y-9172048D01*
X7353333Y-9172048D02*
X7372381Y-9162524D01*
X7372381Y-9162524D02*
X7420000Y-9162524D01*
X7420000Y-9162524D02*
X7439048Y-9172048D01*
X7439048Y-9172048D02*
X7448571Y-9181571D01*
X7448571Y-9181571D02*
X7458095Y-9200619D01*
X7458095Y-9200619D02*
X7458095Y-9219667D01*
X7458095Y-9219667D02*
X7448571Y-9248238D01*
X7448571Y-9248238D02*
X7334286Y-9362524D01*
X7334286Y-9362524D02*
X7458095Y-9362524D01*
X7581905Y-9162524D02*
X7600952Y-9162524D01*
X7600952Y-9162524D02*
X7620000Y-9172048D01*
X7620000Y-9172048D02*
X7629524Y-9181571D01*
X7629524Y-9181571D02*
X7639048Y-9200619D01*
X7639048Y-9200619D02*
X7648571Y-9238714D01*
X7648571Y-9238714D02*
X7648571Y-9286333D01*
X7648571Y-9286333D02*
X7639048Y-9324429D01*
X7639048Y-9324429D02*
X7629524Y-9343476D01*
X7629524Y-9343476D02*
X7620000Y-9353000D01*
X7620000Y-9353000D02*
X7600952Y-9362524D01*
X7600952Y-9362524D02*
X7581905Y-9362524D01*
X7581905Y-9362524D02*
X7562857Y-9353000D01*
X7562857Y-9353000D02*
X7553333Y-9343476D01*
X7553333Y-9343476D02*
X7543809Y-9324429D01*
X7543809Y-9324429D02*
X7534286Y-9286333D01*
X7534286Y-9286333D02*
X7534286Y-9238714D01*
X7534286Y-9238714D02*
X7543809Y-9200619D01*
X7543809Y-9200619D02*
X7553333Y-9181571D01*
X7553333Y-9181571D02*
X7562857Y-9172048D01*
X7562857Y-9172048D02*
X7581905Y-9162524D01*
X7772381Y-9162524D02*
X7791429Y-9162524D01*
X7791429Y-9162524D02*
X7810476Y-9172048D01*
X7810476Y-9172048D02*
X7820000Y-9181571D01*
X7820000Y-9181571D02*
X7829524Y-9200619D01*
X7829524Y-9200619D02*
X7839048Y-9238714D01*
X7839048Y-9238714D02*
X7839048Y-9286333D01*
X7839048Y-9286333D02*
X7829524Y-9324429D01*
X7829524Y-9324429D02*
X7820000Y-9343476D01*
X7820000Y-9343476D02*
X7810476Y-9353000D01*
X7810476Y-9353000D02*
X7791429Y-9362524D01*
X7791429Y-9362524D02*
X7772381Y-9362524D01*
X7772381Y-9362524D02*
X7753333Y-9353000D01*
X7753333Y-9353000D02*
X7743809Y-9343476D01*
X7743809Y-9343476D02*
X7734286Y-9324429D01*
X7734286Y-9324429D02*
X7724762Y-9286333D01*
X7724762Y-9286333D02*
X7724762Y-9238714D01*
X7724762Y-9238714D02*
X7734286Y-9200619D01*
X7734286Y-9200619D02*
X7743809Y-9181571D01*
X7743809Y-9181571D02*
X7753333Y-9172048D01*
X7753333Y-9172048D02*
X7772381Y-9162524D01*
X7924762Y-9362524D02*
X7924762Y-9229190D01*
X7924762Y-9248238D02*
X7934286Y-9238714D01*
X7934286Y-9238714D02*
X7953333Y-9229190D01*
X7953333Y-9229190D02*
X7981905Y-9229190D01*
X7981905Y-9229190D02*
X8000952Y-9238714D01*
X8000952Y-9238714D02*
X8010476Y-9257762D01*
X8010476Y-9257762D02*
X8010476Y-9362524D01*
X8010476Y-9257762D02*
X8020000Y-9238714D01*
X8020000Y-9238714D02*
X8039048Y-9229190D01*
X8039048Y-9229190D02*
X8067619Y-9229190D01*
X8067619Y-9229190D02*
X8086667Y-9238714D01*
X8086667Y-9238714D02*
X8096190Y-9257762D01*
X8096190Y-9257762D02*
X8096190Y-9362524D01*
X8191429Y-9362524D02*
X8191429Y-9229190D01*
X8191429Y-9248238D02*
X8200952Y-9238714D01*
X8200952Y-9238714D02*
X8220000Y-9229190D01*
X8220000Y-9229190D02*
X8248571Y-9229190D01*
X8248571Y-9229190D02*
X8267619Y-9238714D01*
X8267619Y-9238714D02*
X8277143Y-9257762D01*
X8277143Y-9257762D02*
X8277143Y-9362524D01*
X8277143Y-9257762D02*
X8286667Y-9238714D01*
X8286667Y-9238714D02*
X8305714Y-9229190D01*
X8305714Y-9229190D02*
X8334286Y-9229190D01*
X8334286Y-9229190D02*
X8353333Y-9238714D01*
X8353333Y-9238714D02*
X8362857Y-9257762D01*
X8362857Y-9257762D02*
X8362857Y-9362524D01*
X8753333Y-9153000D02*
X8581905Y-9410143D01*
X9010476Y-9162524D02*
X9029524Y-9162524D01*
X9029524Y-9162524D02*
X9048572Y-9172048D01*
X9048572Y-9172048D02*
X9058095Y-9181571D01*
X9058095Y-9181571D02*
X9067619Y-9200619D01*
X9067619Y-9200619D02*
X9077143Y-9238714D01*
X9077143Y-9238714D02*
X9077143Y-9286333D01*
X9077143Y-9286333D02*
X9067619Y-9324429D01*
X9067619Y-9324429D02*
X9058095Y-9343476D01*
X9058095Y-9343476D02*
X9048572Y-9353000D01*
X9048572Y-9353000D02*
X9029524Y-9362524D01*
X9029524Y-9362524D02*
X9010476Y-9362524D01*
X9010476Y-9362524D02*
X8991429Y-9353000D01*
X8991429Y-9353000D02*
X8981905Y-9343476D01*
X8981905Y-9343476D02*
X8972381Y-9324429D01*
X8972381Y-9324429D02*
X8962857Y-9286333D01*
X8962857Y-9286333D02*
X8962857Y-9238714D01*
X8962857Y-9238714D02*
X8972381Y-9200619D01*
X8972381Y-9200619D02*
X8981905Y-9181571D01*
X8981905Y-9181571D02*
X8991429Y-9172048D01*
X8991429Y-9172048D02*
X9010476Y-9162524D01*
X9162857Y-9343476D02*
X9172381Y-9353000D01*
X9172381Y-9353000D02*
X9162857Y-9362524D01*
X9162857Y-9362524D02*
X9153334Y-9353000D01*
X9153334Y-9353000D02*
X9162857Y-9343476D01*
X9162857Y-9343476D02*
X9162857Y-9362524D01*
X9296191Y-9162524D02*
X9315238Y-9162524D01*
X9315238Y-9162524D02*
X9334286Y-9172048D01*
X9334286Y-9172048D02*
X9343810Y-9181571D01*
X9343810Y-9181571D02*
X9353334Y-9200619D01*
X9353334Y-9200619D02*
X9362857Y-9238714D01*
X9362857Y-9238714D02*
X9362857Y-9286333D01*
X9362857Y-9286333D02*
X9353334Y-9324429D01*
X9353334Y-9324429D02*
X9343810Y-9343476D01*
X9343810Y-9343476D02*
X9334286Y-9353000D01*
X9334286Y-9353000D02*
X9315238Y-9362524D01*
X9315238Y-9362524D02*
X9296191Y-9362524D01*
X9296191Y-9362524D02*
X9277143Y-9353000D01*
X9277143Y-9353000D02*
X9267619Y-9343476D01*
X9267619Y-9343476D02*
X9258095Y-9324429D01*
X9258095Y-9324429D02*
X9248572Y-9286333D01*
X9248572Y-9286333D02*
X9248572Y-9238714D01*
X9248572Y-9238714D02*
X9258095Y-9200619D01*
X9258095Y-9200619D02*
X9267619Y-9181571D01*
X9267619Y-9181571D02*
X9277143Y-9172048D01*
X9277143Y-9172048D02*
X9296191Y-9162524D01*
X9534286Y-9229190D02*
X9534286Y-9362524D01*
X9486667Y-9153000D02*
X9439048Y-9295857D01*
X9439048Y-9295857D02*
X9562857Y-9295857D01*
X9620000Y-9162524D02*
X9753334Y-9162524D01*
X9753334Y-9162524D02*
X9667619Y-9362524D01*
X9820000Y-9181571D02*
X9829524Y-9172048D01*
X9829524Y-9172048D02*
X9848572Y-9162524D01*
X9848572Y-9162524D02*
X9896191Y-9162524D01*
X9896191Y-9162524D02*
X9915238Y-9172048D01*
X9915238Y-9172048D02*
X9924762Y-9181571D01*
X9924762Y-9181571D02*
X9934286Y-9200619D01*
X9934286Y-9200619D02*
X9934286Y-9219667D01*
X9934286Y-9219667D02*
X9924762Y-9248238D01*
X9924762Y-9248238D02*
X9810476Y-9362524D01*
X9810476Y-9362524D02*
X9934286Y-9362524D01*
X10010476Y-9162524D02*
X10010476Y-9200619D01*
X10086667Y-9162524D02*
X10086667Y-9200619D01*
X10381905Y-9438714D02*
X10372381Y-9429190D01*
X10372381Y-9429190D02*
X10353334Y-9400619D01*
X10353334Y-9400619D02*
X10343810Y-9381571D01*
X10343810Y-9381571D02*
X10334286Y-9353000D01*
X10334286Y-9353000D02*
X10324762Y-9305381D01*
X10324762Y-9305381D02*
X10324762Y-9267286D01*
X10324762Y-9267286D02*
X10334286Y-9219667D01*
X10334286Y-9219667D02*
X10343810Y-9191095D01*
X10343810Y-9191095D02*
X10353334Y-9172048D01*
X10353334Y-9172048D02*
X10372381Y-9143476D01*
X10372381Y-9143476D02*
X10381905Y-9133952D01*
X10448572Y-9181571D02*
X10458096Y-9172048D01*
X10458096Y-9172048D02*
X10477143Y-9162524D01*
X10477143Y-9162524D02*
X10524762Y-9162524D01*
X10524762Y-9162524D02*
X10543810Y-9172048D01*
X10543810Y-9172048D02*
X10553334Y-9181571D01*
X10553334Y-9181571D02*
X10562857Y-9200619D01*
X10562857Y-9200619D02*
X10562857Y-9219667D01*
X10562857Y-9219667D02*
X10553334Y-9248238D01*
X10553334Y-9248238D02*
X10439048Y-9362524D01*
X10439048Y-9362524D02*
X10562857Y-9362524D01*
X10800953Y-9362524D02*
X10800953Y-9162524D01*
X10886667Y-9362524D02*
X10886667Y-9257762D01*
X10886667Y-9257762D02*
X10877143Y-9238714D01*
X10877143Y-9238714D02*
X10858096Y-9229190D01*
X10858096Y-9229190D02*
X10829524Y-9229190D01*
X10829524Y-9229190D02*
X10810477Y-9238714D01*
X10810477Y-9238714D02*
X10800953Y-9248238D01*
X11010477Y-9362524D02*
X10991429Y-9353000D01*
X10991429Y-9353000D02*
X10981905Y-9343476D01*
X10981905Y-9343476D02*
X10972381Y-9324429D01*
X10972381Y-9324429D02*
X10972381Y-9267286D01*
X10972381Y-9267286D02*
X10981905Y-9248238D01*
X10981905Y-9248238D02*
X10991429Y-9238714D01*
X10991429Y-9238714D02*
X11010477Y-9229190D01*
X11010477Y-9229190D02*
X11039048Y-9229190D01*
X11039048Y-9229190D02*
X11058096Y-9238714D01*
X11058096Y-9238714D02*
X11067619Y-9248238D01*
X11067619Y-9248238D02*
X11077143Y-9267286D01*
X11077143Y-9267286D02*
X11077143Y-9324429D01*
X11077143Y-9324429D02*
X11067619Y-9343476D01*
X11067619Y-9343476D02*
X11058096Y-9353000D01*
X11058096Y-9353000D02*
X11039048Y-9362524D01*
X11039048Y-9362524D02*
X11010477Y-9362524D01*
X11191429Y-9362524D02*
X11172381Y-9353000D01*
X11172381Y-9353000D02*
X11162858Y-9333952D01*
X11162858Y-9333952D02*
X11162858Y-9162524D01*
X11343810Y-9353000D02*
X11324762Y-9362524D01*
X11324762Y-9362524D02*
X11286667Y-9362524D01*
X11286667Y-9362524D02*
X11267619Y-9353000D01*
X11267619Y-9353000D02*
X11258096Y-9333952D01*
X11258096Y-9333952D02*
X11258096Y-9257762D01*
X11258096Y-9257762D02*
X11267619Y-9238714D01*
X11267619Y-9238714D02*
X11286667Y-9229190D01*
X11286667Y-9229190D02*
X11324762Y-9229190D01*
X11324762Y-9229190D02*
X11343810Y-9238714D01*
X11343810Y-9238714D02*
X11353334Y-9257762D01*
X11353334Y-9257762D02*
X11353334Y-9276810D01*
X11353334Y-9276810D02*
X11258096Y-9295857D01*
X11429524Y-9353000D02*
X11448572Y-9362524D01*
X11448572Y-9362524D02*
X11486667Y-9362524D01*
X11486667Y-9362524D02*
X11505715Y-9353000D01*
X11505715Y-9353000D02*
X11515238Y-9333952D01*
X11515238Y-9333952D02*
X11515238Y-9324429D01*
X11515238Y-9324429D02*
X11505715Y-9305381D01*
X11505715Y-9305381D02*
X11486667Y-9295857D01*
X11486667Y-9295857D02*
X11458096Y-9295857D01*
X11458096Y-9295857D02*
X11439048Y-9286333D01*
X11439048Y-9286333D02*
X11429524Y-9267286D01*
X11429524Y-9267286D02*
X11429524Y-9257762D01*
X11429524Y-9257762D02*
X11439048Y-9238714D01*
X11439048Y-9238714D02*
X11458096Y-9229190D01*
X11458096Y-9229190D02*
X11486667Y-9229190D01*
X11486667Y-9229190D02*
X11505715Y-9238714D01*
X11581905Y-9438714D02*
X11591429Y-9429190D01*
X11591429Y-9429190D02*
X11610477Y-9400619D01*
X11610477Y-9400619D02*
X11620000Y-9381571D01*
X11620000Y-9381571D02*
X11629524Y-9353000D01*
X11629524Y-9353000D02*
X11639048Y-9305381D01*
X11639048Y-9305381D02*
X11639048Y-9267286D01*
X11639048Y-9267286D02*
X11629524Y-9219667D01*
X11629524Y-9219667D02*
X11620000Y-9191095D01*
X11620000Y-9191095D02*
X11610477Y-9172048D01*
X11610477Y-9172048D02*
X11591429Y-9143476D01*
X11591429Y-9143476D02*
X11581905Y-9133952D01*
X11943810Y-9438714D02*
X11934286Y-9429190D01*
X11934286Y-9429190D02*
X11915238Y-9400619D01*
X11915238Y-9400619D02*
X11905715Y-9381571D01*
X11905715Y-9381571D02*
X11896191Y-9353000D01*
X11896191Y-9353000D02*
X11886667Y-9305381D01*
X11886667Y-9305381D02*
X11886667Y-9267286D01*
X11886667Y-9267286D02*
X11896191Y-9219667D01*
X11896191Y-9219667D02*
X11905715Y-9191095D01*
X11905715Y-9191095D02*
X11915238Y-9172048D01*
X11915238Y-9172048D02*
X11934286Y-9143476D01*
X11934286Y-9143476D02*
X11943810Y-9133952D01*
X12020000Y-9229190D02*
X12020000Y-9362524D01*
X12020000Y-9248238D02*
X12029524Y-9238714D01*
X12029524Y-9238714D02*
X12048572Y-9229190D01*
X12048572Y-9229190D02*
X12077143Y-9229190D01*
X12077143Y-9229190D02*
X12096191Y-9238714D01*
X12096191Y-9238714D02*
X12105715Y-9257762D01*
X12105715Y-9257762D02*
X12105715Y-9362524D01*
X12229524Y-9362524D02*
X12210477Y-9353000D01*
X12210477Y-9353000D02*
X12200953Y-9343476D01*
X12200953Y-9343476D02*
X12191429Y-9324429D01*
X12191429Y-9324429D02*
X12191429Y-9267286D01*
X12191429Y-9267286D02*
X12200953Y-9248238D01*
X12200953Y-9248238D02*
X12210477Y-9238714D01*
X12210477Y-9238714D02*
X12229524Y-9229190D01*
X12229524Y-9229190D02*
X12258096Y-9229190D01*
X12258096Y-9229190D02*
X12277143Y-9238714D01*
X12277143Y-9238714D02*
X12286667Y-9248238D01*
X12286667Y-9248238D02*
X12296191Y-9267286D01*
X12296191Y-9267286D02*
X12296191Y-9324429D01*
X12296191Y-9324429D02*
X12286667Y-9343476D01*
X12286667Y-9343476D02*
X12277143Y-9353000D01*
X12277143Y-9353000D02*
X12258096Y-9362524D01*
X12258096Y-9362524D02*
X12229524Y-9362524D01*
X12353334Y-9229190D02*
X12429524Y-9229190D01*
X12381905Y-9162524D02*
X12381905Y-9333952D01*
X12381905Y-9333952D02*
X12391429Y-9353000D01*
X12391429Y-9353000D02*
X12410477Y-9362524D01*
X12410477Y-9362524D02*
X12429524Y-9362524D01*
X12648572Y-9229190D02*
X12648572Y-9429190D01*
X12648572Y-9238714D02*
X12667619Y-9229190D01*
X12667619Y-9229190D02*
X12705715Y-9229190D01*
X12705715Y-9229190D02*
X12724762Y-9238714D01*
X12724762Y-9238714D02*
X12734286Y-9248238D01*
X12734286Y-9248238D02*
X12743810Y-9267286D01*
X12743810Y-9267286D02*
X12743810Y-9324429D01*
X12743810Y-9324429D02*
X12734286Y-9343476D01*
X12734286Y-9343476D02*
X12724762Y-9353000D01*
X12724762Y-9353000D02*
X12705715Y-9362524D01*
X12705715Y-9362524D02*
X12667619Y-9362524D01*
X12667619Y-9362524D02*
X12648572Y-9353000D01*
X12858096Y-9362524D02*
X12839048Y-9353000D01*
X12839048Y-9353000D02*
X12829524Y-9333952D01*
X12829524Y-9333952D02*
X12829524Y-9162524D01*
X13020000Y-9362524D02*
X13020000Y-9257762D01*
X13020000Y-9257762D02*
X13010477Y-9238714D01*
X13010477Y-9238714D02*
X12991429Y-9229190D01*
X12991429Y-9229190D02*
X12953334Y-9229190D01*
X12953334Y-9229190D02*
X12934286Y-9238714D01*
X13020000Y-9353000D02*
X13000953Y-9362524D01*
X13000953Y-9362524D02*
X12953334Y-9362524D01*
X12953334Y-9362524D02*
X12934286Y-9353000D01*
X12934286Y-9353000D02*
X12924762Y-9333952D01*
X12924762Y-9333952D02*
X12924762Y-9314905D01*
X12924762Y-9314905D02*
X12934286Y-9295857D01*
X12934286Y-9295857D02*
X12953334Y-9286333D01*
X12953334Y-9286333D02*
X13000953Y-9286333D01*
X13000953Y-9286333D02*
X13020000Y-9276810D01*
X13086667Y-9229190D02*
X13162858Y-9229190D01*
X13115239Y-9162524D02*
X13115239Y-9333952D01*
X13115239Y-9333952D02*
X13124762Y-9353000D01*
X13124762Y-9353000D02*
X13143810Y-9362524D01*
X13143810Y-9362524D02*
X13162858Y-9362524D01*
X13305715Y-9353000D02*
X13286667Y-9362524D01*
X13286667Y-9362524D02*
X13248572Y-9362524D01*
X13248572Y-9362524D02*
X13229524Y-9353000D01*
X13229524Y-9353000D02*
X13220000Y-9333952D01*
X13220000Y-9333952D02*
X13220000Y-9257762D01*
X13220000Y-9257762D02*
X13229524Y-9238714D01*
X13229524Y-9238714D02*
X13248572Y-9229190D01*
X13248572Y-9229190D02*
X13286667Y-9229190D01*
X13286667Y-9229190D02*
X13305715Y-9238714D01*
X13305715Y-9238714D02*
X13315239Y-9257762D01*
X13315239Y-9257762D02*
X13315239Y-9276810D01*
X13315239Y-9276810D02*
X13220000Y-9295857D01*
X13486667Y-9362524D02*
X13486667Y-9162524D01*
X13486667Y-9353000D02*
X13467620Y-9362524D01*
X13467620Y-9362524D02*
X13429524Y-9362524D01*
X13429524Y-9362524D02*
X13410477Y-9353000D01*
X13410477Y-9353000D02*
X13400953Y-9343476D01*
X13400953Y-9343476D02*
X13391429Y-9324429D01*
X13391429Y-9324429D02*
X13391429Y-9267286D01*
X13391429Y-9267286D02*
X13400953Y-9248238D01*
X13400953Y-9248238D02*
X13410477Y-9238714D01*
X13410477Y-9238714D02*
X13429524Y-9229190D01*
X13429524Y-9229190D02*
X13467620Y-9229190D01*
X13467620Y-9229190D02*
X13486667Y-9238714D01*
X13562858Y-9438714D02*
X13572381Y-9429190D01*
X13572381Y-9429190D02*
X13591429Y-9400619D01*
X13591429Y-9400619D02*
X13600953Y-9381571D01*
X13600953Y-9381571D02*
X13610477Y-9353000D01*
X13610477Y-9353000D02*
X13620000Y-9305381D01*
X13620000Y-9305381D02*
X13620000Y-9267286D01*
X13620000Y-9267286D02*
X13610477Y-9219667D01*
X13610477Y-9219667D02*
X13600953Y-9191095D01*
X13600953Y-9191095D02*
X13591429Y-9172048D01*
X13591429Y-9172048D02*
X13572381Y-9143476D01*
X13572381Y-9143476D02*
X13562858Y-9133952D01*
M02*
