M48
; DRILL file {KiCad 7.0.1} date Mon Sep 18 10:22:10 2023
; FORMAT={-:-/ absolute / inch / decimal}
; #@! TF.CreationDate,2023-09-18T10:22:10-04:00
; #@! TF.GenerationSoftware,Kicad,Pcbnew,7.0.1
; #@! TF.FileFunction,Plated,1,2,PTH
FMAT,2
INCH
; #@! TA.AperFunction,Plated,PTH,ComponentDrill
T1C0.0374
; #@! TA.AperFunction,Plated,PTH,ComponentDrill
T2C0.0394
; #@! TA.AperFunction,Plated,PTH,ComponentDrill
T3C0.0433
; #@! TA.AperFunction,Plated,PTH,ComponentDrill
T4C0.1260
%
G90
G05
T1
X3.189Y-2.9528
X3.2874Y-2.9528
X3.3858Y-2.9528
X3.4843Y-2.9528
X3.5827Y-2.9528
X3.8622Y-2.9567
X3.9606Y-2.9567
X4.0591Y-2.9567
X4.1575Y-2.9567
X4.2559Y-2.9567
T2
X3.2835Y-1.8386
X3.3819Y-1.8386
X3.6811Y-1.8465
X3.7795Y-1.8465
X4.0591Y-1.8425
X4.1575Y-1.8425
X4.5197Y-1.8268
X4.5197Y-1.9252
X4.5827Y-2.9055
X4.5827Y-3.0039
X5.1339Y-2.3661
X5.1339Y-2.4646
T3
X3.1232Y-2.1291
X3.1232Y-2.7291
X3.2232Y-2.1291
X3.2232Y-2.7291
X3.3232Y-2.1291
X3.3232Y-2.7291
X3.4232Y-2.1291
X3.4232Y-2.7291
X3.5232Y-2.1291
X3.5232Y-2.7291
X3.6232Y-2.1291
X3.6232Y-2.7291
X3.7232Y-2.1291
X3.7232Y-2.7291
X3.8232Y-2.1291
X3.8232Y-2.7291
X3.9232Y-2.1291
X3.9232Y-2.7291
X4.0232Y-2.1291
X4.0232Y-2.7291
X4.1232Y-2.1291
X4.1232Y-2.7291
X4.2232Y-2.1291
X4.2232Y-2.7291
T4
X2.8976Y-1.8228
X2.9055Y-3.185
X5.2244Y-1.8228
X5.2283Y-3.185
T0
M30
