%TF.GenerationSoftware,KiCad,Pcbnew,7.0.1*%
%TF.CreationDate,2023-09-18T10:22:05-04:00*%
%TF.ProjectId,Groove Coaster,47726f6f-7665-4204-936f-61737465722e,rev?*%
%TF.SameCoordinates,Original*%
%TF.FileFunction,Copper,L1,Top*%
%TF.FilePolarity,Positive*%
%FSLAX46Y46*%
G04 Gerber Fmt 4.6, Leading zero omitted, Abs format (unit mm)*
G04 Created by KiCad (PCBNEW 7.0.1) date 2023-09-18 10:22:05*
%MOMM*%
%LPD*%
G01*
G04 APERTURE LIST*
G04 Aperture macros list*
%AMRoundRect*
0 Rectangle with rounded corners*
0 $1 Rounding radius*
0 $2 $3 $4 $5 $6 $7 $8 $9 X,Y pos of 4 corners*
0 Add a 4 corners polygon primitive as box body*
4,1,4,$2,$3,$4,$5,$6,$7,$8,$9,$2,$3,0*
0 Add four circle primitives for the rounded corners*
1,1,$1+$1,$2,$3*
1,1,$1+$1,$4,$5*
1,1,$1+$1,$6,$7*
1,1,$1+$1,$8,$9*
0 Add four rect primitives between the rounded corners*
20,1,$1+$1,$2,$3,$4,$5,0*
20,1,$1+$1,$4,$5,$6,$7,0*
20,1,$1+$1,$6,$7,$8,$9,0*
20,1,$1+$1,$8,$9,$2,$3,0*%
G04 Aperture macros list end*
%TA.AperFunction,ComponentPad*%
%ADD10RoundRect,0.250000X-0.600000X-0.750000X0.600000X-0.750000X0.600000X0.750000X-0.600000X0.750000X0*%
%TD*%
%TA.AperFunction,ComponentPad*%
%ADD11O,1.700000X2.000000*%
%TD*%
%TA.AperFunction,ComponentPad*%
%ADD12RoundRect,0.250000X0.750000X-0.600000X0.750000X0.600000X-0.750000X0.600000X-0.750000X-0.600000X0*%
%TD*%
%TA.AperFunction,ComponentPad*%
%ADD13O,2.000000X1.700000*%
%TD*%
%TA.AperFunction,SMDPad,CuDef*%
%ADD14RoundRect,0.250000X-0.625000X0.312500X-0.625000X-0.312500X0.625000X-0.312500X0.625000X0.312500X0*%
%TD*%
%TA.AperFunction,SMDPad,CuDef*%
%ADD15RoundRect,0.250000X0.625000X-0.312500X0.625000X0.312500X-0.625000X0.312500X-0.625000X-0.312500X0*%
%TD*%
%TA.AperFunction,ComponentPad*%
%ADD16C,6.400000*%
%TD*%
%TA.AperFunction,ComponentPad*%
%ADD17R,1.600000X1.600000*%
%TD*%
%TA.AperFunction,ComponentPad*%
%ADD18C,1.600000*%
%TD*%
%TA.AperFunction,ComponentPad*%
%ADD19RoundRect,0.250000X-0.600000X-0.725000X0.600000X-0.725000X0.600000X0.725000X-0.600000X0.725000X0*%
%TD*%
%TA.AperFunction,ComponentPad*%
%ADD20O,1.700000X1.950000*%
%TD*%
%TA.AperFunction,Conductor*%
%ADD21C,0.250000*%
%TD*%
G04 APERTURE END LIST*
D10*
%TO.P,BT1,1,1*%
%TO.N,Net-(U1-B2)*%
X83400000Y-46700000D03*
D11*
%TO.P,BT1,2,2*%
%TO.N,Net-(BT1-Pad2)*%
X85900000Y-46700000D03*
%TD*%
D10*
%TO.P,BT2,1,1*%
%TO.N,Net-(U1-B3)*%
X93500000Y-46900000D03*
D11*
%TO.P,BT2,2,2*%
%TO.N,Net-(BT2-Pad2)*%
X96000000Y-46900000D03*
%TD*%
D10*
%TO.P,BT3,1,1*%
%TO.N,Net-(U1-B1)*%
X103100000Y-46800000D03*
D11*
%TO.P,BT3,2,2*%
%TO.N,Net-(BT3-Pad2)*%
X105600000Y-46800000D03*
%TD*%
D12*
%TO.P,LED1,1,-*%
%TO.N,Net-(LED1--)*%
X130400000Y-62600000D03*
D13*
%TO.P,LED1,2,+*%
%TO.N,Net-(LED1-+)*%
X130400000Y-60100000D03*
%TD*%
D12*
%TO.P,LED2,1,-*%
%TO.N,Net-(LED2--)*%
X116400000Y-76300000D03*
D13*
%TO.P,LED2,2,+*%
%TO.N,Net-(LED2-+)*%
X116400000Y-73800000D03*
%TD*%
D12*
%TO.P,LED3,1,-*%
%TO.N,Net-(LED3--)*%
X114800000Y-48900000D03*
D13*
%TO.P,LED3,2,+*%
%TO.N,Net-(LED3-+)*%
X114800000Y-46400000D03*
%TD*%
D14*
%TO.P,R1,1*%
%TO.N,Net-(BT1-Pad2)*%
X111700000Y-53775000D03*
%TO.P,R1,2*%
%TO.N,Net-(R1-Pad2)*%
X111700000Y-56700000D03*
%TD*%
D15*
%TO.P,R2,1*%
%TO.N,Net-(BT2-Pad2)*%
X121900000Y-59225000D03*
%TO.P,R2,2*%
%TO.N,Net-(R1-Pad2)*%
X121900000Y-56300000D03*
%TD*%
D14*
%TO.P,R3,1*%
%TO.N,Net-(BT3-Pad2)*%
X121900000Y-62200000D03*
%TO.P,R3,2*%
%TO.N,Net-(R1-Pad2)*%
X121900000Y-65125000D03*
%TD*%
D15*
%TO.P,R4,1*%
%TO.N,Net-(J1-Pin_5)*%
X111800000Y-67362500D03*
%TO.P,R4,2*%
%TO.N,Net-(R1-Pad2)*%
X111800000Y-64437500D03*
%TD*%
%TO.P,R5,1*%
%TO.N,Net-(J2-Pin_5)*%
X111600000Y-62000000D03*
%TO.P,R5,2*%
%TO.N,Net-(R1-Pad2)*%
X111600000Y-59075000D03*
%TD*%
%TO.P,R12,1*%
%TO.N,Net-(LED1-+)*%
X116600000Y-56825000D03*
%TO.P,R12,2*%
%TO.N,Net-(R1-Pad2)*%
X116600000Y-53900000D03*
%TD*%
%TO.P,R13,1*%
%TO.N,Net-(LED2-+)*%
X116600000Y-61925000D03*
%TO.P,R13,2*%
%TO.N,Net-(R1-Pad2)*%
X116600000Y-59000000D03*
%TD*%
%TO.P,R14,1*%
%TO.N,Net-(LED3-+)*%
X116600000Y-67325000D03*
%TO.P,R14,2*%
%TO.N,Net-(R1-Pad2)*%
X116600000Y-64400000D03*
%TD*%
D16*
%TO.P,REF\u002A\u002A,1*%
%TO.N,N/C*%
X73800000Y-80900000D03*
%TD*%
%TO.P,REF\u002A\u002A,1*%
%TO.N,N/C*%
X73600000Y-46300000D03*
%TD*%
D17*
%TO.P,U1,1,TX*%
%TO.N,unconnected-(U1-TX-Pad1)*%
X79330000Y-69320000D03*
D18*
%TO.P,U1,2,RX*%
%TO.N,unconnected-(U1-RX-Pad2)*%
X81870000Y-69320000D03*
%TO.P,U1,3,GND*%
%TO.N,Net-(R1-Pad2)*%
X84410000Y-69320000D03*
%TO.P,U1,4,GND*%
%TO.N,unconnected-(U1-GND-Pad4)*%
X86950000Y-69320000D03*
%TO.P,U1,5,SDA*%
%TO.N,Net-(J1-Pin_1)*%
X89490000Y-69320000D03*
%TO.P,U1,6,SCL*%
%TO.N,Net-(J1-Pin_2)*%
X92030000Y-69320000D03*
%TO.P,U1,7,D4*%
%TO.N,Net-(J1-Pin_4)*%
X94570000Y-69320000D03*
%TO.P,U1,8,C6*%
%TO.N,Net-(J1-Pin_3)*%
X97110000Y-69320000D03*
%TO.P,U1,9,D7*%
%TO.N,Net-(J2-Pin_3)*%
X99650000Y-69320000D03*
%TO.P,U1,10,E6*%
%TO.N,Net-(J2-Pin_4)*%
X102190000Y-69320000D03*
%TO.P,U1,11,B4*%
%TO.N,Net-(J2-Pin_2)*%
X104730000Y-69320000D03*
%TO.P,U1,12,B5*%
%TO.N,Net-(J2-Pin_1)*%
X107270000Y-69320000D03*
%TO.P,U1,13,B6*%
%TO.N,unconnected-(U1-B6-Pad13)*%
X107270000Y-54080000D03*
%TO.P,U1,14,B2*%
%TO.N,Net-(U1-B2)*%
X104730000Y-54080000D03*
%TO.P,U1,15,B3*%
%TO.N,Net-(U1-B3)*%
X102190000Y-54080000D03*
%TO.P,U1,16,B1*%
%TO.N,Net-(U1-B1)*%
X99650000Y-54080000D03*
%TO.P,U1,17,F7*%
%TO.N,Net-(LED1--)*%
X97110000Y-54080000D03*
%TO.P,U1,18,F6*%
%TO.N,Net-(LED2--)*%
X94570000Y-54080000D03*
%TO.P,U1,19,F5*%
%TO.N,Net-(LED3--)*%
X92030000Y-54080000D03*
%TO.P,U1,20,F4*%
%TO.N,unconnected-(U1-F4-Pad20)*%
X89490000Y-54080000D03*
%TO.P,U1,21,VCC*%
%TO.N,unconnected-(U1-VCC-Pad21)*%
X86950000Y-54080000D03*
%TO.P,U1,22,RST*%
%TO.N,unconnected-(U1-RST-Pad22)*%
X84410000Y-54080000D03*
%TO.P,U1,23,GND*%
%TO.N,unconnected-(U1-GND-Pad23)*%
X81870000Y-54080000D03*
%TO.P,U1,24,RAW*%
%TO.N,unconnected-(U1-RAW-Pad24)*%
X79330000Y-54080000D03*
%TD*%
D16*
%TO.P,REF\u002A\u002A,1*%
%TO.N,N/C*%
X132700000Y-46300000D03*
%TD*%
%TO.P,REF\u002A\u002A,1*%
%TO.N,N/C*%
X132800000Y-80900000D03*
%TD*%
D19*
%TO.P,J1,1,Pin_1*%
%TO.N,Net-(J1-Pin_1)*%
X81000000Y-75000000D03*
D20*
%TO.P,J1,2,Pin_2*%
%TO.N,Net-(J1-Pin_2)*%
X83500000Y-75000000D03*
%TO.P,J1,3,Pin_3*%
%TO.N,Net-(J1-Pin_3)*%
X86000000Y-75000000D03*
%TO.P,J1,4,Pin_4*%
%TO.N,Net-(J1-Pin_4)*%
X88500000Y-75000000D03*
%TO.P,J1,5,Pin_5*%
%TO.N,Net-(J1-Pin_5)*%
X91000000Y-75000000D03*
%TD*%
D19*
%TO.P,J2,1,Pin_1*%
%TO.N,Net-(J2-Pin_1)*%
X98100000Y-75100000D03*
D20*
%TO.P,J2,2,Pin_2*%
%TO.N,Net-(J2-Pin_2)*%
X100600000Y-75100000D03*
%TO.P,J2,3,Pin_3*%
%TO.N,Net-(J2-Pin_3)*%
X103100000Y-75100000D03*
%TO.P,J2,4,Pin_4*%
%TO.N,Net-(J2-Pin_4)*%
X105600000Y-75100000D03*
%TO.P,J2,5,Pin_5*%
%TO.N,Net-(J2-Pin_5)*%
X108100000Y-75100000D03*
%TD*%
D21*
%TO.N,Net-(BT1-Pad2)*%
X109529600Y-51604600D02*
X91979700Y-51604600D01*
X85900000Y-46700000D02*
X87075100Y-46700000D01*
X111700000Y-53775000D02*
X109529600Y-51604600D01*
X91979700Y-51604600D02*
X87075100Y-46700000D01*
%TO.N,Net-(U1-B2)*%
X102968500Y-52318500D02*
X89018500Y-52318500D01*
X89018500Y-52318500D02*
X83400000Y-46700000D01*
X104730000Y-54080000D02*
X102968500Y-52318500D01*
%TO.N,Net-(BT2-Pad2)*%
X99812500Y-49537400D02*
X97175100Y-46900000D01*
X108712700Y-49537400D02*
X99812500Y-49537400D01*
X112061600Y-52886300D02*
X108712700Y-49537400D01*
X120281800Y-52886300D02*
X112061600Y-52886300D01*
X121900000Y-59225000D02*
X123109700Y-58015300D01*
X123109700Y-58015300D02*
X123109700Y-55714200D01*
X96000000Y-46900000D02*
X97175100Y-46900000D01*
X123109700Y-55714200D02*
X120281800Y-52886300D01*
%TO.N,Net-(BT3-Pad2)*%
X119186600Y-51154400D02*
X111129500Y-51154400D01*
X121900000Y-62200000D02*
X123568400Y-60531600D01*
X123568400Y-60531600D02*
X123568400Y-55536200D01*
X123568400Y-55536200D02*
X119186600Y-51154400D01*
X105600000Y-46800000D02*
X106775100Y-46800000D01*
X111129500Y-51154400D02*
X106775100Y-46800000D01*
%TO.N,Net-(LED1-+)*%
X130400000Y-60100000D02*
X130400000Y-61275100D01*
X121006200Y-63089100D02*
X127410900Y-63089100D01*
X129224900Y-61275100D02*
X130400000Y-61275100D01*
X120500400Y-62583300D02*
X121006200Y-63089100D01*
X120500400Y-60725400D02*
X120500400Y-62583300D01*
X116600000Y-56825000D02*
X120500400Y-60725400D01*
X127410900Y-63089100D02*
X129224900Y-61275100D01*
%TO.N,Net-(LED2-+)*%
X115347400Y-63177600D02*
X115347400Y-71572300D01*
X116600000Y-61925000D02*
X115347400Y-63177600D01*
X115347400Y-71572300D02*
X116400000Y-72624900D01*
X116400000Y-73800000D02*
X116400000Y-72624900D01*
%TO.N,Net-(LED3-+)*%
X131753700Y-63453100D02*
X127881800Y-67325000D01*
X127881800Y-67325000D02*
X116600000Y-67325000D01*
X131753700Y-59597200D02*
X131753700Y-63453100D01*
X114800000Y-46400000D02*
X118556500Y-46400000D01*
X118556500Y-46400000D02*
X131753700Y-59597200D01*
%TO.N,Net-(R1-Pad2)*%
X116600000Y-64400000D02*
X117814300Y-64400000D01*
X115344500Y-57744500D02*
X116600000Y-59000000D01*
X117814300Y-60214300D02*
X117814300Y-64400000D01*
X90756200Y-62973800D02*
X110336300Y-62973800D01*
X116600000Y-59000000D02*
X117814300Y-60214300D01*
X115344500Y-55528300D02*
X116600000Y-54272800D01*
X111600000Y-59075000D02*
X110336300Y-60338700D01*
X116600000Y-54272800D02*
X116600000Y-53900000D01*
X119872800Y-54272800D02*
X121900000Y-56300000D01*
X110336300Y-62973800D02*
X111800000Y-64437500D01*
X110336300Y-60338700D02*
X110336300Y-62973800D01*
X115344500Y-57612500D02*
X115344500Y-55528300D01*
X117814300Y-64400000D02*
X121175000Y-64400000D01*
X115344500Y-57612500D02*
X115344500Y-57744500D01*
X84410000Y-69320000D02*
X90756200Y-62973800D01*
X121175000Y-64400000D02*
X121900000Y-65125000D01*
X116600000Y-54272800D02*
X119872800Y-54272800D01*
X111700000Y-57612500D02*
X111700000Y-58975000D01*
X111700000Y-56700000D02*
X111700000Y-57612500D01*
X111700000Y-58975000D02*
X111600000Y-59075000D01*
X111700000Y-57612500D02*
X115344500Y-57612500D01*
%TO.N,Net-(J1-Pin_3)*%
X92782800Y-73647200D02*
X87992400Y-73647200D01*
X97110000Y-69320000D02*
X92782800Y-73647200D01*
X86000000Y-75000000D02*
X87175100Y-75000000D01*
X87175100Y-74464500D02*
X87175100Y-75000000D01*
X87992400Y-73647200D02*
X87175100Y-74464500D01*
%TO.N,Net-(J1-Pin_5)*%
X94950200Y-72224900D02*
X92175100Y-75000000D01*
X106937600Y-72224900D02*
X94950200Y-72224900D01*
X91000000Y-75000000D02*
X92175100Y-75000000D01*
X111800000Y-67362500D02*
X106937600Y-72224900D01*
%TO.N,Net-(J2-Pin_5)*%
X113002100Y-71373000D02*
X109275100Y-75100000D01*
X108100000Y-75100000D02*
X109275100Y-75100000D01*
X111600000Y-62000000D02*
X113002100Y-63402100D01*
X113002100Y-63402100D02*
X113002100Y-71373000D01*
%TD*%
M02*
