%TF.GenerationSoftware,KiCad,Pcbnew,7.0.1*%
%TF.CreationDate,2023-09-03T20:42:36-04:00*%
%TF.ProjectId,Groove Coaster,47726f6f-7665-4204-936f-61737465722e,rev?*%
%TF.SameCoordinates,Original*%
%TF.FileFunction,Legend,Top*%
%TF.FilePolarity,Positive*%
%FSLAX46Y46*%
G04 Gerber Fmt 4.6, Leading zero omitted, Abs format (unit mm)*
G04 Created by KiCad (PCBNEW 7.0.1) date 2023-09-03 20:42:36*
%MOMM*%
%LPD*%
G01*
G04 APERTURE LIST*
%ADD10C,0.150000*%
%ADD11C,0.120000*%
G04 APERTURE END LIST*
D10*
%TO.C,BT1*%
X83864285Y-43088809D02*
X84007142Y-43136428D01*
X84007142Y-43136428D02*
X84054761Y-43184047D01*
X84054761Y-43184047D02*
X84102380Y-43279285D01*
X84102380Y-43279285D02*
X84102380Y-43422142D01*
X84102380Y-43422142D02*
X84054761Y-43517380D01*
X84054761Y-43517380D02*
X84007142Y-43565000D01*
X84007142Y-43565000D02*
X83911904Y-43612619D01*
X83911904Y-43612619D02*
X83530952Y-43612619D01*
X83530952Y-43612619D02*
X83530952Y-42612619D01*
X83530952Y-42612619D02*
X83864285Y-42612619D01*
X83864285Y-42612619D02*
X83959523Y-42660238D01*
X83959523Y-42660238D02*
X84007142Y-42707857D01*
X84007142Y-42707857D02*
X84054761Y-42803095D01*
X84054761Y-42803095D02*
X84054761Y-42898333D01*
X84054761Y-42898333D02*
X84007142Y-42993571D01*
X84007142Y-42993571D02*
X83959523Y-43041190D01*
X83959523Y-43041190D02*
X83864285Y-43088809D01*
X83864285Y-43088809D02*
X83530952Y-43088809D01*
X84388095Y-42612619D02*
X84959523Y-42612619D01*
X84673809Y-43612619D02*
X84673809Y-42612619D01*
X85816666Y-43612619D02*
X85245238Y-43612619D01*
X85530952Y-43612619D02*
X85530952Y-42612619D01*
X85530952Y-42612619D02*
X85435714Y-42755476D01*
X85435714Y-42755476D02*
X85340476Y-42850714D01*
X85340476Y-42850714D02*
X85245238Y-42898333D01*
%TO.C,BT2*%
X93964285Y-43288809D02*
X94107142Y-43336428D01*
X94107142Y-43336428D02*
X94154761Y-43384047D01*
X94154761Y-43384047D02*
X94202380Y-43479285D01*
X94202380Y-43479285D02*
X94202380Y-43622142D01*
X94202380Y-43622142D02*
X94154761Y-43717380D01*
X94154761Y-43717380D02*
X94107142Y-43765000D01*
X94107142Y-43765000D02*
X94011904Y-43812619D01*
X94011904Y-43812619D02*
X93630952Y-43812619D01*
X93630952Y-43812619D02*
X93630952Y-42812619D01*
X93630952Y-42812619D02*
X93964285Y-42812619D01*
X93964285Y-42812619D02*
X94059523Y-42860238D01*
X94059523Y-42860238D02*
X94107142Y-42907857D01*
X94107142Y-42907857D02*
X94154761Y-43003095D01*
X94154761Y-43003095D02*
X94154761Y-43098333D01*
X94154761Y-43098333D02*
X94107142Y-43193571D01*
X94107142Y-43193571D02*
X94059523Y-43241190D01*
X94059523Y-43241190D02*
X93964285Y-43288809D01*
X93964285Y-43288809D02*
X93630952Y-43288809D01*
X94488095Y-42812619D02*
X95059523Y-42812619D01*
X94773809Y-43812619D02*
X94773809Y-42812619D01*
X95345238Y-42907857D02*
X95392857Y-42860238D01*
X95392857Y-42860238D02*
X95488095Y-42812619D01*
X95488095Y-42812619D02*
X95726190Y-42812619D01*
X95726190Y-42812619D02*
X95821428Y-42860238D01*
X95821428Y-42860238D02*
X95869047Y-42907857D01*
X95869047Y-42907857D02*
X95916666Y-43003095D01*
X95916666Y-43003095D02*
X95916666Y-43098333D01*
X95916666Y-43098333D02*
X95869047Y-43241190D01*
X95869047Y-43241190D02*
X95297619Y-43812619D01*
X95297619Y-43812619D02*
X95916666Y-43812619D01*
%TO.C,BT3*%
X103564285Y-43188809D02*
X103707142Y-43236428D01*
X103707142Y-43236428D02*
X103754761Y-43284047D01*
X103754761Y-43284047D02*
X103802380Y-43379285D01*
X103802380Y-43379285D02*
X103802380Y-43522142D01*
X103802380Y-43522142D02*
X103754761Y-43617380D01*
X103754761Y-43617380D02*
X103707142Y-43665000D01*
X103707142Y-43665000D02*
X103611904Y-43712619D01*
X103611904Y-43712619D02*
X103230952Y-43712619D01*
X103230952Y-43712619D02*
X103230952Y-42712619D01*
X103230952Y-42712619D02*
X103564285Y-42712619D01*
X103564285Y-42712619D02*
X103659523Y-42760238D01*
X103659523Y-42760238D02*
X103707142Y-42807857D01*
X103707142Y-42807857D02*
X103754761Y-42903095D01*
X103754761Y-42903095D02*
X103754761Y-42998333D01*
X103754761Y-42998333D02*
X103707142Y-43093571D01*
X103707142Y-43093571D02*
X103659523Y-43141190D01*
X103659523Y-43141190D02*
X103564285Y-43188809D01*
X103564285Y-43188809D02*
X103230952Y-43188809D01*
X104088095Y-42712619D02*
X104659523Y-42712619D01*
X104373809Y-43712619D02*
X104373809Y-42712619D01*
X104897619Y-42712619D02*
X105516666Y-42712619D01*
X105516666Y-42712619D02*
X105183333Y-43093571D01*
X105183333Y-43093571D02*
X105326190Y-43093571D01*
X105326190Y-43093571D02*
X105421428Y-43141190D01*
X105421428Y-43141190D02*
X105469047Y-43188809D01*
X105469047Y-43188809D02*
X105516666Y-43284047D01*
X105516666Y-43284047D02*
X105516666Y-43522142D01*
X105516666Y-43522142D02*
X105469047Y-43617380D01*
X105469047Y-43617380D02*
X105421428Y-43665000D01*
X105421428Y-43665000D02*
X105326190Y-43712619D01*
X105326190Y-43712619D02*
X105040476Y-43712619D01*
X105040476Y-43712619D02*
X104945238Y-43665000D01*
X104945238Y-43665000D02*
X104897619Y-43617380D01*
%TO.C,LED1*%
X127312619Y-62469047D02*
X127312619Y-62945237D01*
X127312619Y-62945237D02*
X126312619Y-62945237D01*
X126788809Y-62135713D02*
X126788809Y-61802380D01*
X127312619Y-61659523D02*
X127312619Y-62135713D01*
X127312619Y-62135713D02*
X126312619Y-62135713D01*
X126312619Y-62135713D02*
X126312619Y-61659523D01*
X127312619Y-61230951D02*
X126312619Y-61230951D01*
X126312619Y-61230951D02*
X126312619Y-60992856D01*
X126312619Y-60992856D02*
X126360238Y-60849999D01*
X126360238Y-60849999D02*
X126455476Y-60754761D01*
X126455476Y-60754761D02*
X126550714Y-60707142D01*
X126550714Y-60707142D02*
X126741190Y-60659523D01*
X126741190Y-60659523D02*
X126884047Y-60659523D01*
X126884047Y-60659523D02*
X127074523Y-60707142D01*
X127074523Y-60707142D02*
X127169761Y-60754761D01*
X127169761Y-60754761D02*
X127265000Y-60849999D01*
X127265000Y-60849999D02*
X127312619Y-60992856D01*
X127312619Y-60992856D02*
X127312619Y-61230951D01*
X127312619Y-59707142D02*
X127312619Y-60278570D01*
X127312619Y-59992856D02*
X126312619Y-59992856D01*
X126312619Y-59992856D02*
X126455476Y-60088094D01*
X126455476Y-60088094D02*
X126550714Y-60183332D01*
X126550714Y-60183332D02*
X126598333Y-60278570D01*
%TO.C,LED2*%
X113312619Y-76169047D02*
X113312619Y-76645237D01*
X113312619Y-76645237D02*
X112312619Y-76645237D01*
X112788809Y-75835713D02*
X112788809Y-75502380D01*
X113312619Y-75359523D02*
X113312619Y-75835713D01*
X113312619Y-75835713D02*
X112312619Y-75835713D01*
X112312619Y-75835713D02*
X112312619Y-75359523D01*
X113312619Y-74930951D02*
X112312619Y-74930951D01*
X112312619Y-74930951D02*
X112312619Y-74692856D01*
X112312619Y-74692856D02*
X112360238Y-74549999D01*
X112360238Y-74549999D02*
X112455476Y-74454761D01*
X112455476Y-74454761D02*
X112550714Y-74407142D01*
X112550714Y-74407142D02*
X112741190Y-74359523D01*
X112741190Y-74359523D02*
X112884047Y-74359523D01*
X112884047Y-74359523D02*
X113074523Y-74407142D01*
X113074523Y-74407142D02*
X113169761Y-74454761D01*
X113169761Y-74454761D02*
X113265000Y-74549999D01*
X113265000Y-74549999D02*
X113312619Y-74692856D01*
X113312619Y-74692856D02*
X113312619Y-74930951D01*
X112407857Y-73978570D02*
X112360238Y-73930951D01*
X112360238Y-73930951D02*
X112312619Y-73835713D01*
X112312619Y-73835713D02*
X112312619Y-73597618D01*
X112312619Y-73597618D02*
X112360238Y-73502380D01*
X112360238Y-73502380D02*
X112407857Y-73454761D01*
X112407857Y-73454761D02*
X112503095Y-73407142D01*
X112503095Y-73407142D02*
X112598333Y-73407142D01*
X112598333Y-73407142D02*
X112741190Y-73454761D01*
X112741190Y-73454761D02*
X113312619Y-74026189D01*
X113312619Y-74026189D02*
X113312619Y-73407142D01*
%TO.C,LED3*%
X111712619Y-48769047D02*
X111712619Y-49245237D01*
X111712619Y-49245237D02*
X110712619Y-49245237D01*
X111188809Y-48435713D02*
X111188809Y-48102380D01*
X111712619Y-47959523D02*
X111712619Y-48435713D01*
X111712619Y-48435713D02*
X110712619Y-48435713D01*
X110712619Y-48435713D02*
X110712619Y-47959523D01*
X111712619Y-47530951D02*
X110712619Y-47530951D01*
X110712619Y-47530951D02*
X110712619Y-47292856D01*
X110712619Y-47292856D02*
X110760238Y-47149999D01*
X110760238Y-47149999D02*
X110855476Y-47054761D01*
X110855476Y-47054761D02*
X110950714Y-47007142D01*
X110950714Y-47007142D02*
X111141190Y-46959523D01*
X111141190Y-46959523D02*
X111284047Y-46959523D01*
X111284047Y-46959523D02*
X111474523Y-47007142D01*
X111474523Y-47007142D02*
X111569761Y-47054761D01*
X111569761Y-47054761D02*
X111665000Y-47149999D01*
X111665000Y-47149999D02*
X111712619Y-47292856D01*
X111712619Y-47292856D02*
X111712619Y-47530951D01*
X110712619Y-46626189D02*
X110712619Y-46007142D01*
X110712619Y-46007142D02*
X111093571Y-46340475D01*
X111093571Y-46340475D02*
X111093571Y-46197618D01*
X111093571Y-46197618D02*
X111141190Y-46102380D01*
X111141190Y-46102380D02*
X111188809Y-46054761D01*
X111188809Y-46054761D02*
X111284047Y-46007142D01*
X111284047Y-46007142D02*
X111522142Y-46007142D01*
X111522142Y-46007142D02*
X111617380Y-46054761D01*
X111617380Y-46054761D02*
X111665000Y-46102380D01*
X111665000Y-46102380D02*
X111712619Y-46197618D01*
X111712619Y-46197618D02*
X111712619Y-46483332D01*
X111712619Y-46483332D02*
X111665000Y-46578570D01*
X111665000Y-46578570D02*
X111617380Y-46626189D01*
%TO.C,R1*%
X113982619Y-55404166D02*
X113506428Y-55737499D01*
X113982619Y-55975594D02*
X112982619Y-55975594D01*
X112982619Y-55975594D02*
X112982619Y-55594642D01*
X112982619Y-55594642D02*
X113030238Y-55499404D01*
X113030238Y-55499404D02*
X113077857Y-55451785D01*
X113077857Y-55451785D02*
X113173095Y-55404166D01*
X113173095Y-55404166D02*
X113315952Y-55404166D01*
X113315952Y-55404166D02*
X113411190Y-55451785D01*
X113411190Y-55451785D02*
X113458809Y-55499404D01*
X113458809Y-55499404D02*
X113506428Y-55594642D01*
X113506428Y-55594642D02*
X113506428Y-55975594D01*
X113982619Y-54451785D02*
X113982619Y-55023213D01*
X113982619Y-54737499D02*
X112982619Y-54737499D01*
X112982619Y-54737499D02*
X113125476Y-54832737D01*
X113125476Y-54832737D02*
X113220714Y-54927975D01*
X113220714Y-54927975D02*
X113268333Y-55023213D01*
%TO.C,R2*%
X120542619Y-57929166D02*
X120066428Y-58262499D01*
X120542619Y-58500594D02*
X119542619Y-58500594D01*
X119542619Y-58500594D02*
X119542619Y-58119642D01*
X119542619Y-58119642D02*
X119590238Y-58024404D01*
X119590238Y-58024404D02*
X119637857Y-57976785D01*
X119637857Y-57976785D02*
X119733095Y-57929166D01*
X119733095Y-57929166D02*
X119875952Y-57929166D01*
X119875952Y-57929166D02*
X119971190Y-57976785D01*
X119971190Y-57976785D02*
X120018809Y-58024404D01*
X120018809Y-58024404D02*
X120066428Y-58119642D01*
X120066428Y-58119642D02*
X120066428Y-58500594D01*
X119637857Y-57548213D02*
X119590238Y-57500594D01*
X119590238Y-57500594D02*
X119542619Y-57405356D01*
X119542619Y-57405356D02*
X119542619Y-57167261D01*
X119542619Y-57167261D02*
X119590238Y-57072023D01*
X119590238Y-57072023D02*
X119637857Y-57024404D01*
X119637857Y-57024404D02*
X119733095Y-56976785D01*
X119733095Y-56976785D02*
X119828333Y-56976785D01*
X119828333Y-56976785D02*
X119971190Y-57024404D01*
X119971190Y-57024404D02*
X120542619Y-57595832D01*
X120542619Y-57595832D02*
X120542619Y-56976785D01*
%TO.C,R3*%
X124182619Y-63829166D02*
X123706428Y-64162499D01*
X124182619Y-64400594D02*
X123182619Y-64400594D01*
X123182619Y-64400594D02*
X123182619Y-64019642D01*
X123182619Y-64019642D02*
X123230238Y-63924404D01*
X123230238Y-63924404D02*
X123277857Y-63876785D01*
X123277857Y-63876785D02*
X123373095Y-63829166D01*
X123373095Y-63829166D02*
X123515952Y-63829166D01*
X123515952Y-63829166D02*
X123611190Y-63876785D01*
X123611190Y-63876785D02*
X123658809Y-63924404D01*
X123658809Y-63924404D02*
X123706428Y-64019642D01*
X123706428Y-64019642D02*
X123706428Y-64400594D01*
X123182619Y-63495832D02*
X123182619Y-62876785D01*
X123182619Y-62876785D02*
X123563571Y-63210118D01*
X123563571Y-63210118D02*
X123563571Y-63067261D01*
X123563571Y-63067261D02*
X123611190Y-62972023D01*
X123611190Y-62972023D02*
X123658809Y-62924404D01*
X123658809Y-62924404D02*
X123754047Y-62876785D01*
X123754047Y-62876785D02*
X123992142Y-62876785D01*
X123992142Y-62876785D02*
X124087380Y-62924404D01*
X124087380Y-62924404D02*
X124135000Y-62972023D01*
X124135000Y-62972023D02*
X124182619Y-63067261D01*
X124182619Y-63067261D02*
X124182619Y-63352975D01*
X124182619Y-63352975D02*
X124135000Y-63448213D01*
X124135000Y-63448213D02*
X124087380Y-63495832D01*
%TO.C,R4*%
X110442619Y-66066666D02*
X109966428Y-66399999D01*
X110442619Y-66638094D02*
X109442619Y-66638094D01*
X109442619Y-66638094D02*
X109442619Y-66257142D01*
X109442619Y-66257142D02*
X109490238Y-66161904D01*
X109490238Y-66161904D02*
X109537857Y-66114285D01*
X109537857Y-66114285D02*
X109633095Y-66066666D01*
X109633095Y-66066666D02*
X109775952Y-66066666D01*
X109775952Y-66066666D02*
X109871190Y-66114285D01*
X109871190Y-66114285D02*
X109918809Y-66161904D01*
X109918809Y-66161904D02*
X109966428Y-66257142D01*
X109966428Y-66257142D02*
X109966428Y-66638094D01*
X109775952Y-65209523D02*
X110442619Y-65209523D01*
X109395000Y-65447618D02*
X110109285Y-65685713D01*
X110109285Y-65685713D02*
X110109285Y-65066666D01*
%TO.C,R5*%
X110242619Y-60704166D02*
X109766428Y-61037499D01*
X110242619Y-61275594D02*
X109242619Y-61275594D01*
X109242619Y-61275594D02*
X109242619Y-60894642D01*
X109242619Y-60894642D02*
X109290238Y-60799404D01*
X109290238Y-60799404D02*
X109337857Y-60751785D01*
X109337857Y-60751785D02*
X109433095Y-60704166D01*
X109433095Y-60704166D02*
X109575952Y-60704166D01*
X109575952Y-60704166D02*
X109671190Y-60751785D01*
X109671190Y-60751785D02*
X109718809Y-60799404D01*
X109718809Y-60799404D02*
X109766428Y-60894642D01*
X109766428Y-60894642D02*
X109766428Y-61275594D01*
X109242619Y-59799404D02*
X109242619Y-60275594D01*
X109242619Y-60275594D02*
X109718809Y-60323213D01*
X109718809Y-60323213D02*
X109671190Y-60275594D01*
X109671190Y-60275594D02*
X109623571Y-60180356D01*
X109623571Y-60180356D02*
X109623571Y-59942261D01*
X109623571Y-59942261D02*
X109671190Y-59847023D01*
X109671190Y-59847023D02*
X109718809Y-59799404D01*
X109718809Y-59799404D02*
X109814047Y-59751785D01*
X109814047Y-59751785D02*
X110052142Y-59751785D01*
X110052142Y-59751785D02*
X110147380Y-59799404D01*
X110147380Y-59799404D02*
X110195000Y-59847023D01*
X110195000Y-59847023D02*
X110242619Y-59942261D01*
X110242619Y-59942261D02*
X110242619Y-60180356D01*
X110242619Y-60180356D02*
X110195000Y-60275594D01*
X110195000Y-60275594D02*
X110147380Y-60323213D01*
%TO.C,R12*%
X115242619Y-56005357D02*
X114766428Y-56338690D01*
X115242619Y-56576785D02*
X114242619Y-56576785D01*
X114242619Y-56576785D02*
X114242619Y-56195833D01*
X114242619Y-56195833D02*
X114290238Y-56100595D01*
X114290238Y-56100595D02*
X114337857Y-56052976D01*
X114337857Y-56052976D02*
X114433095Y-56005357D01*
X114433095Y-56005357D02*
X114575952Y-56005357D01*
X114575952Y-56005357D02*
X114671190Y-56052976D01*
X114671190Y-56052976D02*
X114718809Y-56100595D01*
X114718809Y-56100595D02*
X114766428Y-56195833D01*
X114766428Y-56195833D02*
X114766428Y-56576785D01*
X115242619Y-55052976D02*
X115242619Y-55624404D01*
X115242619Y-55338690D02*
X114242619Y-55338690D01*
X114242619Y-55338690D02*
X114385476Y-55433928D01*
X114385476Y-55433928D02*
X114480714Y-55529166D01*
X114480714Y-55529166D02*
X114528333Y-55624404D01*
X114337857Y-54672023D02*
X114290238Y-54624404D01*
X114290238Y-54624404D02*
X114242619Y-54529166D01*
X114242619Y-54529166D02*
X114242619Y-54291071D01*
X114242619Y-54291071D02*
X114290238Y-54195833D01*
X114290238Y-54195833D02*
X114337857Y-54148214D01*
X114337857Y-54148214D02*
X114433095Y-54100595D01*
X114433095Y-54100595D02*
X114528333Y-54100595D01*
X114528333Y-54100595D02*
X114671190Y-54148214D01*
X114671190Y-54148214D02*
X115242619Y-54719642D01*
X115242619Y-54719642D02*
X115242619Y-54100595D01*
%TO.C,R13*%
X115242619Y-61105357D02*
X114766428Y-61438690D01*
X115242619Y-61676785D02*
X114242619Y-61676785D01*
X114242619Y-61676785D02*
X114242619Y-61295833D01*
X114242619Y-61295833D02*
X114290238Y-61200595D01*
X114290238Y-61200595D02*
X114337857Y-61152976D01*
X114337857Y-61152976D02*
X114433095Y-61105357D01*
X114433095Y-61105357D02*
X114575952Y-61105357D01*
X114575952Y-61105357D02*
X114671190Y-61152976D01*
X114671190Y-61152976D02*
X114718809Y-61200595D01*
X114718809Y-61200595D02*
X114766428Y-61295833D01*
X114766428Y-61295833D02*
X114766428Y-61676785D01*
X115242619Y-60152976D02*
X115242619Y-60724404D01*
X115242619Y-60438690D02*
X114242619Y-60438690D01*
X114242619Y-60438690D02*
X114385476Y-60533928D01*
X114385476Y-60533928D02*
X114480714Y-60629166D01*
X114480714Y-60629166D02*
X114528333Y-60724404D01*
X114242619Y-59819642D02*
X114242619Y-59200595D01*
X114242619Y-59200595D02*
X114623571Y-59533928D01*
X114623571Y-59533928D02*
X114623571Y-59391071D01*
X114623571Y-59391071D02*
X114671190Y-59295833D01*
X114671190Y-59295833D02*
X114718809Y-59248214D01*
X114718809Y-59248214D02*
X114814047Y-59200595D01*
X114814047Y-59200595D02*
X115052142Y-59200595D01*
X115052142Y-59200595D02*
X115147380Y-59248214D01*
X115147380Y-59248214D02*
X115195000Y-59295833D01*
X115195000Y-59295833D02*
X115242619Y-59391071D01*
X115242619Y-59391071D02*
X115242619Y-59676785D01*
X115242619Y-59676785D02*
X115195000Y-59772023D01*
X115195000Y-59772023D02*
X115147380Y-59819642D01*
%TO.C,R14*%
X115242619Y-66505357D02*
X114766428Y-66838690D01*
X115242619Y-67076785D02*
X114242619Y-67076785D01*
X114242619Y-67076785D02*
X114242619Y-66695833D01*
X114242619Y-66695833D02*
X114290238Y-66600595D01*
X114290238Y-66600595D02*
X114337857Y-66552976D01*
X114337857Y-66552976D02*
X114433095Y-66505357D01*
X114433095Y-66505357D02*
X114575952Y-66505357D01*
X114575952Y-66505357D02*
X114671190Y-66552976D01*
X114671190Y-66552976D02*
X114718809Y-66600595D01*
X114718809Y-66600595D02*
X114766428Y-66695833D01*
X114766428Y-66695833D02*
X114766428Y-67076785D01*
X115242619Y-65552976D02*
X115242619Y-66124404D01*
X115242619Y-65838690D02*
X114242619Y-65838690D01*
X114242619Y-65838690D02*
X114385476Y-65933928D01*
X114385476Y-65933928D02*
X114480714Y-66029166D01*
X114480714Y-66029166D02*
X114528333Y-66124404D01*
X114575952Y-64695833D02*
X115242619Y-64695833D01*
X114195000Y-64933928D02*
X114909285Y-65172023D01*
X114909285Y-65172023D02*
X114909285Y-64552976D01*
%TO.C,J1*%
X85666666Y-70912619D02*
X85666666Y-71626904D01*
X85666666Y-71626904D02*
X85619047Y-71769761D01*
X85619047Y-71769761D02*
X85523809Y-71865000D01*
X85523809Y-71865000D02*
X85380952Y-71912619D01*
X85380952Y-71912619D02*
X85285714Y-71912619D01*
X86666666Y-71912619D02*
X86095238Y-71912619D01*
X86380952Y-71912619D02*
X86380952Y-70912619D01*
X86380952Y-70912619D02*
X86285714Y-71055476D01*
X86285714Y-71055476D02*
X86190476Y-71150714D01*
X86190476Y-71150714D02*
X86095238Y-71198333D01*
%TO.C,J2*%
X102766666Y-71012619D02*
X102766666Y-71726904D01*
X102766666Y-71726904D02*
X102719047Y-71869761D01*
X102719047Y-71869761D02*
X102623809Y-71965000D01*
X102623809Y-71965000D02*
X102480952Y-72012619D01*
X102480952Y-72012619D02*
X102385714Y-72012619D01*
X103195238Y-71107857D02*
X103242857Y-71060238D01*
X103242857Y-71060238D02*
X103338095Y-71012619D01*
X103338095Y-71012619D02*
X103576190Y-71012619D01*
X103576190Y-71012619D02*
X103671428Y-71060238D01*
X103671428Y-71060238D02*
X103719047Y-71107857D01*
X103719047Y-71107857D02*
X103766666Y-71203095D01*
X103766666Y-71203095D02*
X103766666Y-71298333D01*
X103766666Y-71298333D02*
X103719047Y-71441190D01*
X103719047Y-71441190D02*
X103147619Y-72012619D01*
X103147619Y-72012619D02*
X103766666Y-72012619D01*
D11*
%TO.C,BT1*%
X80550000Y-43950000D02*
X80550000Y-45200000D01*
X80840000Y-44240000D02*
X80840000Y-50210000D01*
X80840000Y-50210000D02*
X88460000Y-50210000D01*
X80850000Y-44250000D02*
X80850000Y-45000000D01*
X80850000Y-45000000D02*
X82650000Y-45000000D01*
X80850000Y-46500000D02*
X81600000Y-46500000D01*
X81600000Y-46500000D02*
X81600000Y-49450000D01*
X81600000Y-49450000D02*
X84650000Y-49450000D01*
X81800000Y-43950000D02*
X80550000Y-43950000D01*
X82650000Y-44250000D02*
X80850000Y-44250000D01*
X82650000Y-45000000D02*
X82650000Y-44250000D01*
X84150000Y-44250000D02*
X84150000Y-45000000D01*
X84150000Y-45000000D02*
X85150000Y-45000000D01*
X85150000Y-44250000D02*
X84150000Y-44250000D01*
X85150000Y-45000000D02*
X85150000Y-44250000D01*
X86650000Y-44250000D02*
X86650000Y-45000000D01*
X86650000Y-45000000D02*
X88450000Y-45000000D01*
X87700000Y-46500000D02*
X87700000Y-49450000D01*
X87700000Y-49450000D02*
X84650000Y-49450000D01*
X88450000Y-44250000D02*
X86650000Y-44250000D01*
X88450000Y-45000000D02*
X88450000Y-44250000D01*
X88450000Y-46500000D02*
X87700000Y-46500000D01*
X88460000Y-44240000D02*
X80840000Y-44240000D01*
X88460000Y-50210000D02*
X88460000Y-44240000D01*
%TO.C,BT2*%
X90650000Y-44150000D02*
X90650000Y-45400000D01*
X90940000Y-44440000D02*
X90940000Y-50410000D01*
X90940000Y-50410000D02*
X98560000Y-50410000D01*
X90950000Y-44450000D02*
X90950000Y-45200000D01*
X90950000Y-45200000D02*
X92750000Y-45200000D01*
X90950000Y-46700000D02*
X91700000Y-46700000D01*
X91700000Y-46700000D02*
X91700000Y-49650000D01*
X91700000Y-49650000D02*
X94750000Y-49650000D01*
X91900000Y-44150000D02*
X90650000Y-44150000D01*
X92750000Y-44450000D02*
X90950000Y-44450000D01*
X92750000Y-45200000D02*
X92750000Y-44450000D01*
X94250000Y-44450000D02*
X94250000Y-45200000D01*
X94250000Y-45200000D02*
X95250000Y-45200000D01*
X95250000Y-44450000D02*
X94250000Y-44450000D01*
X95250000Y-45200000D02*
X95250000Y-44450000D01*
X96750000Y-44450000D02*
X96750000Y-45200000D01*
X96750000Y-45200000D02*
X98550000Y-45200000D01*
X97800000Y-46700000D02*
X97800000Y-49650000D01*
X97800000Y-49650000D02*
X94750000Y-49650000D01*
X98550000Y-44450000D02*
X96750000Y-44450000D01*
X98550000Y-45200000D02*
X98550000Y-44450000D01*
X98550000Y-46700000D02*
X97800000Y-46700000D01*
X98560000Y-44440000D02*
X90940000Y-44440000D01*
X98560000Y-50410000D02*
X98560000Y-44440000D01*
%TO.C,BT3*%
X100250000Y-44050000D02*
X100250000Y-45300000D01*
X100540000Y-44340000D02*
X100540000Y-50310000D01*
X100540000Y-50310000D02*
X108160000Y-50310000D01*
X100550000Y-44350000D02*
X100550000Y-45100000D01*
X100550000Y-45100000D02*
X102350000Y-45100000D01*
X100550000Y-46600000D02*
X101300000Y-46600000D01*
X101300000Y-46600000D02*
X101300000Y-49550000D01*
X101300000Y-49550000D02*
X104350000Y-49550000D01*
X101500000Y-44050000D02*
X100250000Y-44050000D01*
X102350000Y-44350000D02*
X100550000Y-44350000D01*
X102350000Y-45100000D02*
X102350000Y-44350000D01*
X103850000Y-44350000D02*
X103850000Y-45100000D01*
X103850000Y-45100000D02*
X104850000Y-45100000D01*
X104850000Y-44350000D02*
X103850000Y-44350000D01*
X104850000Y-45100000D02*
X104850000Y-44350000D01*
X106350000Y-44350000D02*
X106350000Y-45100000D01*
X106350000Y-45100000D02*
X108150000Y-45100000D01*
X107400000Y-46600000D02*
X107400000Y-49550000D01*
X107400000Y-49550000D02*
X104350000Y-49550000D01*
X108150000Y-44350000D02*
X106350000Y-44350000D01*
X108150000Y-45100000D02*
X108150000Y-44350000D01*
X108150000Y-46600000D02*
X107400000Y-46600000D01*
X108160000Y-44340000D02*
X100540000Y-44340000D01*
X108160000Y-50310000D02*
X108160000Y-44340000D01*
%TO.C,LED1*%
X127650000Y-65450000D02*
X128900000Y-65450000D01*
X127940000Y-65160000D02*
X133910000Y-65160000D01*
X133910000Y-65160000D02*
X133910000Y-57540000D01*
X127950000Y-65150000D02*
X128700000Y-65150000D01*
X128700000Y-65150000D02*
X128700000Y-63350000D01*
X130200000Y-65150000D02*
X130200000Y-64400000D01*
X130200000Y-64400000D02*
X133150000Y-64400000D01*
X133150000Y-64400000D02*
X133150000Y-61350000D01*
X127650000Y-64200000D02*
X127650000Y-65450000D01*
X127950000Y-63350000D02*
X127950000Y-65150000D01*
X128700000Y-63350000D02*
X127950000Y-63350000D01*
X127950000Y-61850000D02*
X128700000Y-61850000D01*
X128700000Y-61850000D02*
X128700000Y-60850000D01*
X127950000Y-60850000D02*
X127950000Y-61850000D01*
X128700000Y-60850000D02*
X127950000Y-60850000D01*
X127950000Y-59350000D02*
X128700000Y-59350000D01*
X128700000Y-59350000D02*
X128700000Y-57550000D01*
X130200000Y-58300000D02*
X133150000Y-58300000D01*
X133150000Y-58300000D02*
X133150000Y-61350000D01*
X127950000Y-57550000D02*
X127950000Y-59350000D01*
X128700000Y-57550000D02*
X127950000Y-57550000D01*
X130200000Y-57550000D02*
X130200000Y-58300000D01*
X127940000Y-57540000D02*
X127940000Y-65160000D01*
X133910000Y-57540000D02*
X127940000Y-57540000D01*
%TO.C,LED2*%
X113650000Y-79150000D02*
X114900000Y-79150000D01*
X113940000Y-78860000D02*
X119910000Y-78860000D01*
X119910000Y-78860000D02*
X119910000Y-71240000D01*
X113950000Y-78850000D02*
X114700000Y-78850000D01*
X114700000Y-78850000D02*
X114700000Y-77050000D01*
X116200000Y-78850000D02*
X116200000Y-78100000D01*
X116200000Y-78100000D02*
X119150000Y-78100000D01*
X119150000Y-78100000D02*
X119150000Y-75050000D01*
X113650000Y-77900000D02*
X113650000Y-79150000D01*
X113950000Y-77050000D02*
X113950000Y-78850000D01*
X114700000Y-77050000D02*
X113950000Y-77050000D01*
X113950000Y-75550000D02*
X114700000Y-75550000D01*
X114700000Y-75550000D02*
X114700000Y-74550000D01*
X113950000Y-74550000D02*
X113950000Y-75550000D01*
X114700000Y-74550000D02*
X113950000Y-74550000D01*
X113950000Y-73050000D02*
X114700000Y-73050000D01*
X114700000Y-73050000D02*
X114700000Y-71250000D01*
X116200000Y-72000000D02*
X119150000Y-72000000D01*
X119150000Y-72000000D02*
X119150000Y-75050000D01*
X113950000Y-71250000D02*
X113950000Y-73050000D01*
X114700000Y-71250000D02*
X113950000Y-71250000D01*
X116200000Y-71250000D02*
X116200000Y-72000000D01*
X113940000Y-71240000D02*
X113940000Y-78860000D01*
X119910000Y-71240000D02*
X113940000Y-71240000D01*
%TO.C,LED3*%
X112050000Y-51750000D02*
X113300000Y-51750000D01*
X112340000Y-51460000D02*
X118310000Y-51460000D01*
X118310000Y-51460000D02*
X118310000Y-43840000D01*
X112350000Y-51450000D02*
X113100000Y-51450000D01*
X113100000Y-51450000D02*
X113100000Y-49650000D01*
X114600000Y-51450000D02*
X114600000Y-50700000D01*
X114600000Y-50700000D02*
X117550000Y-50700000D01*
X117550000Y-50700000D02*
X117550000Y-47650000D01*
X112050000Y-50500000D02*
X112050000Y-51750000D01*
X112350000Y-49650000D02*
X112350000Y-51450000D01*
X113100000Y-49650000D02*
X112350000Y-49650000D01*
X112350000Y-48150000D02*
X113100000Y-48150000D01*
X113100000Y-48150000D02*
X113100000Y-47150000D01*
X112350000Y-47150000D02*
X112350000Y-48150000D01*
X113100000Y-47150000D02*
X112350000Y-47150000D01*
X112350000Y-45650000D02*
X113100000Y-45650000D01*
X113100000Y-45650000D02*
X113100000Y-43850000D01*
X114600000Y-44600000D02*
X117550000Y-44600000D01*
X117550000Y-44600000D02*
X117550000Y-47650000D01*
X112350000Y-43850000D02*
X112350000Y-45650000D01*
X113100000Y-43850000D02*
X112350000Y-43850000D01*
X114600000Y-43850000D02*
X114600000Y-44600000D01*
X112340000Y-43840000D02*
X112340000Y-51460000D01*
X118310000Y-43840000D02*
X112340000Y-43840000D01*
%TO.C,R1*%
X112610000Y-54510436D02*
X112610000Y-55964564D01*
X110790000Y-54510436D02*
X110790000Y-55964564D01*
%TO.C,R2*%
X120990000Y-58489564D02*
X120990000Y-57035436D01*
X122810000Y-58489564D02*
X122810000Y-57035436D01*
%TO.C,R3*%
X122810000Y-62935436D02*
X122810000Y-64389564D01*
X120990000Y-62935436D02*
X120990000Y-64389564D01*
%TO.C,R4*%
X110890000Y-66627064D02*
X110890000Y-65172936D01*
X112710000Y-66627064D02*
X112710000Y-65172936D01*
%TO.C,R5*%
X110690000Y-61264564D02*
X110690000Y-59810436D01*
X112510000Y-61264564D02*
X112510000Y-59810436D01*
%TO.C,R12*%
X115690000Y-56089564D02*
X115690000Y-54635436D01*
X117510000Y-56089564D02*
X117510000Y-54635436D01*
%TO.C,R13*%
X115690000Y-61189564D02*
X115690000Y-59735436D01*
X117510000Y-61189564D02*
X117510000Y-59735436D01*
%TO.C,R14*%
X115690000Y-66589564D02*
X115690000Y-65135436D01*
X117510000Y-66589564D02*
X117510000Y-65135436D01*
D10*
%TO.C,U1*%
X75520000Y-57890000D02*
X78060000Y-57890000D01*
X75520000Y-65510000D02*
X75520000Y-57890000D01*
X78060000Y-52810000D02*
X108540000Y-52810000D01*
X78060000Y-57890000D02*
X78060000Y-52810000D01*
X78060000Y-65510000D02*
X75520000Y-65510000D01*
X78060000Y-70590000D02*
X78060000Y-65510000D01*
X78060000Y-70590000D02*
X108540000Y-70590000D01*
X108540000Y-52810000D02*
X108540000Y-70590000D01*
D11*
%TO.C,J1*%
X78150000Y-72250000D02*
X78150000Y-73500000D01*
X78440000Y-72540000D02*
X78440000Y-78510000D01*
X78440000Y-78510000D02*
X93560000Y-78510000D01*
X78450000Y-72550000D02*
X78450000Y-73300000D01*
X78450000Y-73300000D02*
X80250000Y-73300000D01*
X78450000Y-74800000D02*
X79200000Y-74800000D01*
X79200000Y-74800000D02*
X79200000Y-76140000D01*
X79400000Y-72250000D02*
X78150000Y-72250000D01*
X80250000Y-72550000D02*
X78450000Y-72550000D01*
X80250000Y-73300000D02*
X80250000Y-72550000D01*
X81750000Y-72550000D02*
X81750000Y-73300000D01*
X81750000Y-73300000D02*
X90250000Y-73300000D01*
X86000000Y-77750000D02*
X80260000Y-77750000D01*
X90250000Y-72550000D02*
X81750000Y-72550000D01*
X90250000Y-73300000D02*
X90250000Y-72550000D01*
X91750000Y-72550000D02*
X91750000Y-73300000D01*
X91750000Y-73300000D02*
X93550000Y-73300000D01*
X92800000Y-74800000D02*
X92800000Y-77750000D01*
X92800000Y-77750000D02*
X86000000Y-77750000D01*
X93550000Y-72550000D02*
X91750000Y-72550000D01*
X93550000Y-73300000D02*
X93550000Y-72550000D01*
X93550000Y-74800000D02*
X92800000Y-74800000D01*
X93560000Y-72540000D02*
X78440000Y-72540000D01*
X93560000Y-78510000D02*
X93560000Y-72540000D01*
%TO.C,J2*%
X95250000Y-72350000D02*
X95250000Y-73600000D01*
X95540000Y-72640000D02*
X95540000Y-78610000D01*
X95540000Y-78610000D02*
X110660000Y-78610000D01*
X95550000Y-72650000D02*
X95550000Y-73400000D01*
X95550000Y-73400000D02*
X97350000Y-73400000D01*
X95550000Y-74900000D02*
X96300000Y-74900000D01*
X96300000Y-74900000D02*
X96300000Y-76240000D01*
X96500000Y-72350000D02*
X95250000Y-72350000D01*
X97350000Y-72650000D02*
X95550000Y-72650000D01*
X97350000Y-73400000D02*
X97350000Y-72650000D01*
X98850000Y-72650000D02*
X98850000Y-73400000D01*
X98850000Y-73400000D02*
X107350000Y-73400000D01*
X103100000Y-77850000D02*
X97360000Y-77850000D01*
X107350000Y-72650000D02*
X98850000Y-72650000D01*
X107350000Y-73400000D02*
X107350000Y-72650000D01*
X108850000Y-72650000D02*
X108850000Y-73400000D01*
X108850000Y-73400000D02*
X110650000Y-73400000D01*
X109900000Y-74900000D02*
X109900000Y-77850000D01*
X109900000Y-77850000D02*
X103100000Y-77850000D01*
X110650000Y-72650000D02*
X108850000Y-72650000D01*
X110650000Y-73400000D02*
X110650000Y-72650000D01*
X110650000Y-74900000D02*
X109900000Y-74900000D01*
X110660000Y-72640000D02*
X95540000Y-72640000D01*
X110660000Y-78610000D02*
X110660000Y-72640000D01*
%TD*%
M02*
