%TF.GenerationSoftware,KiCad,Pcbnew,7.0.1*%
%TF.CreationDate,2023-09-18T10:22:05-04:00*%
%TF.ProjectId,Groove Coaster,47726f6f-7665-4204-936f-61737465722e,rev?*%
%TF.SameCoordinates,Original*%
%TF.FileFunction,Copper,L2,Bot*%
%TF.FilePolarity,Positive*%
%FSLAX46Y46*%
G04 Gerber Fmt 4.6, Leading zero omitted, Abs format (unit mm)*
G04 Created by KiCad (PCBNEW 7.0.1) date 2023-09-18 10:22:05*
%MOMM*%
%LPD*%
G01*
G04 APERTURE LIST*
G04 Aperture macros list*
%AMRoundRect*
0 Rectangle with rounded corners*
0 $1 Rounding radius*
0 $2 $3 $4 $5 $6 $7 $8 $9 X,Y pos of 4 corners*
0 Add a 4 corners polygon primitive as box body*
4,1,4,$2,$3,$4,$5,$6,$7,$8,$9,$2,$3,0*
0 Add four circle primitives for the rounded corners*
1,1,$1+$1,$2,$3*
1,1,$1+$1,$4,$5*
1,1,$1+$1,$6,$7*
1,1,$1+$1,$8,$9*
0 Add four rect primitives between the rounded corners*
20,1,$1+$1,$2,$3,$4,$5,0*
20,1,$1+$1,$4,$5,$6,$7,0*
20,1,$1+$1,$6,$7,$8,$9,0*
20,1,$1+$1,$8,$9,$2,$3,0*%
G04 Aperture macros list end*
%TA.AperFunction,ComponentPad*%
%ADD10RoundRect,0.250000X-0.600000X-0.750000X0.600000X-0.750000X0.600000X0.750000X-0.600000X0.750000X0*%
%TD*%
%TA.AperFunction,ComponentPad*%
%ADD11O,1.700000X2.000000*%
%TD*%
%TA.AperFunction,ComponentPad*%
%ADD12RoundRect,0.250000X0.750000X-0.600000X0.750000X0.600000X-0.750000X0.600000X-0.750000X-0.600000X0*%
%TD*%
%TA.AperFunction,ComponentPad*%
%ADD13O,2.000000X1.700000*%
%TD*%
%TA.AperFunction,ComponentPad*%
%ADD14C,6.400000*%
%TD*%
%TA.AperFunction,ComponentPad*%
%ADD15R,1.600000X1.600000*%
%TD*%
%TA.AperFunction,ComponentPad*%
%ADD16C,1.600000*%
%TD*%
%TA.AperFunction,ComponentPad*%
%ADD17RoundRect,0.250000X-0.600000X-0.725000X0.600000X-0.725000X0.600000X0.725000X-0.600000X0.725000X0*%
%TD*%
%TA.AperFunction,ComponentPad*%
%ADD18O,1.700000X1.950000*%
%TD*%
%TA.AperFunction,Conductor*%
%ADD19C,0.250000*%
%TD*%
G04 APERTURE END LIST*
D10*
%TO.P,BT1,1,1*%
%TO.N,Net-(U1-B2)*%
X83400000Y-46700000D03*
D11*
%TO.P,BT1,2,2*%
%TO.N,Net-(BT1-Pad2)*%
X85900000Y-46700000D03*
%TD*%
D10*
%TO.P,BT2,1,1*%
%TO.N,Net-(U1-B3)*%
X93500000Y-46900000D03*
D11*
%TO.P,BT2,2,2*%
%TO.N,Net-(BT2-Pad2)*%
X96000000Y-46900000D03*
%TD*%
D10*
%TO.P,BT3,1,1*%
%TO.N,Net-(U1-B1)*%
X103100000Y-46800000D03*
D11*
%TO.P,BT3,2,2*%
%TO.N,Net-(BT3-Pad2)*%
X105600000Y-46800000D03*
%TD*%
D12*
%TO.P,LED1,1,-*%
%TO.N,Net-(LED1--)*%
X130400000Y-62600000D03*
D13*
%TO.P,LED1,2,+*%
%TO.N,Net-(LED1-+)*%
X130400000Y-60100000D03*
%TD*%
D12*
%TO.P,LED2,1,-*%
%TO.N,Net-(LED2--)*%
X116400000Y-76300000D03*
D13*
%TO.P,LED2,2,+*%
%TO.N,Net-(LED2-+)*%
X116400000Y-73800000D03*
%TD*%
D12*
%TO.P,LED3,1,-*%
%TO.N,Net-(LED3--)*%
X114800000Y-48900000D03*
D13*
%TO.P,LED3,2,+*%
%TO.N,Net-(LED3-+)*%
X114800000Y-46400000D03*
%TD*%
D14*
%TO.P,REF\u002A\u002A,1*%
%TO.N,N/C*%
X73800000Y-80900000D03*
%TD*%
%TO.P,REF\u002A\u002A,1*%
%TO.N,N/C*%
X73600000Y-46300000D03*
%TD*%
D15*
%TO.P,U1,1,TX*%
%TO.N,unconnected-(U1-TX-Pad1)*%
X79330000Y-69320000D03*
D16*
%TO.P,U1,2,RX*%
%TO.N,unconnected-(U1-RX-Pad2)*%
X81870000Y-69320000D03*
%TO.P,U1,3,GND*%
%TO.N,Net-(R1-Pad2)*%
X84410000Y-69320000D03*
%TO.P,U1,4,GND*%
%TO.N,unconnected-(U1-GND-Pad4)*%
X86950000Y-69320000D03*
%TO.P,U1,5,SDA*%
%TO.N,Net-(J1-Pin_1)*%
X89490000Y-69320000D03*
%TO.P,U1,6,SCL*%
%TO.N,Net-(J1-Pin_2)*%
X92030000Y-69320000D03*
%TO.P,U1,7,D4*%
%TO.N,Net-(J1-Pin_4)*%
X94570000Y-69320000D03*
%TO.P,U1,8,C6*%
%TO.N,Net-(J1-Pin_3)*%
X97110000Y-69320000D03*
%TO.P,U1,9,D7*%
%TO.N,Net-(J2-Pin_3)*%
X99650000Y-69320000D03*
%TO.P,U1,10,E6*%
%TO.N,Net-(J2-Pin_4)*%
X102190000Y-69320000D03*
%TO.P,U1,11,B4*%
%TO.N,Net-(J2-Pin_2)*%
X104730000Y-69320000D03*
%TO.P,U1,12,B5*%
%TO.N,Net-(J2-Pin_1)*%
X107270000Y-69320000D03*
%TO.P,U1,13,B6*%
%TO.N,unconnected-(U1-B6-Pad13)*%
X107270000Y-54080000D03*
%TO.P,U1,14,B2*%
%TO.N,Net-(U1-B2)*%
X104730000Y-54080000D03*
%TO.P,U1,15,B3*%
%TO.N,Net-(U1-B3)*%
X102190000Y-54080000D03*
%TO.P,U1,16,B1*%
%TO.N,Net-(U1-B1)*%
X99650000Y-54080000D03*
%TO.P,U1,17,F7*%
%TO.N,Net-(LED1--)*%
X97110000Y-54080000D03*
%TO.P,U1,18,F6*%
%TO.N,Net-(LED2--)*%
X94570000Y-54080000D03*
%TO.P,U1,19,F5*%
%TO.N,Net-(LED3--)*%
X92030000Y-54080000D03*
%TO.P,U1,20,F4*%
%TO.N,unconnected-(U1-F4-Pad20)*%
X89490000Y-54080000D03*
%TO.P,U1,21,VCC*%
%TO.N,unconnected-(U1-VCC-Pad21)*%
X86950000Y-54080000D03*
%TO.P,U1,22,RST*%
%TO.N,unconnected-(U1-RST-Pad22)*%
X84410000Y-54080000D03*
%TO.P,U1,23,GND*%
%TO.N,unconnected-(U1-GND-Pad23)*%
X81870000Y-54080000D03*
%TO.P,U1,24,RAW*%
%TO.N,unconnected-(U1-RAW-Pad24)*%
X79330000Y-54080000D03*
%TD*%
D14*
%TO.P,REF\u002A\u002A,1*%
%TO.N,N/C*%
X132700000Y-46300000D03*
%TD*%
%TO.P,REF\u002A\u002A,1*%
%TO.N,N/C*%
X132800000Y-80900000D03*
%TD*%
D17*
%TO.P,J1,1,Pin_1*%
%TO.N,Net-(J1-Pin_1)*%
X81000000Y-75000000D03*
D18*
%TO.P,J1,2,Pin_2*%
%TO.N,Net-(J1-Pin_2)*%
X83500000Y-75000000D03*
%TO.P,J1,3,Pin_3*%
%TO.N,Net-(J1-Pin_3)*%
X86000000Y-75000000D03*
%TO.P,J1,4,Pin_4*%
%TO.N,Net-(J1-Pin_4)*%
X88500000Y-75000000D03*
%TO.P,J1,5,Pin_5*%
%TO.N,Net-(J1-Pin_5)*%
X91000000Y-75000000D03*
%TD*%
D17*
%TO.P,J2,1,Pin_1*%
%TO.N,Net-(J2-Pin_1)*%
X98100000Y-75100000D03*
D18*
%TO.P,J2,2,Pin_2*%
%TO.N,Net-(J2-Pin_2)*%
X100600000Y-75100000D03*
%TO.P,J2,3,Pin_3*%
%TO.N,Net-(J2-Pin_3)*%
X103100000Y-75100000D03*
%TO.P,J2,4,Pin_4*%
%TO.N,Net-(J2-Pin_4)*%
X105600000Y-75100000D03*
%TO.P,J2,5,Pin_5*%
%TO.N,Net-(J2-Pin_5)*%
X108100000Y-75100000D03*
%TD*%
D19*
%TO.N,Net-(U1-B3)*%
X99201100Y-55222700D02*
X101047300Y-55222700D01*
X101047300Y-55222700D02*
X102190000Y-54080000D01*
X98380000Y-54401600D02*
X99201100Y-55222700D01*
X93500000Y-46900000D02*
X98380000Y-51780000D01*
X98380000Y-51780000D02*
X98380000Y-54401600D01*
%TO.N,Net-(U1-B1)*%
X103100000Y-50630000D02*
X99650000Y-54080000D01*
X103100000Y-46800000D02*
X103100000Y-50630000D01*
%TO.N,Net-(LED1--)*%
X105630000Y-62600000D02*
X97110000Y-54080000D01*
X130400000Y-62600000D02*
X105630000Y-62600000D01*
%TO.N,Net-(LED2--)*%
X116400000Y-76300000D02*
X94570000Y-54470000D01*
X94570000Y-54470000D02*
X94570000Y-54080000D01*
%TO.N,Net-(LED3--)*%
X111341100Y-45441100D02*
X92775100Y-45441100D01*
X92775100Y-45441100D02*
X92030000Y-46186200D01*
X114800000Y-48900000D02*
X111341100Y-45441100D01*
X92030000Y-46186200D02*
X92030000Y-54080000D01*
%TO.N,Net-(J1-Pin_1)*%
X86497700Y-72312300D02*
X83687700Y-72312300D01*
X89490000Y-69320000D02*
X86497700Y-72312300D01*
X83687700Y-72312300D02*
X81000000Y-75000000D01*
%TO.N,Net-(J1-Pin_2)*%
X87707900Y-73642100D02*
X85497500Y-73642100D01*
X84675100Y-74464500D02*
X84675100Y-75000000D01*
X83500000Y-75000000D02*
X84675100Y-75000000D01*
X85497500Y-73642100D02*
X84675100Y-74464500D01*
X92030000Y-69320000D02*
X87707900Y-73642100D01*
%TO.N,Net-(J1-Pin_4)*%
X94570000Y-69320000D02*
X89675100Y-74214900D01*
X88500000Y-75000000D02*
X89675100Y-75000000D01*
X89675100Y-74214900D02*
X89675100Y-75000000D01*
%TO.N,Net-(J2-Pin_1)*%
X99633500Y-67692600D02*
X98380000Y-68946100D01*
X105642600Y-67692600D02*
X99633500Y-67692600D01*
X98380000Y-74820000D02*
X98100000Y-75100000D01*
X107270000Y-69320000D02*
X105642600Y-67692600D01*
X98380000Y-68946100D02*
X98380000Y-74820000D01*
%TO.N,Net-(J2-Pin_2)*%
X100600000Y-73450000D02*
X100600000Y-75100000D01*
X104730000Y-69320000D02*
X100600000Y-73450000D01*
%TO.N,Net-(J2-Pin_3)*%
X100121900Y-76411600D02*
X101148800Y-76411600D01*
X101148800Y-76411600D02*
X101924900Y-75635500D01*
X103100000Y-75100000D02*
X101924900Y-75100000D01*
X99369600Y-75659300D02*
X100121900Y-76411600D01*
X99650000Y-69320000D02*
X99369600Y-69600400D01*
X99369600Y-69600400D02*
X99369600Y-75659300D01*
X101924900Y-75635500D02*
X101924900Y-75100000D01*
%TO.N,Net-(J2-Pin_4)*%
X105600000Y-75100000D02*
X105600000Y-73799900D01*
X103329000Y-68181000D02*
X105185900Y-68181000D01*
X102190000Y-69320000D02*
X103329000Y-68181000D01*
X105185900Y-68181000D02*
X105900000Y-68895100D01*
X105900000Y-73499900D02*
X105600000Y-73799900D01*
X105900000Y-68895100D02*
X105900000Y-73499900D01*
%TD*%
M02*
